<svg id="Layer_1" data-name="Layer 1" xmlns="http://www.w3.org/2000/svg" viewBox="0 0 566.88 566.88"><defs><style>.cls-1{fill:#2b325d;}.cls-2{fill:#fff;}.cls-3,.cls-4,.cls-5{fill:none;}.cls-4,.cls-5{stroke:#fff;stroke-width:0.63px;}.cls-4{stroke-miterlimit:10;}</style></defs><title>garter-stamp-ai</title><path class="cls-1" d="M0,0H566.88a0,0,0,0,1,0,0V443.62A123.26,123.26,0,0,1,443.62,566.88H0a0,0,0,0,1,0,0V0A0,0,0,0,1,0,0Z"/><circle class="cls-2" cx="250.7" cy="178.68" r="1.66"/><circle class="cls-2" cx="188.29" cy="232.55" r="1.66"/><circle class="cls-2" cx="323.46" cy="181.15" r="1.66"/><circle class="cls-2" cx="384.42" cy="245.83" r="1.66"/><circle class="cls-2" cx="389.7" cy="273.99" r="1.66"/><path class="cls-2" d="M498.83,605.53a4.27,4.27,0,0,0-1.36-2.07,4.36,4.36,0,0,0-2.62.3l-13.44,4.08a3.35,3.35,0,0,0-2,1.17,3.89,3.89,0,0,0,0,2.41l-0.58.17L476.25,603l0.58-.17a3.9,3.9,0,0,0,1.29,2,3.33,3.33,0,0,0,2.33-.15l6-1.83-2.86-9.42-6,1.83a3.4,3.4,0,0,0-2,1.16,3.88,3.88,0,0,0,.05,2.42L475,599l-2.61-8.61,0.58-.17a3.9,3.9,0,0,0,1.3,2,3.36,3.36,0,0,0,2.33-.15l13.8-4.19a3.29,3.29,0,0,0,2-1.16,4.19,4.19,0,0,0,0-2.41l0.58-.18,2.61,8.61L495,593a4.14,4.14,0,0,0-1.35-2.08,4.48,4.48,0,0,0-2.63.31L485,593l2.86,9.42,6.39-1.94a3.3,3.3,0,0,0,2-1.17,4.09,4.09,0,0,0-.05-2.4l0.58-.17,2.61,8.61Z" transform="translate(-303.47 -287.34)"/><path class="cls-2" d="M473.41,581a10.9,10.9,0,0,1-.79-14.74,12.22,12.22,0,0,1,16.7-.81,10.33,10.33,0,0,1,3.18,7.11,10.14,10.14,0,0,1-2.67,7.73,11.14,11.14,0,0,1-7.92,3.5A11,11,0,0,1,473.41,581Zm15.74-3.29a6.19,6.19,0,0,0,2.17-5.08,6.26,6.26,0,0,0-2.65-4.78q-2.49-1.91-7.73-1.62t-7.55,2.48a6.31,6.31,0,0,0-2.09,5,6.19,6.19,0,0,0,2.72,4.8q2.56,1.89,7.68,1.6T489.16,577.66Z" transform="translate(-303.47 -287.34)"/><path class="cls-2" d="M491,560.94a3.89,3.89,0,0,0-.43-2.7q-0.59-.69-3.12-1.15l-14.06-2.57-0.59.34a3.57,3.57,0,0,0-1.24,1,4.73,4.73,0,0,0-.5,1.43l-0.59-.11,1-5.45L489,542.22l-10.6-1.94q-2.61-.48-3.55.16a4,4,0,0,0-1.08,2.15l-0.59-.11,1.37-7.5,0.59,0.11a3.79,3.79,0,0,0,.44,2.6q0.59,0.74,3.1,1.2l16.8,3.07-0.1.55-20.08,10.91,12.43,2.27q2.62,0.48,3.55-.14a3.94,3.94,0,0,0,1.11-2.1l0.59,0.11-1.37,7.5Z" transform="translate(-303.47 -287.34)"/><path class="cls-2" d="M495.94,537.78a5.39,5.39,0,0,0,.36-2.61q-0.21-.71-2-1.37l-13.5-5.11a3.16,3.16,0,0,0-2.37-.27A4.62,4.62,0,0,0,477,530.6l-0.57-.21,3.41-9,0.57,0.21a4.62,4.62,0,0,0-.34,2.62,3.17,3.17,0,0,0,2,1.37l13.5,5.11q1.76,0.67,2.38.27a5.42,5.42,0,0,0,1.46-2.19l0.57,0.21-3.4,9Z" transform="translate(-303.47 -287.34)"/><path class="cls-2" d="M498.94,516.26a11.7,11.7,0,0,0,4,.35,6,6,0,0,0,4.55-2.71,4,4,0,0,0,.68-2.77,3.45,3.45,0,0,0-1.65-2.47,3.83,3.83,0,0,0-2.93-.59,20.17,20.17,0,0,0-3.61,1.35l-3,1.34a9.9,9.9,0,0,1-2.44.76,5,5,0,0,1-3.58-.75,5.56,5.56,0,0,1-2.49-3.64,5.84,5.84,0,0,1,1.06-4.5,8.29,8.29,0,0,1,1.94-1.91,11.19,11.19,0,0,0,1.45-1.17,1,1,0,0,0,.23-0.85,2.05,2.05,0,0,0-.47-0.75l0.37-.56,6.13,3.27-0.43.64a7.29,7.29,0,0,0-5-.32,6,6,0,0,0-3,2.19,3.62,3.62,0,0,0-.64,2.37,2.63,2.63,0,0,0,1.26,2,3.18,3.18,0,0,0,2.2.56,9.8,9.8,0,0,0,2.89-.91l3-1.38a14.8,14.8,0,0,1,4.62-1.44,5.24,5.24,0,0,1,3.34.94,5.48,5.48,0,0,1,2.47,4,7.1,7.1,0,0,1-1.32,5,9.51,9.51,0,0,1-2.23,2.28,11.75,11.75,0,0,0-1.52,1.24,0.8,0.8,0,0,0-.14.83,2.22,2.22,0,0,0,.48.64l-0.4.59-6.28-3Z" transform="translate(-303.47 -287.34)"/><path class="cls-2" d="M501.91,490.64a10.91,10.91,0,0,1,10.61-10.26,12.19,12.19,0,0,1,11.54,12.06,10.33,10.33,0,0,1-3.28,7.06,10.14,10.14,0,0,1-7.59,3.06,11.11,11.11,0,0,1-7.82-3.68A11,11,0,0,1,501.91,490.64Zm12.79,9.7a6.19,6.19,0,0,0,5.25-1.69,6.25,6.25,0,0,0,1.87-5.13q-0.19-3.13-3.83-6.88t-6.81-4.06A6.3,6.3,0,0,0,506,484.3a6.19,6.19,0,0,0-1.85,5.19q0.25,3.16,3.81,6.84T514.7,500.35Z" transform="translate(-303.47 -287.34)"/><path class="cls-2" d="M528.71,491.17a5.45,5.45,0,0,0,1.78-1.94q0.23-.7-0.83-2.24l-8.18-11.89a3.14,3.14,0,0,0-1.79-1.56,4.61,4.61,0,0,0-2.46,1l-0.35-.5,7.91-5.44,0.35,0.5a4.61,4.61,0,0,0-1.77,2,3.14,3.14,0,0,0,.82,2.23l8.18,11.89q1.06,1.54,1.8,1.58a5.44,5.44,0,0,0,2.45-1l0.34,0.5-7.91,5.45Z" transform="translate(-303.47 -287.34)"/><path class="cls-2" d="M528.65,465.9l16.56-7.9,2.54,4.91-0.7.33a6.62,6.62,0,0,0-2.77-2.43q-1.13-.33-3.69.89l-1.63.78,7.15,15q0.81,1.69,1.53,1.85a5.44,5.44,0,0,0,2.58-.57l0.26,0.55-8.55,4.08-0.26-.55a4.52,4.52,0,0,0,2-1.71,4.19,4.19,0,0,0-.66-2.57l-7-14.66-1.63.77a6.21,6.21,0,0,0-3,2.28q-0.55,1.12.14,3.7l-0.71.34Z" transform="translate(-303.47 -287.34)"/><path class="cls-2" d="M564.1,455.08a10.88,10.88,0,0,1,14.55-2,11,11,0,0,1,4.42,7.84,11.53,11.53,0,0,1-1.13,7.24,10.06,10.06,0,0,1-5.87,4.74,11,11,0,0,0,5.25,3.33,16,16,0,0,0,4.33.4l0.08,0.6-1.32.18a22.84,22.84,0,0,1-4.68.21,14.19,14.19,0,0,1-3.84-.79,11.26,11.26,0,0,1-3.37-1.94,18.33,18.33,0,0,0-1.78-1.37l-0.43-.13a13.09,13.09,0,0,1-4.52-2.26A12.31,12.31,0,0,1,564.1,455.08Zm4.56,15.43a6.24,6.24,0,0,0,9.78-1.28q1.7-2.64,1-7.84t-3.09-7.32a6.3,6.3,0,0,0-5.17-1.68,6.2,6.2,0,0,0-4.57,3.1q-1.67,2.7-1,7.79T568.66,470.51Z" transform="translate(-303.47 -287.34)"/><path class="cls-2" d="M596,451.27l-0.06.6a4.36,4.36,0,0,0-2.47.39,3.24,3.24,0,0,0-.77,2.23l-1,10.33a9.25,9.25,0,0,0,.32,4q1,2.71,4.66,3.05,4,0.38,5.57-2.14a10.59,10.59,0,0,0,1.19-4.5l0.8-8.41q0.26-2.64-.31-3.37a3.83,3.83,0,0,0-2.32-1.07l0.06-.6,7.48,0.71-0.06.6a3.72,3.72,0,0,0-2.54.67q-0.64.65-.89,3.19l-0.8,8.41a11,11,0,0,1-1.52,5.12q-2.22,3.27-7.52,2.77t-6.8-4.09a9.88,9.88,0,0,1-.57-4.92l1-10.09a3.23,3.23,0,0,0-.33-2.32,4.37,4.37,0,0,0-2.32-.87l0.06-.6Z" transform="translate(-303.47 -287.34)"/><path class="cls-2" d="M608.56,473.54a5.43,5.43,0,0,0,2.64.13c0.46-.18.86-0.87,1.2-2.07l3.92-13.9a3.14,3.14,0,0,0,.06-2.37,4.62,4.62,0,0,0-2.31-1.28l0.16-.59,9.25,2.61-0.16.59a4.61,4.61,0,0,0-2.64-.11,3.14,3.14,0,0,0-1.19,2.05l-3.92,13.9q-0.51,1.8-.06,2.39a5.43,5.43,0,0,0,2.32,1.27l-0.16.59-9.25-2.61Z" transform="translate(-303.47 -287.34)"/><path class="cls-2" d="M628.26,480.11a3.89,3.89,0,0,0,2.65.68q0.86-.27,2.29-2.4l7.31-11a3.29,3.29,0,0,0,.81-2.21,4.27,4.27,0,0,0-1.75-1.92l0.34-.5,5.33,3.55-2.77,17.58,15-9.42,5.37,3.58-0.34.5a3.88,3.88,0,0,0-2.3-.74,3.37,3.37,0,0,0-1.68,1.59l-8,12a3.32,3.32,0,0,0-.82,2.18,4.18,4.18,0,0,0,1.57,1.84l-0.34.5-7.56-5,0.34-.51a4,4,0,0,0,2.43.77,4.47,4.47,0,0,0,1.85-1.9l8.08-12.12-17.16,10.77-0.37-.25,3-19.27-7.17,10.76q-1.48,2.21-1.28,3.31a3.94,3.94,0,0,0,1.48,1.85l-0.34.51-6.34-4.23Z" transform="translate(-303.47 -287.34)"/><path class="cls-2" d="M651.82,496.85l0.45-.39a2.64,2.64,0,0,0,1.94.81,26,26,0,0,0,4.72-1.23l16.49-5.25,0.43,0.5-8.73,18.08a7.71,7.71,0,0,0-.89,2.46,3.06,3.06,0,0,0,.61,1.62l-0.45.39L661,507.57l0.45-.39a7.26,7.26,0,0,0,1.44,1.2,0.87,0.87,0,0,0,.95-0.27,3.86,3.86,0,0,0,.53-0.67,9.24,9.24,0,0,0,.68-1.16l1.53-3L661,496.8q-3.27,1.1-4,1.37a3.62,3.62,0,0,0-1,.54,1.16,1.16,0,0,0-.44,1.25,5.33,5.33,0,0,0,.79,1.36l-0.45.39ZM667.23,502l4.36-8.63-9.19,3Z" transform="translate(-303.47 -287.34)"/><path class="cls-2" d="M667.61,514.66a4.77,4.77,0,0,0,1.64,1.76,3.18,3.18,0,0,0,2.26-.58l12.83-6.66a3.37,3.37,0,0,0,1.76-1.5,3.85,3.85,0,0,0-.49-2.37l0.53-.28,4.22,8.14-0.53.28a4.48,4.48,0,0,0-1.63-1.86,2.69,2.69,0,0,0-2.16.43l-13.85,7.19a1.67,1.67,0,0,0-.67.55,1,1,0,0,0,0,.89q0.13,0.34.3,0.71t0.68,1.35q2,3.84,3.33,4.86t4.59,0.94l0.38,0.73-5.72,1.18-8-15.5Z" transform="translate(-303.47 -287.34)"/><path class="cls-2" d="M701.11,543.12l-0.59.11a4.94,4.94,0,0,0-.49-1.65,0.85,0.85,0,0,0-1-.39,1.88,1.88,0,0,0-.49.19,3.47,3.47,0,0,0-.72.58l-6,6,7.87,3.23a3.25,3.25,0,0,0,.82.22,1.84,1.84,0,0,0,.45,0,0.9,0.9,0,0,0,.76-0.91,5.85,5.85,0,0,0-.13-1.52l0.59-.11,1.34,7L703,556a3.3,3.3,0,0,0-.91-1.61,11.7,11.7,0,0,0-3.58-2.07l-8.1-3.32-6.19,1.19c-1.23.24-2,.58-2.19,1A5.56,5.56,0,0,0,682,554l-0.59.11-1.87-9.72,0.59-.11a4.78,4.78,0,0,0,1.16,2.56q0.62,0.42,2.7,0l5.53-1.06,5.31-5.35a37.44,37.44,0,0,0,3.47-3.81,3.12,3.12,0,0,0,.55-2.3l0.59-.11Z" transform="translate(-303.47 -287.34)"/><path class="cls-2" d="M683.27,568.71a3.6,3.6,0,0,0,.49,2.37,4.58,4.58,0,0,0,2.5.72l14,1.46a3.41,3.41,0,0,0,2.28-.28,3.66,3.66,0,0,0,.91-2.17l0.59,0.06-0.89,8.51a10.54,10.54,0,0,1-2.25,6.1,5,5,0,0,1-4.42,1.74,5.22,5.22,0,0,1-4.53-2.91,11.41,11.41,0,0,1-.85-6.19c0-.35.09-0.79,0.16-1.33s0.12-.94.15-1.2l-5.87-.61a3.16,3.16,0,0,0-2.35.32,4.92,4.92,0,0,0-.87,2.44l-0.6-.06,0.94-9Zm17.84,12.86a8.66,8.66,0,0,0,1-3.4,2.27,2.27,0,0,0-.07-1.24,1.19,1.19,0,0,0-.85-0.32l-8.44-.88q-0.16.86-.21,1.12c0,0.18-.05.35-0.07,0.52a8,8,0,0,0,.27,3.56q0.91,2.43,4.07,2.76A4.08,4.08,0,0,0,701.11,581.56Z" transform="translate(-303.47 -287.34)"/><path class="cls-2" d="M681,586.43a4.73,4.73,0,0,0-.08,2.41,3.21,3.21,0,0,0,2,1.19l13.77,4.3a3.39,3.39,0,0,0,2.32.18,3.85,3.85,0,0,0,1.32-2l0.57,0.18-5.14,16.46-4.45-1.28,0.25-.79a4.59,4.59,0,0,0,3-.35c0.56-.4,1.13-1.5,1.69-3.31l1.32-4.22a1.14,1.14,0,0,0,0-.91,1.57,1.57,0,0,0-.77-0.42l-6.92-2.16-1.5,4.8q-0.62,2-.2,2.71a5.34,5.34,0,0,0,2.11,1.62l-0.23.72L683,603.27l0.22-.72a5.42,5.42,0,0,0,2.66-.15,3.81,3.81,0,0,0,1.37-2.33l1.5-4.8L681,592.89a1,1,0,0,0-1.27.24,20.84,20.84,0,0,0-1.26,3.44,12.42,12.42,0,0,0-.77,4.87q0.22,1.72,2.5,3.73L680,606l-4.79-3,5.22-16.74Z" transform="translate(-303.47 -287.34)"/><path class="cls-2" d="M674.32,607.32a3.87,3.87,0,0,0-.57,2.67q0.3,0.85,2.5,2.19l12.2,7.46,0.68-.11a3.61,3.61,0,0,0,1.52-.49,4.63,4.63,0,0,0,1-1.16l0.51,0.31-2.9,4.74-19.72,2.56,9.18,5.61q2.26,1.39,3.36,1.13a4,4,0,0,0,1.78-1.62l0.5,0.31-4,6.5-0.51-.31a3.76,3.76,0,0,0,.52-2.58q-0.28-.9-2.46-2.23l-14.57-8.91,0.29-.47L686.28,620l-10.78-6.6q-2.27-1.39-3.37-1.15a4,4,0,0,0-1.79,1.57l-0.51-.31,4-6.5Z" transform="translate(-303.47 -287.34)"/><path class="cls-2" d="M665,632.51a11.73,11.73,0,0,0-3.85-1,6,6,0,0,0-5,1.88,4,4,0,0,0-1.15,2.61,3.45,3.45,0,0,0,1.19,2.72,3.83,3.83,0,0,0,2.78,1.1,20.35,20.35,0,0,0,3.79-.71l3.17-.8a9.79,9.79,0,0,1,2.53-.32,5,5,0,0,1,3.39,1.37,5.56,5.56,0,0,1,1.82,4,5.84,5.84,0,0,1-1.82,4.24,8.31,8.31,0,0,1-2.25,1.54,11.35,11.35,0,0,0-1.63.9,1,1,0,0,0-.37.8,2.06,2.06,0,0,0,.34.82l-0.46.48-5.47-4.29,0.54-.56a7.31,7.31,0,0,0,4.91,1.2,6,6,0,0,0,3.3-1.63,3.64,3.64,0,0,0,1-2.22,2.64,2.64,0,0,0-.89-2.23,3.19,3.19,0,0,0-2.07-.94,9.82,9.82,0,0,0-3,.39l-3.25.83a14.77,14.77,0,0,1-4.8.61,5.25,5.25,0,0,1-3.13-1.52,5.49,5.49,0,0,1-1.74-4.35,7.12,7.12,0,0,1,2.18-4.73,9.5,9.5,0,0,1,2.6-1.87,12.14,12.14,0,0,0,1.71-1,0.8,0.8,0,0,0,.28-0.8,2.15,2.15,0,0,0-.36-0.71l0.49-.51,5.65,4.11Z" transform="translate(-303.47 -287.34)"/><path class="cls-2" d="M649.32,640.3a4.74,4.74,0,0,0-1.54,1.84,3.18,3.18,0,0,0,.86,2.17l8.2,11.85a3.4,3.4,0,0,0,1.71,1.56,3.86,3.86,0,0,0,2.29-.78l0.35,0.5L647,667.25l-2.74-3.76L645,663a4.6,4.6,0,0,0,2.6,1.58q1,0,3.39-1.58l3.62-2.5a1.12,1.12,0,0,0,.59-0.69,1.56,1.56,0,0,0-.35-0.8l-4.11-5.94-4.11,2.84c-1.13.79-1.74,1.45-1.81,2a5.31,5.31,0,0,0,.66,2.56l-0.63.44-4.26-6.15,0.63-.44a5.42,5.42,0,0,0,2.18,1.52,3.8,3.8,0,0,0,2.5-1L650,652l-4.57-6.61a1,1,0,0,0-1.15-.59,20.6,20.6,0,0,0-3.1,1.94,12.26,12.26,0,0,0-3.59,3.36q-0.88,1.49-.33,4.49l-0.75.52-1.91-5.36,14.4-10Z" transform="translate(-303.47 -287.34)"/><ellipse class="cls-2" cx="552.43" cy="425.68" rx="9.01" ry="4.64" transform="translate(-373.6 -176) rotate(-10.83)"/><path class="cls-2" d="M536.21,667.84a7.42,7.42,0,1,0,7.42-7.43A7.43,7.43,0,0,0,536.21,667.84Zm3.38,0a4,4,0,1,1,4,4A4.05,4.05,0,0,1,539.59,667.84Z" transform="translate(-303.47 -287.34)"/><path class="cls-2" d="M579.71,659.36a7.38,7.38,0,1,0,7.37-7A7.22,7.22,0,0,0,579.71,659.36Zm3.28,0a4.11,4.11,0,1,1,4.09,3.76A3.94,3.94,0,0,1,583,659.36Z" transform="translate(-303.47 -287.34)"/><path class="cls-2" d="M579.56,724.81a7.42,7.42,0,1,0,7.42-7.43A7.43,7.43,0,0,0,579.56,724.81Zm3.38,0a4,4,0,1,1,4,4A4.05,4.05,0,0,1,582.94,724.81Z" transform="translate(-303.47 -287.34)"/><path class="cls-2" d="M579.25,688.18a7.78,7.78,0,0,0-5.14,2.91,5.74,5.74,0,0,0,1.15,8.23,8,8,0,0,0,10.88-1.52,6,6,0,0,0,1.24-3.59,5.56,5.56,0,0,0-.05-0.77,5.87,5.87,0,0,0-2.34-3.87A7.79,7.79,0,0,0,579.25,688.18Zm-2.13,8.68a2.66,2.66,0,0,1-.55-3.91,5,5,0,0,1,6.56-.92,2.8,2.8,0,0,1,1.14,1.83h0a2.8,2.8,0,0,1-.6,2.08A5,5,0,0,1,577.12,696.86Zm10.21-3.42h0Z" transform="translate(-303.47 -287.34)"/><path class="cls-2" d="M587,772V771.9l0,0.05,0,0V772c-7.35,7.65-7.71,21.87,0,23.94v0C594.74,793.88,594.38,779.66,587,772Z" transform="translate(-303.47 -287.34)"/><path class="cls-3" d="M533.1,430.8c-1.64,2-3.48,4.07-5.07,5.75l1.48,3.45c10-3.85,27.07-9.48,52.94-10.58-4.79-2.53-9-4.72-14-7.53a81.79,81.79,0,0,1,11.05-7c-30.51,1.87-45.55,8-55.69,11.43l1.58,3.88C528.63,430.21,531.43,430.2,533.1,430.8Z" transform="translate(-303.47 -287.34)"/><path class="cls-3" d="M586.47,409.49a183.48,183.48,0,0,1,66.09,12c2.35,0.89,5.53-1.87.63-3.87-26.09-10.18-50.82-11.89-66-12-15.11.09-40.07,1.74-66.39,12-4.89,2-1.71,4.76.63,3.87a183.61,183.61,0,0,1,65-12h0Z" transform="translate(-303.47 -287.34)"/><path class="cls-3" d="M547.11,399.36c7.11,7,30.82,8.22,39.73-8.29,0-.25,0-0.47,0-0.63l0.16,0.3,0.16-.3c0,0.16,0,.37,0,0.62,8.91,16.5,32.61,15.33,39.72,8.29,3.52,10,18.89,15.11,30.15,6.29-21.4,4.13-27.76-8.82-29.16-13-19.07,17.93-41.17-1.36-39-14.45a5.15,5.15,0,0,1-3.75-.12c2.31,13.09-19.88,32.56-39,14.58-1.41,4.22-7.77,17.17-29.16,13C528.22,414.47,543.59,409.35,547.11,399.36Z" transform="translate(-303.47 -287.34)"/><path class="cls-3" d="M473.44,640c-1.78,1.22-.09,2.63,1,2s14-7.93,19.33-12.72C487.89,631.34,475.22,638.76,473.44,640Z" transform="translate(-303.47 -287.34)"/><path class="cls-3" d="M614.49,638.64c-7.08,8.17-7.66,45.73-7.7,49.32,1.56,1,3.13,1.89,4.69,2.72-0.07-6.41-.71-38.21,7.1-53.6C617.31,637.59,615.94,638.12,614.49,638.64Z" transform="translate(-303.47 -287.34)"/><path class="cls-3" d="M534.64,628.53a81,81,0,0,1-12.73-13.78l-3.76,2.32a85.66,85.66,0,0,0,13.67,14.77Z" transform="translate(-303.47 -287.34)"/><path class="cls-3" d="M668,567a81.42,81.42,0,0,1-32.3,64.65,82.52,82.52,0,0,1-14.65,9,18.16,18.16,0,0,0-.71,1.81c-0.35,1.16-.66,2.35-1,3.55,2-.84,3.86-1.72,4-1.8A85.22,85.22,0,1,0,502,567.06a84.87,84.87,0,0,0,12.64,44.72l3.77-2.31A80.86,80.86,0,1,1,668,567Z" transform="translate(-303.47 -287.34)"/><path class="cls-3" d="M576.64,421.6c4.29,1.94,6.55,2.93,10.36,4.83,3.82-1.91,6.08-2.9,10.37-4.84-3.56-2.05-7.68-4.21-10.36-5.84C584.33,417.38,580.2,419.55,576.64,421.6Z" transform="translate(-303.47 -287.34)"/><path class="cls-3" d="M605.55,421.88c-4.93,2.82-9.18,5-14,7.53,25.87,1.1,42.94,6.73,52.94,10.58l1.48-3.45c-1.59-1.68-3.42-3.71-5.07-5.75,1.66-.6,4.47-0.59,7.68-0.64l1.59-3.88c-10.15-3.45-25.18-9.56-55.69-11.43A81.78,81.78,0,0,1,605.55,421.88Zm7.2,2.11c0.48-2.52,4.83-3.81,9.72-2.87s8.46,3.73,8,6.25-4.83,3.81-9.72,2.87S612.26,426.51,612.75,424Z" transform="translate(-303.47 -287.34)"/><path class="cls-3" d="M581.85,373.1a5.33,5.33,0,0,1,2.47-4.49c-4.58,0-10.72-2.6-10.72-2.6v14.89a36.07,36.07,0,0,1,11.12-3.09A5.33,5.33,0,0,1,581.85,373.1Z" transform="translate(-303.47 -287.34)"/><path class="cls-3" d="M592.55,373.1a5.33,5.33,0,0,1-2.91,4.73,36.07,36.07,0,0,1,10.8,3.05V366s-5.83,2.46-10.36,2.6A5.33,5.33,0,0,1,592.55,373.1Z" transform="translate(-303.47 -287.34)"/><path class="cls-3" d="M587.2,367.75a5.33,5.33,0,0,1,2.08.42c0.26-5.56,5.43-12.45,5.43-12.45H579.32s5.29,7,5.44,12.64A5.29,5.29,0,0,1,587.2,367.75Z" transform="translate(-303.47 -287.34)"/><path class="cls-3" d="M562.92,721.36a10.22,10.22,0,0,1,4.08,5.41V709.64c-1.37-.57-2.73-1.15-4.08-1.77v13.49Z" transform="translate(-303.47 -287.34)"/><path class="cls-3" d="M576.11,642.76c-3.94,3.35-5.22,10.43-5.51,14.55C581.46,668,593.11,679,604.81,686.69c0-4.27-.05-36.73,6.79-47.08A82.52,82.52,0,0,1,576.11,642.76Z" transform="translate(-303.47 -287.34)"/><path class="cls-3" d="M595.36,741.32c-2.11-7.28,4.36-10.71,9.36-7v-18c-11.91,1-24-1.37-35.61-5.86v23.95c5-3.94,11.68-.52,9.54,6.85-6.49-1.48-10,6.31-10.11,13.65,0,5,1.79,9.73,4.42,11.49a7.48,7.48,0,0,0,11.63-4.63c1.19-6.94-7.78-8.89-7.95-2.57-6.81-4.7.49-14.76,5.84-8.27-1.71-7.3,4-11.61,4.49-12v0h0l0,0V739c0.49,0.35,6.2,4.67,4.49,12,5.35-6.49,12.65,3.57,5.84,8.27-0.16-6.32-9.13-4.38-7.95,2.57A7.48,7.48,0,0,0,601,766.45c2.63-1.76,4.47-6.48,4.42-11.49C605.4,747.62,601.85,739.84,595.36,741.32Z" transform="translate(-303.47 -287.34)"/><path class="cls-3" d="M653,683a128.7,128.7,0,0,1-27.83,11.89C633.32,695.69,645.88,694.73,653,683Z" transform="translate(-303.47 -287.34)"/><path class="cls-3" d="M606.84,727.38a10.35,10.35,0,0,1,4.44-6.11v-5.78q-2.22.41-4.45,0.67v11.23Z" transform="translate(-303.47 -287.34)"/><path class="cls-3" d="M587.18,438.23c-71,0-128.75,57.78-128.75,128.8a128.24,128.24,0,0,0,19,67.45l3.17-1.93a124.56,124.56,0,0,1-18.46-65.49c0-68.95,56.08-125,125-125s125,56.1,125,125A125.06,125.06,0,0,1,615.58,688.9c0,1.36,0,2.65.07,3.82l0,0A125.93,125.93,0,0,0,641.24,684,128.61,128.61,0,0,0,715.93,567C715.93,496,658.17,438.23,587.18,438.23Z" transform="translate(-303.47 -287.34)"/><path class="cls-3" d="M631,699c-42,4.74-62.94-36.67-94.65-60L513.6,665.5c7.21,5.15,20.91,16.73,37.53,26.93,21.88,13.43,48.94,24.27,74.28,12.95-24.88,13.22-53,2.72-75.59-10.79-17.12-10.23-31.14-22.09-37.81-27.23l-2.19,2.56c22.77,17.9,85.25,69.63,131.43,27.08a46.65,46.65,0,0,1-5.28,1.48A38.67,38.67,0,0,1,631,699Z" transform="translate(-303.47 -287.34)"/><path class="cls-3" d="M620.91,698c-27.16-6.23-50.91-39.34-80.16-64l-2.91,3.32C570.28,660.83,587.5,694.63,620.91,698Z" transform="translate(-303.47 -287.34)"/><path class="cls-3" d="M570.06,641.86c-4.2.95-5.11,8.77-5.21,9.75l3.39,3.37c0.35-2.65,1.62-10.08,5.07-12.58C572.24,642.23,571.16,642.05,570.06,641.86Z" transform="translate(-303.47 -287.34)"/><path class="cls-3" d="M709.88,567.06c0-67.71-55.06-122.79-122.75-122.79S464.38,499.35,464.38,567.06a122.32,122.32,0,0,0,18.13,64.32l13.82-8.44c-0.32-.61-0.61-1.17-0.83-1.64-0.58-1.2-.42-2.66,1.31-1.88a31.21,31.21,0,0,1,2.82,1.5l13-8A87.42,87.42,0,1,1,623,646.86c-1.71.77-3.14,1.38-4.24,1.82-2.86,13.06-3.31,27.68-3.24,38.14,6.88-1.94,7.74-2.49,10.85-3.41A122.38,122.38,0,0,0,709.88,567.06Z" transform="translate(-303.47 -287.34)"/><path class="cls-3" d="M560.79,644.11a57.32,57.32,0,0,1-5.52-1.91c1.55,1.49,3.14,3,4.74,4.62A12.83,12.83,0,0,1,560.79,644.11Z" transform="translate(-303.47 -287.34)"/><path class="cls-3" d="M505.9,662.09A125.56,125.56,0,0,1,484.17,638L481,640a129.33,129.33,0,0,0,22.48,24.91Z" transform="translate(-303.47 -287.34)"/><path class="cls-3" d="M503.09,670.05c-1.83,2,.7,3.94,2.39,2s23.93-26.89,24.35-30C522.52,648.66,504.92,668.08,503.09,670.05Z" transform="translate(-303.47 -287.34)"/><ellipse class="cls-2" cx="621.59" cy="425.19" rx="4.64" ry="9.01" transform="translate(-216.27 668.49) rotate(-79.17)"/><path class="cls-2" d="M520.69,608.33c2.39-1.27,4.45-1.24,5.63.77,0.7,1.2,8.59,13.51,8.87,14.64a2.47,2.47,0,0,1-.56,2.6c-2.11-3.52-7.81-12.6-8.73-14.08C524.63,610.44,523.36,608.19,520.69,608.33Z" transform="translate(-303.47 -287.34)"/><path class="cls-2" d="M650.83,449.46c2.42-1.28,4.07-5.09.16-7.19-0.39-.21-0.7-0.28-1.36-0.56l0.72-1.81c1.41-.62,5.9-3.21,4.21-10l1.23-2.91c5.71-.62,10.1-8.33,2.4-12.44,5.18-8.11,9.92-14.75,14.1-20.16a3.57,3.57,0,0,0,3.65-.63,3.3,3.3,0,0,0,.81-4.57c0-.06-0.11-0.11-0.17-0.16,9.63-11.61,15.39-15.63,15.39-15.63s-10.14-6.33-19.71-8.87a37.7,37.7,0,0,1-2.53,20.55s-4.22-8.63-4-16.52c-0.56,1.5-9,15.2-14.08,23.46a31.3,31.3,0,0,1,14.31-1.88c-15.06,22.38-34.64,5.91-32.53-1.55,3.94,0.66,5.32-4.72.54-5.56,0.35-6.4,6.33-7.78,9.48-5.07a6.3,6.3,0,0,1-1.74,10.44c8.31,2.63,14.56-5.83,12.22-13.49-1.92-6.31-11.94-12-20.41,1.85,1.31-9.38,6.66-11.64,9-16.14s-5.07-13.14-6.38-16.7c-2.63,3.14-11.43,8.26-11.19,13.19s5.3,8.31,3.62,18.53c-3.34-13.79-12.71-13.62-16.81-10-8.82,7.7-1.59,19.33,5.3,18.58a6.28,6.28,0,0,1-.93-8.14c2.58-4.63,11.84-3.9,10.18,5.44-5.49-.47-4.6,5.35-1.27,5.47-2.39,9.06-23.36,12.57-30.93-4.32C598.15,383,605,387.7,605,387.7V359.07s-7.13,3.75-10.32,4.32c2.82-7.6,10.06-13.23,10.06-13.23H569.32s7.25,5.63,10.06,13.23c-3.19-.56-10.32-4.32-10.32-4.32V387.7s6.8-4.67,10.86-5.07c-7.58,16.89-28.54,13.37-30.93,4.32,3.33-.12,4.22-5.94-1.27-5.47-1.66-9.34,7.6-10.06,10.18-5.44a6.27,6.27,0,0,1-.93,8.14c6.9,0.75,14.12-10.89,5.3-18.58-4.1-3.57-13.47-3.75-16.81,10-1.68-10.23,3.39-13.61,3.62-18.53s-8.56-10-11.19-13.19c-1.31,3.57-8.73,12.2-6.38,16.7s7.69,6.76,9,16.14c-8.47-13.82-18.49-8.16-20.41-1.85-2.34,7.66,3.92,16.12,12.22,13.49A6.3,6.3,0,0,1,530.6,378c3.14-2.71,9.13-1.34,9.48,5.07-4.79.84-3.4,6.22,0.54,5.56,2.11,7.46-17.46,23.93-32.53,1.55A31.3,31.3,0,0,1,522.4,392c-5.07-8.26-13.51-22-14.08-23.46,0.19,7.88-4,16.52-4,16.52a37.7,37.7,0,0,1-2.53-20.55c-9.57,2.53-19.71,8.87-19.71,8.87s5.76,4,15.39,15.63c-0.06.06-.12,0.1-0.17,0.16a3.3,3.3,0,0,0,.81,4.57,3.57,3.57,0,0,0,3.65.63c4.19,5.41,8.92,12.05,14.1,20.16-7.69,4.11-3.31,11.82,2.4,12.44l1.23,2.91c-1.69,6.79,2.8,9.38,4.21,10l0.72,1.81c-0.66.28-1,.35-1.36,0.56-4,2.15-2.18,6.09.32,7.28a133.44,133.44,0,0,0-49.79,186.78c-2.47,1.47-3.5,2.78-2.94,4s9,14.83,9.76,16,3.64,1.31,5.4-.31c-2.15-3.48-5.12-8.73-6.34-10.9a134.1,134.1,0,0,0,21.12,22.76l-0.85,1a1.94,1.94,0,0,0,0,3,14.45,14.45,0,0,0,2.84,2.61c1.94,1.42,3.61-.76,3.61-0.76l1-1.16c10,8.1,29.14,23.29,51.42,33.4v13.73c-2.79.2-5.21,2.26-5.51,6.19,2.39-.76,5.39,1.2,5.42,6.51,0,8,.09,18.25.09,27.12,0,7.5,7.07,15.94,18.42,19.67,0.15-.48.32-0.92,0.48-1.37-2.24-.8-10.27-4-12.44-9.46,4.46,4.31,11,6.48,13.35,7.17,3.47-7.75,8.18-10.06,8.62-10.26,0,0,5,2.18,8.65,10.28,2.37-.68,8.89-2.86,13.35-7.17-2.17,5.47-10.2,8.66-12.44,9.46,0.16,0.45.33,0.89,0.48,1.37,11.35-3.73,18.68-12.17,18.59-19.67-0.11-9,0-19.24.11-27.13,0.07-5.31,2.85-7.25,5.23-6.49-0.3-3.84-2.62-5.9-5.34-6.17v-5.15c11.23-2.87,22.37-8.35,33.23-22a25.85,25.85,0,0,0,9.26-13.18A133.31,133.31,0,0,0,650.83,449.46Zm-2.22-19.8c-3.21.06-6,0-7.68,0.64,1.64,2,3.48,4.07,5.07,5.75l-1.48,3.45c-10-3.85-27.07-9.48-52.94-10.58,4.79-2.53,9-4.72,14-7.53a81.79,81.79,0,0,0-11.05-7c30.51,1.88,45.55,8,55.69,11.43ZM587,425.94c-3.82-1.9-6.08-2.89-10.36-4.83,3.56-2.06,7.69-4.22,10.37-5.85,2.68,1.63,6.81,3.79,10.36,5.84C593.09,423,590.83,424,587,425.94Zm13.42-60.44v14.89a36.07,36.07,0,0,0-10.8-3.05,5.32,5.32,0,0,0,.43-9.23C594.6,368,600.43,365.5,600.43,365.5Zm-21.11-10.27h15.39s-5.17,6.89-5.43,12.45a5.24,5.24,0,0,0-4.52.2C584.61,362.28,579.32,355.23,579.32,355.23Zm-5.74,25.16V365.51s6.15,2.59,10.72,2.6a5.32,5.32,0,0,0,.38,9.2A36.07,36.07,0,0,0,573.58,380.39ZM517,405.16c21.4,4.13,27.76-8.82,29.16-13,19.13,18,41.32-1.48,39-14.58a5.15,5.15,0,0,0,3.75.12c-2.15,13.09,20,32.38,39,14.45,1.41,4.22,7.77,17.17,29.16,13-11.26,8.82-26.63,3.71-30.15-6.29-7.11,7-30.82,8.22-39.72-8.29,0-.25,0-0.46,0-0.62l-0.16.3-0.16-.3c0,0.17,0,.38,0,0.63-8.91,16.5-32.61,15.33-39.73,8.29C543.59,408.86,528.22,414,517,405.16Zm4.5,15.88c-2.35.89-5.53-1.87-.63-3.87,26.32-10.28,51.29-11.92,66.39-12,15.15,0.12,39.89,1.82,66,12,4.89,2,1.71,4.76-.63,3.87a183.48,183.48,0,0,0-66.09-12h0A183.61,183.61,0,0,0,521.46,421Zm2.37,4.74c10.15-3.45,25.19-9.56,55.69-11.43a81.79,81.79,0,0,0-11.05,7c4.93,2.82,9.18,5,14,7.53-25.87,1.1-42.94,6.73-52.94,10.58L528,436.05c1.59-1.68,3.42-3.71,5.07-5.75-1.67-.59-4.47-0.59-7.68-0.64ZM474.47,641.45c-1.13.66-2.82-.75-1-2s14.45-8.63,20.36-10.75C488.45,633.52,475.6,640.8,474.47,641.45Zm62.12-19.68c-3.45-4.87-6.91-11.55-9.57-15.2-1.8-2.47-6.74,1.17-8.25-1.5a78.55,78.55,0,1,1,147-38.47,77.25,77.25,0,0,1-43.29,70c-1.51.74,1.42-4.08-.77-3.38-7.45,2.38-17.9,7.32-34,7.32-5.68,0-13.69-.29-18.93-1.34-1.75-.35-2.53,3.21-4.22,2.74a66.26,66.26,0,0,1-26.75-14.15C536.35,626.55,538.14,624,536.59,621.77Zm-39.91,1.55,0.18,0.14c2.32,4.22,6.09,10.15,8.38,10.86,3,0.94,6.19,0,5.07-4.5a3.13,3.13,0,0,0-.21-0.54,4,4,0,0,1,.11,6.45c-4.08,3.1-9.1-.09-9.76-3.85-0.66,6.94,8.2,11.08,12.86,5.35,4.86-6-.67-12.82-6.87-12l-1-.82,10.77-6.63a87.88,87.88,0,0,0,14.12,15.29l-23,26.84a123.3,123.3,0,0,1-21.28-23.53l12-7.42S497,627.4,496.69,623.32Zm17.91-12A85.2,85.2,0,1,1,672.3,566.57a85.83,85.83,0,0,1-48.84,77.13c-0.17.08-2,1-4,1.8,0.3-1.2.62-2.39,1-3.55a18.16,18.16,0,0,1,.71-1.81,82.52,82.52,0,0,0,14.65-9A80.89,80.89,0,1,0,518.37,609Zm3.55,5.29,3.76-2.32A81,81,0,0,0,534.64,628l-2.83,3.31A85.66,85.66,0,0,1,518.14,616.58Zm93.34,73.61c-1.56-.83-3.13-1.75-4.69-2.72,0-3.59.62-41.14,7.7-49.32,1.45-.52,2.82-1,4.09-1.57C610.77,652,611.4,683.77,611.48,690.18Zm-6.67-4c-11.7-7.65-23.35-18.66-34.21-29.38,0.28-4.12,1.56-11.2,5.51-14.55a82.52,82.52,0,0,0,35.49-3.15C604.76,649.47,604.78,681.94,604.81,686.2Zm-36.57-31.72-3.39-3.37c0.1-1,1-8.8,5.21-9.75,1.1,0.2,2.18.38,3.25,0.53C569.86,644.4,568.59,651.83,568.24,654.48Zm-7.45-10.86a12.82,12.82,0,0,0-.77,2.71c-1.61-1.58-3.19-3.13-4.74-4.62A57.34,57.34,0,0,0,560.79,643.62Zm-20-10.2c29.25,24.7,53,57.82,80.16,64-33.4-3.33-50.63-37.13-83.07-60.73Zm78.05,14.77c1.11-.44,2.53-1,4.24-1.82a87.44,87.44,0,1,0-110.37-33.91l-13,8a31.22,31.22,0,0,0-2.82-1.5c-1.73-.78-1.89.68-1.31,1.88,0.23,0.47.51,1,.83,1.64l-13.82,8.44a122.32,122.32,0,0,1-18.13-64.32c0-67.71,55.07-122.79,122.75-122.79s122.75,55.08,122.75,122.79A122.38,122.38,0,0,1,626.4,682.91c-3.1.92-4,1.48-10.85,3.41C615.48,675.87,615.94,661.25,618.8,648.19ZM481,639.5l3.16-2A125.56,125.56,0,0,0,505.9,661.6l-2.41,2.81A129.33,129.33,0,0,1,481,639.5Zm24.48,32c-1.69,2-4.22,0-2.39-2s19.43-21.4,26.75-28C529.42,644.64,507.17,669.56,505.48,671.53ZM567,726.28a10.22,10.22,0,0,0-4.08-5.41V707.38c1.35,0.62,2.71,1.21,4.08,1.78v17.12ZM601,766a7.48,7.48,0,0,1-11.63-4.63c-1.19-6.94,7.78-8.89,7.95-2.57,6.81-4.7-.49-14.76-5.84-8.27,1.71-7.3-4-11.61-4.49-12v-0.05l0,0h0v0c-0.49.35-6.2,4.67-4.49,12-5.35-6.49-12.65,3.57-5.84,8.27,0.16-6.32,9.14-4.38,7.95,2.57A7.48,7.48,0,0,1,573,765.94c-2.63-1.76-4.47-6.48-4.42-11.49,0.07-7.34,3.62-15.12,10.11-13.65,2.13-7.37-4.52-10.79-9.54-6.85V710c11.6,4.5,23.71,6.82,35.61,5.86v18c-5-3.72-11.47-.29-9.36,7,6.48-1.48,10,6.31,10.11,13.65C605.52,759.48,603.68,764.2,601,766Zm10.23-45.19a10.35,10.35,0,0,0-4.44,6.11V715.66q2.23-.25,4.45-0.67v5.78ZM509.82,669.43l2.19-2.56c6.67,5.14,20.69,17,37.81,27.23,22.6,13.51,50.71,24,75.59,10.79-25.33,11.32-52.4.48-74.28-12.95-16.62-10.2-30.32-21.79-37.53-26.93l22.73-26.56c31.71,23.35,52.6,64.76,94.65,60a38.67,38.67,0,0,0,5-.48,46.64,46.64,0,0,0,5.28-1.48C595.07,739.06,532.59,687.33,509.82,669.43Zm115.34,25A128.7,128.7,0,0,0,653,682.49C645.88,694.24,633.32,695.2,625.16,694.38Zm16.08-10.91a125.93,125.93,0,0,1-25.55,8.78l0,0c0-1.17-.05-2.46-0.07-3.82a125.06,125.06,0,0,0,96.55-121.84c0-68.95-56.08-125-125-125s-125,56.1-125,125a124.56,124.56,0,0,0,18.46,65.49L477.42,634a128.24,128.24,0,0,1-19-67.45c0-71,57.76-128.8,128.75-128.8s128.75,57.78,128.75,128.8A128.61,128.61,0,0,1,641.24,683.47Z" transform="translate(-303.47 -287.34)"/><path class="cls-3" d="M563.4,572.66c-5.74,2.76-5.84,4.13-5.84,4.13s1.56,1,8.27-.16C572.38,575.51,571.44,568.8,563.4,572.66Z" transform="translate(-303.47 -287.34)"/><path class="cls-3" d="M593.7,615.75c-6.25-1.94-7.24-1.62-11.63.59-4.86,2.44-16.83-.41-8.44-11.37-12.82,4.95-5.35,19.08,6.31,15.73,7.69-1.71,8.21-2.9,15.82-.68,10.77,3.15,19.63-11,4.62-15.44C607.46,609.92,604.42,619.2,593.7,615.75Z" transform="translate(-303.47 -287.34)"/><path class="cls-3" d="M612.25,524c2.17,4.4,2.76,5.26,8.92,7.49,10.63,3.72,7.46,12.95-1.41,12.93,14.68,5.48,16.12-11.12,5.63-15.1-7.41-2.81-7.1-4.07-12.2-10.08-7.28-9.71-21.77-2.94-14.52,8.74C598.59,514.16,609.85,519.12,612.25,524Z" transform="translate(-303.47 -287.34)"/><path class="cls-3" d="M542.75,588.52c-0.16-6.54-.79-7.38-4.28-10.83-3.86-3.82-5-16.07,8.07-11.64-8.79-10.57-19.79,1-12.89,11,4.09,6.74,5.38,6.85,5.7,14.77,0.46,11.21,16.66,15.1,16.11-.56C552.68,599.69,542.91,599.78,542.75,588.52Z" transform="translate(-303.47 -287.34)"/><path class="cls-3" d="M575.23,528.34c7.25-11.68-7.24-18.45-14.52-8.74-5.1,6-4.79,7.27-12.2,10.08-10.49,4-9.05,20.58,5.63,15.1-8.87,0-12-9.21-1.41-12.93,6.15-2.23,6.75-3.08,8.92-7.49C564,519.49,575.3,514.54,575.23,528.34Z" transform="translate(-303.47 -287.34)"/><path class="cls-3" d="M587.27,598.22s1.42-1.2,2.31-7.94c0.87-6.58-5.81-7.68-4.52,1.14C586,597.72,587.27,598.22,587.27,598.22Z" transform="translate(-303.47 -287.34)"/><path class="cls-3" d="M574.37,546.11c-4.65-4.35-6-3.94-6-3.94s-0.36,1.82,3.14,7.65S580.88,552.2,574.37,546.11Z" transform="translate(-303.47 -287.34)"/><path class="cls-3" d="M627.49,565.78c13.07-4.43,11.93,7.81,8.07,11.64-3.49,3.45-4.11,4.29-4.28,10.83-0.16,11.26-9.93,11.17-12.71,2.75-0.56,15.66,15.65,11.77,16.1.56,0.33-7.92,1.62-8,5.71-14.77C647.29,566.81,636.28,555.21,627.49,565.78Z" transform="translate(-303.47 -287.34)"/><path class="cls-3" d="M605.6,542s-1.85.13-6.57,5,0.13,9.63,4.32,1.76C606.34,543.12,605.6,542,605.6,542Z" transform="translate(-303.47 -287.34)"/><path class="cls-3" d="M610,572c-6-2.78-9.05,3.28-.25,4.66,6.3,1,7.15-.1,7.15-0.1S616.21,574.83,610,572Z" transform="translate(-303.47 -287.34)"/><ellipse class="cls-3" cx="283.68" cy="279.58" rx="15.98" ry="16"/><path class="cls-4" d="M637.17,556.65c-4.12-1.36-8.67-.15-12.78,2.93-9.12,5.21-10.47-1.48-10.47-1.48s-2.67-6.47,8.15-7.12c4.79,0,8.9-1.61,11.35-4.9,5.42-7.26.79-19.9-10.35-28.23s-24.59-9.21-30-2c-2.22,3-2.73,6.83-1.83,10.93l0-.07,0,0.09c0.11,0.52.25,1,.41,1.57,0.75,3.32,1.65,10.46-4.47,10.49s-5.52-6.73-4.71-10.82c0.17-.65.51-2.56,0.47-2.44a12.59,12.59,0,0,0-2.11-9.39c-5.43-7.26-18.86-6.38-30,2s-15.78,21-10.35,28.23c2.74,3.67,7.53,5.25,13,4.85,6.84,0.68,7.64,4.9,7,6.93-1.22,4-5.37,4.73-10.91,1.6-4.1-3.06-8.65-4.27-12.75-2.9-8.6,2.86-12,15.88-7.64,29.09s14.91,21.6,23.51,18.75c3.84-1.27,6.64-4.58,8.18-9,3.2-7.5,6.7-8.1,9.57-6.39,3.84,2.29,2.64,6.95-2.4,11.17-3.84,2.86-6.17,6.59-6.2,10.69,0,9.06,11.2,16.47,25.11,16.55s25.24-7.21,25.29-16.27c0-4.22-2.41-8.09-6.42-11-6.84-5.86-3.83-9.59-2.13-10.75,1.27-.86,5.77-3.09,9.21,5.19,1.5,4.71,4.35,8.25,8.35,9.57,8.6,2.85,19.13-5.54,23.51-18.75S645.77,559.5,637.17,556.65Zm-71.34,20c-6.71,1.16-8.27.16-8.27,0.16s0.09-1.37,5.84-4.13C571.44,568.8,572.38,575.51,565.84,576.64Zm2.57-34.47s1.31-.41,6,3.94c6.51,6.09.6,9.4-2.82,3.71S568.41,542.17,568.41,542.17Zm21.17,48.11c-0.89,6.75-2.31,7.94-2.31,7.94s-1.28-.5-2.21-6.8C583.77,582.6,590.45,583.7,589.58,590.28Zm-2.43-7.36a16,16,0,1,1,16-16A16,16,0,0,1,587.15,582.92Zm16.19-34.17c-4.19,7.87-8.92,3-4.32-1.76s6.57-5,6.57-5S606.34,543.12,603.34,548.75Zm6.44,27.89C601,575.27,604,569.2,610,572s6.91,4.56,6.91,4.56S616.08,577.62,609.78,576.64Z" transform="translate(-303.47 -287.34)"/><path class="cls-5" d="M587.16,529.59c-0.84-4.79-.83-16.53-9.84-21.18,2-1,3.52-1.45,5.58-.7,0.35-3.24,1.55-7.79,4.27-10.42,2.53,1.31,4.14,7.39,4.32,10.37,1.8-.77,3.71-0.33,5.58.7C588,513.1,587.82,524.85,587.16,529.59Z" transform="translate(-303.47 -287.34)"/><path class="cls-5" d="M551.25,555.68c-4.81-.68-16.05-4.13-23.26,3-0.33-2.18-.29-3.8,1.06-5.53-3-1.34-6.93-3.88-8.58-7.28,2-2,8.31-1.65,11.2-.89-0.18-1.95.84-3.63,2.4-5.09C535.76,550,546.94,553.59,551.25,555.68Z" transform="translate(-303.47 -287.34)"/><path class="cls-5" d="M622.55,555.42c4.27-2.31,15.44-6.08,17-16.1,1.56,1.56,2.49,2.88,2.43,5.07,3.18-.69,7.88-1,11.23.76-0.45,2.82-5.7,6.26-8.47,7.37,1.3,1.46,1.48,3.41,1.1,5.52C638.48,551,627.26,554.55,622.55,555.42Z" transform="translate(-303.47 -287.34)"/><path class="cls-5" d="M565.11,596.92c-2.18,4.34-9.17,13.82-4.71,22.92-2.17-.38-3.69-0.93-4.9-2.76-2.21,2.39-5.78,5.48-9.53,6-1.25-2.57,1-8.56,2.61-11.05-1.9-.45-3.17-1.95-4.06-3.89C554.62,609.7,561.76,600.33,565.11,596.92Z" transform="translate(-303.47 -287.34)"/><path class="cls-5" d="M609,596.66c3.47,3.4,10.37,12.95,20.4,11.48-1,1.95-2,3.23-4.13,3.83,1.6,2.84,3.28,7.23,2.6,11-2.83.41-7.67-3.6-9.55-5.91-1,1.67-2.82,2.42-4.95,2.68C617.93,610.56,611.19,600.9,609,596.66Z" transform="translate(-303.47 -287.34)"/><path class="cls-2" d="M587.22,551a15.91,15.91,0,1,0,15.91,15.91A15.91,15.91,0,0,0,587.22,551Zm-14.09,16.09a3,3,0,1,1,3,3A3,3,0,0,1,573.13,567.09Zm6.23,10.82a3,3,0,1,1,3-3A3,3,0,0,1,579.35,577.91Zm0.11-15.75a3,3,0,1,1,3-3A3,3,0,0,1,579.46,562.16Zm7.67,19.06a3,3,0,1,1,3-3A3,3,0,0,1,587.13,581.22Zm0-11.1a3,3,0,1,1,3-3A3,3,0,0,1,587.18,570.12Zm0-11.11a3,3,0,1,1,3-3A3,3,0,0,1,587.21,559Zm7.8-2.84a3,3,0,1,1-3,3A3,3,0,0,1,595,556.17Zm0.14,21.62a3,3,0,1,1,3-3A3,3,0,0,1,595.15,577.79Zm3-7.75a3,3,0,1,1,3-3A3,3,0,0,1,598.18,570Z" transform="translate(-303.47 -287.34)"/><path class="cls-2" d="M634.67,591.2c-0.46,11.21-16.66,15.1-16.1-.56,2.78,8.42,12.55,8.51,12.71-2.75,0.16-6.54.79-7.38,4.28-10.83,3.86-3.82,5-16.07-8.07-11.64,8.79-10.57,19.79,1,12.89,11-4.09,6.74-5.38,6.85-5.71,14.77" transform="translate(-303.47 -287.34)"/><path class="cls-2" d="M625.47,529.3c10.53,3.87,9.26,20.49-5.47,15.16,8.87-.07,11.95-9.34,1.28-12.94-6.18-2.16-6.78-3-9-7.39-2.45-4.85-13.77-9.69-13.55,4.11-7.37-11.6,7-18.52,14.43-8.89,5.16,6,4.87,7.22,12.31,10" transform="translate(-303.47 -287.34)"/><path class="cls-2" d="M539.33,591.81c0.46,11.21,16.67,15.1,16.11-.56-2.78,8.42-12.55,8.51-12.71-2.75-0.17-6.54-.79-7.38-4.28-10.83-3.86-3.82-5-16.07,8.07-11.64-8.79-10.57-19.8,1-12.89,11,4.09,6.74,5.38,6.85,5.71,14.77" transform="translate(-303.47 -287.34)"/><path class="cls-2" d="M595.76,620.12c10.77,3.14,19.62-11,4.6-15.45,7.09,5.32,4.07,14.61-6.66,11.18-6.25-1.93-7.24-1.6-11.63.61-4.85,2.44-16.83-.38-8.46-11.36-12.82,5-5.33,19.1,6.33,15.73,7.69-1.73,8.2-2.92,15.81-.7" transform="translate(-303.47 -287.34)"/><path class="cls-2" d="M548.51,529.32c-10.49,4-9,20.59,5.63,15.1-8.87,0-12-9.21-1.42-12.93,6.15-2.23,6.75-3.08,8.92-7.49,2.4-4.88,13.66-9.83,13.59,4,7.24-11.68-7.25-18.45-14.53-8.74-5.1,6-4.79,7.27-12.2,10.09" transform="translate(-303.47 -287.34)"/></svg>