<?xml version="1.0" encoding="UTF-8" standalone="no"?><!DOCTYPE svg PUBLIC "-//W3C//DTD SVG 1.1//EN" "http://www.w3.org/Graphics/SVG/1.1/DTD/svg11.dtd"><svg width="100%" height="100%" viewBox="0 0 567 567" version="1.1" xmlns="http://www.w3.org/2000/svg" xmlns:xlink="http://www.w3.org/1999/xlink" xml:space="preserve" style="fill-rule:evenodd;clip-rule:evenodd;stroke-linejoin:round;stroke-miterlimit:1.41421;"><path d="M0,0l566.88,0l0,443.62c0,67.618 -55.642,123.26 -123.26,123.26l-443.62,0l0,-566.88Z" style="fill:#2b325d;fill-rule:nonzero;"/><g><path d="M536.76,422.543l-506.64,0l0,-366.845l506.64,0l0,366.845ZM48.827,74.405l0,329.431l469.226,0l0,-329.431l-469.226,0Z" style="fill:#fff;"/><g><circle cx="121.826" cy="122.435" r="18.507" style="fill:#fff;"/><path d="M427.698,121.373l-31.445,0l-37.438,89.814l-61.665,0l0,-18.693l55.695,0l0,-25.486l-56.119,0l0,-16.716l61.319,0l0,-28.919l-92.734,0l0,32.107c0,0 -3.749,-11.319 -17.54,-20.687c-13.433,-9.152 -22.286,-11.408 -39.403,-11.408l-47.336,0l0,101.342l-15.72,0c-3.602,0 -6.567,-2.965 -6.567,-6.567l0,-64.477l-50.149,0l0,15.737l11.541,0c3.93,0 7.164,3.234 7.164,7.164l0,38.609c0,5.24 -4.312,9.552 -9.552,9.552l-9.153,0l0,15.922l117.808,0c21.493,0 29.057,-3.982 38.609,-9.952c9.552,-5.97 19.898,-20.298 19.898,-20.298l0,30.25l117.014,0l7.934,-19.904l44.973,0l7.564,19.886l35.82,0l-50.518,-117.276ZM207.998,209.993l-14.328,0l0,-58.907l19.104,0c7.535,0 25.445,9.17 25.445,29.468c0,20.299 -13.504,29.439 -30.221,29.439ZM399.411,192.494l13.134,-32.638l12.365,32.638l-25.499,0Z" style="fill:#fff;fill-rule:nonzero;"/></g><g><path d="M216.217,264.268l0,237.56l66.964,-28.402l67.415,28.402l0,-237.56l-134.379,0Z" style="fill:#fff;fill-rule:nonzero;"/><circle cx="270.145" cy="324.404" r="0.675" style="fill:#2b325d;"/><circle cx="244.795" cy="346.288" r="0.675" style="fill:#2b325d;"/><circle cx="299.708" cy="325.408" r="0.675" style="fill:#2b325d;"/><circle cx="324.468" cy="351.682" r="0.675" style="fill:#2b325d;"/><circle cx="326.609" cy="363.119" r="0.675" style="fill:#2b325d;"/><path d="M269.116,306.136c1.984,-0.38 3.754,0.142 3.949,1.163c0.196,1.022 -1.256,2.16 -3.241,2.54c-1.984,0.379 -3.754,-0.142 -3.949,-1.164c-0.196,-1.022 1.257,-2.16 3.241,-2.539Z" style="fill:#2b325d;"/><path d="M283.498,448.696l0,-0.042c-2.986,3.107 -3.132,8.884 0,9.729c3.125,-0.803 2.985,-6.579 0,-9.687Z" style="fill:#2b325d;fill-rule:nonzero;"/><path d="M261.583,310.097c-0.668,0.827 -1.416,1.654 -2.061,2.335l0.608,1.398c4.062,-1.562 11,-3.849 21.507,-4.298c-1.946,-1.028 -3.648,-1.916 -5.673,-3.041c1.417,-1.071 2.918,-2.026 4.487,-2.858c-12.392,0.76 -18.503,3.241 -22.625,4.646l0.644,1.575c1.044,-0.056 2.091,0.025 3.113,0.243Z" style="fill:#fff;fill-rule:nonzero;"/><path d="M283.267,301.438c9.171,-0.044 18.272,1.605 26.845,4.865c0.955,0.365 2.244,-0.76 0.256,-1.575c-10.599,-4.135 -20.674,-4.828 -26.797,-4.865c-6.123,-0.036 -16.278,0.706 -26.967,4.865c-1.989,0.815 -0.694,1.934 0.255,1.575c8.436,-3.206 17.383,-4.854 26.408,-4.865l0,0Z" style="fill:#fff;fill-rule:nonzero;"/><path d="M267.293,297.328c2.888,2.858 12.52,3.338 16.138,-3.369c0,-0.103 0,-0.188 0,-0.255l0.067,0.122l0.067,-0.122c0,0.067 0,0.152 0,0.255c3.617,6.689 13.249,6.227 16.137,3.369c1.429,4.062 7.674,6.135 12.246,2.554c-8.689,1.678 -11.273,-3.582 -11.844,-5.296c-7.747,7.296 -16.728,-0.554 -15.852,-5.868c-0.497,0.177 -1.042,0.159 -1.527,-0.049c0.943,5.321 -8.074,13.225 -15.845,5.923c-0.572,1.714 -3.156,6.974 -11.845,5.296c4.572,3.575 10.811,1.496 12.258,-2.56Z" style="fill:#fff;fill-rule:nonzero;"/><path d="M237.353,395.066c-0.724,0.499 -0.037,1.07 0.419,0.803c0.456,-0.268 5.679,-3.223 7.85,-5.162c-2.402,0.851 -7.515,3.861 -8.269,4.359Z" style="fill:#fff;fill-rule:nonzero;"/><path d="M294.655,394.519c-2.876,3.32 -3.113,18.576 -3.125,20.035c0.608,0.396 1.271,0.766 1.903,1.107c0,-2.602 -0.286,-15.517 2.882,-21.774c-0.523,0.206 -1.052,0.425 -1.66,0.632Z" style="fill:#fff;fill-rule:nonzero;"/><path d="M262.21,390.415c-1.934,-1.659 -3.668,-3.536 -5.169,-5.594l-1.532,0.942c1.609,2.21 3.472,4.222 5.552,5.995l1.149,-1.343Z" style="fill:#fff;fill-rule:nonzero;"/><path d="M316.399,365.436c-0.036,10.314 -4.895,20.04 -13.121,26.262c-1.85,1.419 -3.843,2.642 -5.947,3.648c-0.108,0.24 -0.204,0.486 -0.286,0.736c-0.14,0.474 -0.267,0.954 -0.389,1.441c0.809,-0.341 1.569,-0.699 1.636,-0.73c12.112,-5.7 19.877,-17.935 19.877,-31.322c0,-18.99 -15.627,-34.616 -34.617,-34.616c-18.988,0 -34.613,15.623 -34.616,34.611c-0.012,6.413 1.766,12.704 5.132,18.163l1.532,-0.937c-3.184,-5.174 -4.87,-11.132 -4.87,-17.208c0,-18.012 14.822,-32.835 32.835,-32.835c17.994,0 32.808,14.793 32.834,32.787l0,0Z" style="fill:#fff;fill-rule:nonzero;"/><path d="M279.272,306.357c1.745,0.785 2.657,1.217 4.207,1.965c1.557,-0.773 2.469,-1.18 4.214,-1.965c-1.447,-0.833 -3.119,-1.708 -4.207,-2.371c-1.089,0.663 -2.767,1.538 -4.214,2.371Z" style="fill:#fff;fill-rule:nonzero;"/><path d="M291.007,306.473c-2,1.143 -3.733,2.031 -5.673,3.04c10.507,0.45 17.445,2.737 21.501,4.299l0.608,-1.398c-0.645,-0.681 -1.393,-1.508 -2.062,-2.335c1.024,-0.224 2.073,-0.312 3.12,-0.262l0.644,-1.575c-4.116,-1.416 -10.233,-3.849 -22.619,-4.627c1.567,0.832 3.066,1.787 4.481,2.858l0,0ZM293.932,307.33c0.194,-1.021 1.964,-1.544 3.946,-1.167c1.982,0.377 3.436,1.514 3.241,2.542c-0.195,1.027 -1.964,1.544 -3.946,1.167c-1.982,-0.377 -3.43,-1.52 -3.235,-2.542l-0.006,0Z" style="fill:#fff;fill-rule:nonzero;"/><path d="M281.388,286.657c0.001,-0.739 0.38,-1.428 1.003,-1.825c-1.498,-0.12 -2.968,-0.477 -4.354,-1.058l0,6.026c1.429,-0.657 2.955,-1.08 4.518,-1.252c-0.707,-0.367 -1.156,-1.095 -1.167,-1.891l0,0Z" style="fill:#fff;fill-rule:nonzero;"/><path d="M285.735,286.657c-0.002,0.809 -0.458,1.553 -1.179,1.921c1.517,0.174 2.999,0.584 4.39,1.216l0,-6.044c-1.342,0.56 -2.76,0.917 -4.208,1.058c0.628,0.403 1.006,1.102 0.997,1.849Z" style="fill:#fff;fill-rule:nonzero;"/><path d="M283.565,284.486c0.29,-0.001 0.577,0.057 0.845,0.17c0.103,-2.262 2.207,-5.059 2.207,-5.059l-6.257,0c0,0 2.153,2.864 2.207,5.132c0.308,-0.16 0.65,-0.244 0.998,-0.243l0,0Z" style="fill:#fff;fill-rule:nonzero;"/><path d="M273.702,428.12c0.787,0.522 1.372,1.296 1.66,2.195l0,-6.95c-0.553,-0.231 -1.107,-0.468 -1.66,-0.724l0,5.479Z" style="fill:#fff;fill-rule:nonzero;"/><path d="M279.059,396.209c-1.599,1.362 -2.122,4.257 -2.238,5.911c4.409,4.353 9.121,8.829 13.894,11.936c0,-1.733 0,-14.922 2.761,-19.124c-4.655,1.471 -9.576,1.907 -14.417,1.277l0,0Z" style="fill:#fff;fill-rule:nonzero;"/><path d="M286.878,436.225c-0.857,-2.955 1.776,-4.347 3.801,-2.839l0,-7.297c-4.94,0.304 -9.885,-0.511 -14.466,-2.383l0,9.728c2.037,-1.599 4.743,-0.206 3.88,2.785c-2.633,-0.608 -4.08,2.56 -4.105,5.546c0,2.037 0.73,3.952 1.824,4.67c0.504,0.342 1.099,0.525 1.708,0.525c1.431,0 2.678,-1.011 2.974,-2.41c0.481,-2.822 -3.161,-3.612 -3.228,-1.04c-2.767,-1.909 0.2,-5.996 2.371,-3.357c-0.401,-1.835 0.315,-3.745 1.824,-4.864c1.509,1.119 2.225,3.029 1.824,4.864c2.171,-2.633 5.138,1.448 2.372,3.357c-0.067,-2.572 -3.709,-1.776 -3.229,1.04c0.289,1.409 1.54,2.43 2.978,2.43c0.625,0 1.235,-0.193 1.747,-0.552c1.07,-0.711 1.824,-2.632 1.824,-4.669c-0.019,-2.986 -1.466,-6.13 -4.099,-5.534Z" style="fill:#fff;fill-rule:nonzero;"/><path d="M310.288,412.536c-3.565,2.048 -7.359,3.668 -11.303,4.828c3.314,0.328 8.44,-0.055 11.303,-4.828Z" style="fill:#fff;fill-rule:nonzero;"/><path d="M291.536,430.57c0.273,-1.027 0.925,-1.914 1.824,-2.48l0,-2.347c-0.6,0.113 -1.208,0.204 -1.824,0.273l0,4.561l0,-0.007Z" style="fill:#fff;fill-rule:nonzero;"/><path d="M283.552,313.119c-28.7,0.034 -52.297,23.659 -52.297,52.359c0,9.655 2.671,19.124 7.715,27.357l1.289,-0.785c-4.895,-7.983 -7.487,-17.167 -7.487,-26.531c0,-27.843 22.912,-50.754 50.754,-50.754c27.843,0 50.755,22.911 50.755,50.754c0,23.493 -16.313,44.064 -39.188,49.418c0,0.554 0,1.077 0,1.551c3.578,-0.812 7.058,-2.007 10.38,-3.563c18.458,-8.556 30.322,-27.132 30.322,-47.477c0,-28.674 -23.568,-52.282 -52.243,-52.329Z" style="fill:#fff;fill-rule:nonzero;"/><path d="M301.344,419.024c-17.08,1.927 -25.538,-14.898 -38.447,-24.383l-9.236,10.786c2.93,2.092 8.512,6.799 15.243,10.945c8.884,5.473 19.884,9.857 30.172,5.26c-10.106,5.369 -21.525,1.101 -30.707,-4.384c-6.956,-4.159 -12.647,-8.969 -15.359,-11.06l-0.894,1.039c9.249,7.297 34.629,28.287 53.387,11c-0.701,0.244 -1.416,0.447 -2.14,0.608c-0.668,0.106 -1.343,0.169 -2.019,0.189l0,0Z" style="fill:#fff;fill-rule:nonzero;"/><path d="M297.252,418.616c-11.036,-2.529 -20.674,-15.979 -32.561,-26.018l-1.18,1.349c13.183,9.559 20.199,23.319 33.741,24.669Z" style="fill:#fff;fill-rule:nonzero;"/><path d="M276.602,395.826c-1.708,0.383 -2.073,3.564 -2.116,3.959l1.375,1.368c0.139,-1.076 0.656,-4.092 2.061,-5.114c-0.438,-0.061 -0.9,-0.134 -1.32,-0.213Z" style="fill:#fff;fill-rule:nonzero;"/><path d="M333.394,365.448c-0.037,-27.327 -22.533,-49.792 -49.86,-49.792c-27.352,0 -49.86,22.508 -49.86,49.86c0,9.205 2.549,18.233 7.363,26.078l5.613,-3.429c-0.134,-0.249 -0.25,-0.474 -0.341,-0.669c-0.237,-0.486 -0.17,-1.082 0.535,-0.76c0.393,0.183 0.777,0.386 1.149,0.608l5.297,-3.235c-3.442,-5.595 -5.264,-12.036 -5.264,-18.604c0,-19.481 16.03,-35.51 35.51,-35.51c19.481,0 35.51,16.029 35.51,35.51c0,13.943 -8.212,26.65 -20.925,32.377c-0.699,0.316 -1.277,0.559 -1.727,0.735c-1.161,5.303 -1.343,11.243 -1.313,15.493c2.791,-0.784 3.144,-1.009 4.408,-1.386c20.253,-6.793 33.967,-25.914 33.905,-47.276Z" style="fill:#fff;fill-rule:nonzero;"/><path d="M272.839,396.744c-0.761,-0.221 -1.51,-0.48 -2.244,-0.778c0.608,0.608 1.271,1.216 1.927,1.879c0.065,-0.377 0.171,-0.746 0.317,-1.101l0,0Z" style="fill:#fff;fill-rule:nonzero;"/><path d="M250.541,404.047c-3.353,-2.862 -6.32,-6.146 -8.829,-9.771l-1.283,0.796c2.589,3.755 5.655,7.156 9.121,10.118l0.991,-1.143Z" style="fill:#fff;fill-rule:nonzero;"/><path d="M249.398,407.282c-0.742,0.803 0.286,1.599 0.973,0.803c0.687,-0.797 9.729,-10.945 9.893,-12.161c-2.973,2.663 -10.124,10.555 -10.866,11.358Z" style="fill:#fff;fill-rule:nonzero;"/><path d="M293.948,307.147c0.195,-1.022 1.965,-1.543 3.949,-1.164c1.984,0.38 3.437,1.518 3.241,2.539c-0.195,1.022 -1.965,1.544 -3.949,1.164c-1.985,-0.38 -3.437,-1.517 -3.241,-2.539Z" style="fill:#2b325d;"/><path d="M256.543,382.224c0.973,-0.517 1.824,-0.504 2.286,0.316c0.286,0.487 3.49,5.473 3.6,5.947c0.136,0.367 0.045,0.781 -0.231,1.058c-0.858,-1.429 -3.174,-5.12 -3.545,-5.716c-0.481,-0.766 -1.022,-1.678 -2.11,-1.605Z" style="fill:#fff;fill-rule:nonzero;"/><path d="M309.407,317.673c0.985,-0.516 1.654,-2.067 0.067,-2.918c-0.158,-0.085 -0.286,-0.116 -0.554,-0.231l0.292,-0.736c0.572,-0.255 2.396,-1.307 1.709,-4.062l0.498,-1.186c2.317,-0.249 4.105,-3.386 0.979,-5.053c2.104,-3.295 4.026,-5.989 5.728,-8.19c0.503,0.197 1.076,0.099 1.484,-0.255c0.596,-0.421 0.744,-1.255 0.328,-1.855l-0.067,-0.067c3.91,-4.712 6.251,-6.348 6.251,-6.348c-2.506,-1.533 -5.197,-2.743 -8.008,-3.6c0.444,2.824 0.088,5.717 -1.028,8.349c-1.115,2.632 -1.714,-3.508 -1.635,-6.689c-0.231,0.608 -3.648,6.178 -5.716,9.529c1.852,-0.703 3.843,-0.963 5.813,-0.76c-6.117,9.12 -14.07,2.401 -13.213,-0.608c1.599,0.267 2.165,-1.916 0.219,-2.256c0.146,-2.603 2.572,-3.162 3.849,-2.062c0.539,0.486 0.848,1.178 0.848,1.903c0,1.023 -0.613,1.951 -1.553,2.354c3.374,1.07 5.916,-2.366 4.961,-5.473c-0.778,-2.566 -4.864,-4.864 -8.287,0.754c0.535,-3.812 2.705,-4.724 3.648,-6.555c0.942,-1.83 -2.061,-5.338 -2.59,-6.785c-1.071,1.276 -4.64,3.356 -4.549,5.356c0.092,2.001 2.153,3.375 1.472,7.528c-1.356,-5.606 -5.162,-5.533 -6.829,-4.08c-3.581,3.126 -0.65,7.85 2.153,7.546c-0.921,-0.852 -1.082,-2.264 -0.377,-3.302c1.046,-1.879 4.81,-1.587 4.135,2.208c-2.232,-0.189 -1.867,2.17 -0.517,2.219c-0.973,3.648 -9.486,5.108 -12.569,-1.751c1.648,0.164 4.415,2.061 4.415,2.061l0,-11.699c0,0 -2.901,1.526 -4.196,1.751c1.143,-3.089 4.086,-5.375 4.086,-5.375l-14.356,0c0,0 2.943,2.286 4.086,5.375c-1.295,-0.231 -4.195,-1.751 -4.195,-1.751l0,11.626c0,0 2.76,-1.897 4.414,-2.061c-3.076,6.859 -11.595,5.43 -12.562,1.751c1.356,-0.049 1.715,-2.432 -0.517,-2.219c-0.675,-3.795 3.089,-4.086 4.135,-2.208c0.705,1.038 0.544,2.45 -0.377,3.302c2.803,0.304 5.74,-4.42 2.152,-7.546c-1.666,-1.453 -5.472,-1.526 -6.828,4.08c-0.681,-4.153 1.374,-5.527 1.471,-7.527c0.098,-2.001 -3.478,-4.081 -4.548,-5.357c-0.535,1.447 -3.545,4.955 -2.59,6.785c0.955,1.831 3.125,2.743 3.648,6.555c-3.441,-5.612 -7.509,-3.314 -8.288,-0.754c-0.948,3.113 1.594,6.549 4.968,5.473c-0.94,-0.403 -1.553,-1.331 -1.553,-2.354c0,-0.725 0.309,-1.417 0.848,-1.903c1.277,-1.1 3.709,-0.541 3.849,2.062c-1.946,0.34 -1.38,2.523 0.219,2.256c0.857,3.04 -7.096,9.728 -13.213,0.608c1.97,-0.203 3.961,0.057 5.813,0.76c-2.061,-3.357 -5.473,-8.92 -5.716,-9.529c0.079,3.205 -1.636,6.689 -1.636,6.689c-1.115,-2.632 -1.471,-5.525 -1.027,-8.349c-2.812,0.877 -5.501,2.107 -8.002,3.661c-2.502,1.554 2.341,1.636 6.251,6.348l-0.067,0.067c-0.416,0.6 -0.268,1.434 0.328,1.854c0.408,0.355 0.981,0.453 1.484,0.256c1.702,2.195 3.648,4.895 5.728,8.19c-3.126,1.672 -1.344,4.804 0.979,5.053l0.498,1.186c-0.687,2.754 1.137,3.806 1.709,4.062l0.292,0.735c-0.268,0.116 -0.396,0.146 -0.554,0.232c-1.623,0.869 -0.887,2.474 0.134,2.955c-17.366,9.492 -28.206,27.77 -28.206,47.561c0,9.991 2.763,19.791 7.982,28.311c-1.003,0.609 -1.423,1.131 -1.216,1.624c0.207,0.492 3.649,6.026 3.965,6.482c0.316,0.456 1.477,0.535 2.189,-0.122c-0.87,-1.41 -2.08,-3.545 -2.572,-4.426c2.492,3.402 5.371,6.504 8.579,9.242l-0.346,0.401c-0.181,0.15 -0.286,0.373 -0.286,0.608c0,0.235 0.105,0.458 0.286,0.608c0.335,0.405 0.724,0.763 1.155,1.064c0.79,0.578 1.465,-0.31 1.465,-0.31l0.402,-0.468c4.049,3.29 11.838,9.461 20.886,13.566l0,5.576c-1.131,0.079 -2.116,0.918 -2.237,2.511c0.966,-0.31 2.189,0.486 2.201,2.645c0,3.241 0.036,7.412 0.036,11.018c0,3.04 2.876,6.476 7.485,7.99c0.061,-0.195 0.128,-0.377 0.195,-0.56c-0.912,-0.322 -4.171,-1.617 -5.053,-3.843c1.566,1.366 3.42,2.362 5.424,2.913c1.404,-3.15 3.32,-4.086 3.502,-4.165c0,0 2.043,0.888 3.515,4.177c2.003,-0.551 3.857,-1.547 5.424,-2.912c-0.882,2.225 -4.141,3.52 -5.053,3.842c0.067,0.183 0.133,0.365 0.194,0.56c4.609,-1.514 7.589,-4.944 7.552,-7.99c-0.042,-3.648 0,-7.813 0.043,-11.024c0,-2.152 1.155,-2.949 2.128,-2.639c-0.122,-1.563 -1.064,-2.396 -2.171,-2.505l0,-2.037c4.561,-1.168 9.085,-3.393 13.499,-8.938c1.791,-1.34 3.108,-3.217 3.758,-5.357c15.755,-9.897 25.344,-27.246 25.344,-45.851c0,-19.819 -10.88,-38.114 -28.293,-47.577l0,0ZM308.501,309.629c-1.047,-0.051 -2.096,0.037 -3.12,0.261c0.669,0.827 1.417,1.654 2.062,2.335l-0.608,1.399c-4.062,-1.563 -11,-3.849 -21.501,-4.299c1.946,-1.028 3.648,-1.916 5.673,-3.04c-1.417,-1.072 -2.918,-2.027 -4.487,-2.858c12.392,0.76 18.503,3.241 22.625,4.645l-0.644,1.557ZM283.479,308.121c-1.55,-0.772 -2.468,-1.174 -4.207,-1.964c1.447,-0.833 3.125,-1.715 4.214,-2.378c1.088,0.663 2.766,1.539 4.207,2.372c-1.739,0.796 -2.657,1.198 -4.207,1.97l-0.007,0ZM288.952,283.568l0,6.044c-1.391,-0.632 -2.872,-1.042 -4.39,-1.216c0.725,-0.367 1.183,-1.114 1.183,-1.926c0,-0.741 -0.381,-1.431 -1.007,-1.826c1.446,-0.146 2.862,-0.506 4.202,-1.07l0.012,-0.006ZM280.372,279.396l6.251,0c0,0 -2.098,2.797 -2.207,5.059c-0.589,-0.248 -1.259,-0.219 -1.824,0.079c-0.098,-2.274 -2.232,-5.131 -2.232,-5.131l0.012,-0.007ZM278.043,289.618l0,-6.044c1.387,0.581 2.856,0.938 4.354,1.058c-0.622,0.396 -0.999,1.084 -0.999,1.821c0,0.802 0.447,1.54 1.157,1.912c-1.566,0.174 -3.093,0.599 -4.524,1.259l0.012,-0.006ZM255.041,299.675c8.689,1.678 11.273,-3.581 11.845,-5.296c7.771,7.296 16.782,-0.608 15.846,-5.923c0.484,0.208 1.029,0.226 1.526,0.049c-0.876,5.314 8.105,13.152 15.852,5.868c0.571,1.714 3.155,6.974 11.845,5.296c-4.573,3.581 -10.818,1.508 -12.247,-2.554c-2.888,2.858 -12.519,3.338 -16.137,-3.369c0,-0.097 0,-0.188 0,-0.255l-0.067,0.122l-0.067,-0.122c0,0.067 0,0.152 0,0.255c-3.648,6.689 -13.25,6.227 -16.138,3.369c-1.453,4.068 -7.692,6.148 -12.27,2.566l0.012,-0.006ZM256.865,306.126c-0.955,0.365 -2.244,-0.76 -0.255,-1.574c10.689,-4.172 20.831,-4.865 26.967,-4.865c6.135,0 16.204,0.742 26.797,4.865c1.988,0.814 0.699,1.933 -0.256,1.574c-8.573,-3.259 -17.674,-4.908 -26.845,-4.864c-9.027,0.012 -17.977,1.662 -26.414,4.871l0.006,-0.007ZM257.826,308.054c4.122,-1.405 10.227,-3.879 22.625,-4.646c-1.569,0.832 -3.07,1.787 -4.487,2.858c2,1.143 3.733,2.031 5.673,3.041c-10.507,0.45 -17.445,2.736 -21.507,4.298l-0.608,-1.398c0.645,-0.681 1.393,-1.508 2.061,-2.335c-1.023,-0.224 -2.072,-0.312 -3.119,-0.261l-0.638,-1.557ZM237.76,395.662c-0.456,0.268 -1.143,-0.304 -0.42,-0.802c0.724,-0.499 5.868,-3.509 8.27,-4.366c-2.159,1.952 -7.382,4.901 -7.838,5.168l-0.012,0ZM263.037,387.697c-1.405,-1.976 -2.809,-4.694 -3.886,-6.178c-0.729,-1.003 -2.736,0.474 -3.35,-0.608c-2.683,-4.774 -4.092,-10.158 -4.092,-15.634c0,-17.506 14.405,-31.911 31.91,-31.911c17.506,0 31.911,14.405 31.911,31.911c0,0.002 0,0.005 0,0.007c0.099,12.055 -6.757,23.145 -17.585,28.445c-0.608,0.304 0.578,-1.654 -0.316,-1.375c-3.04,0.967 -7.297,2.974 -13.809,2.974c-2.575,0.037 -5.148,-0.144 -7.692,-0.541c-0.711,-0.14 -1.028,1.301 -1.715,1.112c-4.027,-1.055 -7.755,-3.03 -10.89,-5.77c-0.614,-0.517 0.122,-1.575 -0.486,-2.432ZM246.826,388.305l0.073,0.054c0.942,1.715 2.475,4.123 3.405,4.415c1.216,0.383 2.517,0 2.061,-1.824c-0.021,-0.076 -0.05,-0.149 -0.085,-0.219c0.433,0.302 0.691,0.798 0.691,1.326c0,0.509 -0.24,0.989 -0.648,1.295c-0.431,0.311 -0.95,0.479 -1.482,0.479c-1.205,0 -2.251,-0.86 -2.483,-2.042c-0.267,2.821 3.332,4.499 5.223,2.171c1.977,-2.433 -0.273,-5.205 -2.79,-4.865l-0.414,-0.334l4.378,-2.694c1.66,2.292 3.587,4.378 5.74,6.214l-9.334,10.903c-3.279,-2.801 -6.183,-6.014 -8.64,-9.559l4.864,-3.04c-0.364,-0.706 -0.566,-1.486 -0.589,-2.28l0.03,0ZM254.123,383.44c-3.367,-5.459 -5.151,-11.749 -5.151,-18.163c0,-18.984 15.621,-34.604 34.605,-34.604c18.983,0 34.604,15.62 34.604,34.604c0,0 0,0 0,0.001c-0.07,13.36 -7.814,25.553 -19.877,31.296c-0.067,0.031 -0.833,0.389 -1.636,0.73c0.122,-0.487 0.249,-0.973 0.389,-1.441c0.082,-0.25 0.178,-0.496 0.286,-0.736c2.104,-1.006 4.097,-2.229 5.947,-3.648c8.248,-6.198 13.11,-15.934 13.11,-26.25c0,-18.013 -14.822,-32.835 -32.835,-32.835c-18.012,0 -32.835,14.822 -32.835,32.835c0,6.083 1.691,12.048 4.882,17.226l-1.489,0.985ZM255.564,385.587l1.532,-0.943c1.5,2.059 3.235,3.936 5.168,5.594l-1.149,1.344c-2.098,-1.78 -3.978,-3.803 -5.6,-6.026l0.049,0.031ZM293.439,415.46c-0.608,-0.34 -1.271,-0.711 -1.903,-1.106c0,-1.46 0.249,-16.716 3.126,-20.036c0.608,-0.212 1.149,-0.425 1.659,-0.608c-3.186,6.227 -2.924,19.142 -2.882,21.75ZM290.715,413.843c-4.749,-3.107 -9.485,-7.582 -13.894,-11.936c0.116,-1.672 0.608,-4.548 2.238,-5.91c4.841,0.629 9.762,0.193 14.417,-1.277c-2.779,4.201 -2.773,17.39 -2.761,19.123ZM275.861,400.952l-1.375,-1.368c0.043,-0.395 0.408,-3.575 2.116,-3.958c0.444,0.079 0.888,0.152 1.32,0.212c-1.405,1.022 -1.922,4.02 -2.061,5.114ZM272.82,396.538c-0.145,0.354 -0.251,0.723 -0.316,1.1c-0.651,-0.644 -1.295,-1.271 -1.927,-1.879c0.74,0.301 1.495,0.562 2.262,0.785l-0.019,-0.006ZM264.678,392.397c11.882,10.033 21.526,23.489 32.562,26.018c-13.53,-1.349 -20.546,-15.079 -33.729,-24.638l1.167,-1.38ZM296.382,398.398c0.45,-0.176 1.028,-0.425 1.727,-0.735c12.731,-5.722 20.958,-18.439 20.958,-32.396c0,-19.483 -16.033,-35.516 -35.517,-35.516c-19.483,0 -35.516,16.033 -35.516,35.516c0,6.576 1.826,13.024 5.274,18.623l-5.296,3.235c-0.373,-0.222 -0.756,-0.425 -1.149,-0.608c-0.706,-0.316 -0.767,0.274 -0.536,0.76c0.092,0.189 0.207,0.42 0.341,0.669l-5.631,3.399c-4.822,-7.85 -7.376,-16.885 -7.376,-26.098c0,-27.353 22.508,-49.861 49.861,-49.861c27.352,0 49.86,22.508 49.86,49.861c0,21.329 -13.687,40.403 -33.893,47.234c-1.258,0.377 -1.611,0.608 -4.408,1.386c-0.03,-4.22 0.182,-10.16 1.32,-15.469l-0.019,0ZM240.441,394.872l1.283,-0.797c2.509,3.625 5.477,6.91 8.829,9.772l-0.979,1.143c-3.475,-2.961 -6.549,-6.363 -9.145,-10.118l0.012,0ZM250.383,407.884c-0.687,0.803 -1.715,0 -0.973,-0.803c0.742,-0.802 7.905,-8.689 10.866,-11.376c-0.182,1.252 -9.218,11.376 -9.905,12.179l0.012,0ZM275.368,430.12c-0.288,-0.898 -0.873,-1.673 -1.66,-2.195l0,-5.472c0.547,0.255 1.101,0.492 1.66,0.724l0,6.956l0,-0.013ZM289.183,446.24c-0.512,0.359 -1.121,0.551 -1.746,0.551c-1.439,0 -2.69,-1.021 -2.979,-2.43c-0.48,-2.821 3.162,-3.612 3.229,-1.04c2.767,-1.909 -0.201,-5.995 -2.371,-3.356c0.401,-1.836 -0.315,-3.745 -1.824,-4.865c-1.51,1.12 -2.226,3.029 -1.825,4.865c-2.17,-2.633 -5.138,1.447 -2.371,3.356c0.067,-2.572 3.709,-1.775 3.229,1.04c-0.289,1.409 -1.54,2.43 -2.979,2.43c-0.624,0 -1.234,-0.192 -1.746,-0.551c-1.07,-0.711 -1.824,-2.633 -1.824,-4.67c0,-2.979 1.472,-6.141 4.104,-5.545c0.87,-2.992 -1.824,-4.384 -3.879,-2.785l0,-9.729c4.581,1.872 9.526,2.687 14.466,2.384l0,7.296c-2.031,-1.508 -4.658,-0.115 -3.801,2.84c2.633,-0.608 4.08,2.56 4.105,5.545c0.036,2.061 -0.712,3.946 -1.788,4.664ZM293.336,427.883c-0.899,0.566 -1.552,1.453 -1.824,2.481l0,-4.561c0.604,-0.069 1.212,-0.16 1.824,-0.273l0,2.353ZM252.122,407.027l0.894,-1.04c2.712,2.092 8.403,6.907 15.359,11.06c9.182,5.473 20.601,9.729 30.707,4.384c-10.288,4.597 -21.282,0.195 -30.172,-5.259c-6.749,-4.147 -12.319,-8.853 -15.243,-10.945l9.236,-10.787c12.878,9.486 21.367,26.304 38.447,24.383c0.679,-0.021 1.355,-0.086 2.025,-0.195c0.725,-0.16 1.439,-0.363 2.14,-0.608c-18.764,17.293 -44.132,-3.721 -53.387,-10.993l-0.006,0ZM298.973,417.163c3.944,-1.159 7.738,-2.78 11.303,-4.828c-2.851,4.773 -7.977,5.156 -11.291,4.828l-0.012,0ZM305.503,412.73c-3.319,1.55 -6.794,2.738 -10.367,3.545c0,-0.474 0,-1.003 0,-1.55c22.894,-5.351 39.223,-25.935 39.223,-49.447c0,-27.856 -22.922,-50.778 -50.778,-50.778c-27.857,0 -50.779,22.922 -50.779,50.778c0,9.375 2.596,18.569 7.5,26.56l-1.289,0.784c-5.053,-8.23 -7.729,-17.702 -7.729,-27.36c0,-28.687 23.606,-52.292 52.293,-52.292c28.686,0 52.292,23.605 52.292,52.292c0,20.351 -11.88,38.93 -30.354,47.468l-0.012,0Z" style="fill:#2b325d;fill-rule:nonzero;"/><path d="M273.897,367.722c-2.335,1.119 -2.372,1.678 -2.372,1.678c0,0 0.608,0.402 3.357,-0.067c2.748,-0.468 2.28,-3.18 -0.985,-1.611Z" style="fill:#fff;fill-rule:nonzero;"/><path d="M286.204,385.222c-2.536,-0.784 -2.943,-0.657 -4.725,0.237c-1.97,0.991 -6.835,-0.164 -3.429,-4.615c-5.211,2.006 -2.177,7.753 2.559,6.391c3.126,-0.7 3.333,-1.18 6.428,-0.274c4.371,1.283 7.977,-4.451 1.872,-6.269c2.883,2.14 1.648,5.928 -2.705,4.53Z" style="fill:#fff;fill-rule:nonzero;"/><path d="M293.737,347.948c0.882,1.788 1.125,2.135 3.649,3.041c4.317,1.508 3.04,5.259 -0.572,5.253c5.965,2.226 6.549,-4.518 2.286,-6.135c-3.04,-1.143 -2.888,-1.654 -4.955,-4.092c-2.955,-3.947 -8.841,-1.216 -5.898,3.551c-0.055,-5.607 4.517,-3.594 5.49,-1.618Z" style="fill:#fff;fill-rule:nonzero;"/><path d="M265.511,374.161c-0.066,-2.657 -0.322,-2.997 -1.739,-4.396c-1.568,-1.55 -2.03,-6.53 3.278,-4.724c-3.569,-4.293 -8.039,0.419 -5.235,4.475c1.66,2.736 2.182,2.779 2.316,5.995c0.189,4.555 6.768,6.129 6.543,-0.231c-1.131,3.417 -5.102,3.454 -5.163,-1.119Z" style="fill:#fff;fill-rule:nonzero;"/><path d="M278.7,349.718c2.943,-4.743 -2.943,-7.498 -5.898,-3.551c-2.073,2.432 -1.946,2.955 -4.956,4.092c-4.256,1.617 -3.648,8.361 2.287,6.135c-3.606,0 -4.865,-3.739 -0.572,-5.253c2.499,-0.906 2.742,-1.253 3.648,-3.041c0.949,-1.976 5.522,-3.989 5.491,1.618Z" style="fill:#fff;fill-rule:nonzero;"/><path d="M283.589,378.102c0,0 0.578,-0.487 0.936,-3.229c0.359,-2.742 -2.359,-3.119 -1.824,0.462c0.371,2.566 0.888,2.767 0.888,2.767Z" style="fill:#fff;fill-rule:nonzero;"/><path d="M278.354,356.935c-1.891,-1.769 -2.433,-1.599 -2.433,-1.599c0,0 -0.146,0.742 1.277,3.107c1.423,2.366 3.801,0.967 1.156,-1.508Z" style="fill:#fff;fill-rule:nonzero;"/><path d="M299.933,364.925c5.309,-1.824 4.865,3.174 3.278,4.725c-1.417,1.404 -1.672,1.739 -1.739,4.396c-0.067,4.572 -4.032,4.536 -5.163,1.119c-0.225,6.36 6.354,4.785 6.543,0.231c0.134,-3.217 0.657,-3.259 2.317,-5.996c2.803,-4.055 -1.666,-8.768 -5.236,-4.475Z" style="fill:#fff;fill-rule:nonzero;"/><path d="M291.007,355.251c0,0 -0.754,0.049 -2.669,2.043c-1.916,1.994 0.054,3.91 1.751,0.718c1.246,-2.293 0.918,-2.761 0.918,-2.761Z" style="fill:#fff;fill-rule:nonzero;"/><path d="M292.831,367.442c-2.432,-1.131 -3.648,1.332 -0.103,1.891c2.56,0.396 2.906,-0.042 2.906,-0.042c0,0 -0.285,-0.687 -2.803,-1.849Z" style="fill:#fff;fill-rule:nonzero;"/><ellipse cx="283.546" cy="365.393" rx="6.488" ry="6.5" style="fill:#fff;"/><path d="M303.861,361.216c-1.672,-0.553 -3.52,-0.061 -5.192,1.216c-3.703,2.116 -4.257,-0.608 -4.257,-0.608c0,0 -1.088,-2.627 3.314,-2.888c1.946,0 3.612,-0.657 4.615,-1.989c2.201,-2.949 0.322,-8.081 -4.201,-11.467c-4.524,-3.387 -9.985,-3.74 -12.161,-0.791c-0.888,1.298 -1.16,2.923 -0.742,4.439l0,0.036c0.048,0.213 0.103,0.426 0.164,0.608c0.304,1.35 0.669,4.257 -1.824,4.257c-2.493,0 -2.244,-2.73 -1.916,-4.39c0.073,-0.262 0.207,-1.04 0.189,-0.991c0.23,-1.334 -0.079,-2.706 -0.858,-3.813c-2.207,-2.949 -7.661,-2.59 -12.161,0.791c-4.499,3.38 -6.408,8.512 -4.201,11.467c1.113,1.49 3.04,2.135 5.296,1.97c2.779,0.28 3.107,1.989 2.852,2.816c-0.499,1.629 -2.177,1.921 -4.433,0.65c-1.666,-1.216 -3.515,-1.733 -5.181,-1.179c-3.496,1.161 -4.864,6.451 -3.101,11.814c1.764,5.363 6.081,8.774 9.553,7.619c1.563,-0.517 2.694,-1.861 3.32,-3.648c1.301,-3.04 2.718,-3.29 3.891,-2.597c1.563,0.931 1.071,2.822 -0.973,4.536c-1.556,1.162 -2.505,2.676 -2.517,4.342c0,3.679 4.548,6.689 10.203,6.719c5.655,0.03 10.252,-2.931 10.27,-6.61c0,-1.714 -0.979,-3.283 -2.608,-4.475c-2.779,-2.377 -1.557,-3.897 -0.864,-4.366c0.517,-0.352 2.341,-1.252 3.74,2.11c0.608,1.916 1.769,3.351 3.393,3.886c3.496,1.161 7.771,-2.25 9.552,-7.619c1.782,-5.369 0.335,-10.684 -3.162,-11.845ZM274.888,369.333c-2.724,0.469 -3.357,0.067 -3.357,0.067c0,0 0.037,-0.559 2.372,-1.678c3.259,-1.569 3.642,1.125 0.985,1.611ZM275.933,355.348c0,0 0.536,-0.164 2.433,1.599c2.645,2.475 0.243,3.819 -1.15,1.508c-1.392,-2.31 -1.289,-3.119 -1.289,-3.119l0.006,0.012ZM284.531,374.891c-0.364,2.742 -0.936,3.229 -0.936,3.229c0,0 -0.523,-0.201 -0.9,-2.767c-0.523,-3.593 2.189,-3.15 1.836,-0.474l0,0.012ZM283.546,371.887c-0.004,0 -0.008,0 -0.012,0c-3.566,0 -6.5,-2.934 -6.5,-6.5c0,-3.566 2.934,-6.5 6.5,-6.5c3.566,0 6.5,2.934 6.5,6.5c0,0.002 0,0.004 0,0.006c0,3.561 -2.927,6.491 -6.488,6.494l0,0ZM290.125,358.005c-1.702,3.199 -3.648,1.217 -1.751,-0.717c1.897,-1.934 2.67,-2.043 2.67,-2.043c0,0 0.291,0.474 -0.925,2.76l0.006,0ZM292.74,369.333c-3.575,-0.559 -2.347,-3.04 0.103,-1.891c2.451,1.15 2.804,1.825 2.804,1.825c0,0 -0.353,0.468 -2.913,0.066l0.006,0Z" style="fill:#fff;fill-rule:nonzero;stroke-width:1px;stroke:#2b325d;"/><path d="M283.571,358.924c-3.546,0 -6.464,2.917 -6.464,6.463c0,3.546 2.918,6.464 6.464,6.464c3.545,0 6.463,-2.918 6.463,-6.464c0,-3.546 -2.918,-6.463 -6.463,-6.463ZM277.849,365.46c0,-0.667 0.549,-1.216 1.216,-1.216c0.667,0 1.216,0.549 1.216,1.216c0,0.667 -0.549,1.216 -1.216,1.216c-0.667,0 -1.216,-0.549 -1.216,-1.216ZM280.378,369.856c-0.667,0 -1.216,-0.549 -1.216,-1.216c0,-0.667 0.549,-1.216 1.216,-1.216c0.667,0 1.216,0.549 1.216,1.216c-0.003,0.665 -0.551,1.21 -1.216,1.21l0,0.006ZM280.421,363.46c-0.667,0 -1.216,-0.549 -1.216,-1.216c0,-0.668 0.549,-1.217 1.216,-1.217c0.667,0 1.216,0.549 1.216,1.217c-0.003,0.664 -0.551,1.21 -1.216,1.21l0,0.006ZM283.54,371.2c-0.667,0 -1.216,-0.549 -1.216,-1.216c0,-0.667 0.549,-1.216 1.216,-1.216c0.667,0 1.216,0.549 1.216,1.216c-0.003,0.665 -0.551,1.21 -1.216,1.21c-0.002,0 -0.004,0 -0.006,0l0.006,0.006ZM283.54,366.695c-0.667,0 -1.216,-0.549 -1.216,-1.217c0,-0.667 0.549,-1.216 1.216,-1.216c0.667,0 1.216,0.549 1.216,1.216c-0.003,0.661 -0.543,1.204 -1.204,1.21l-0.012,0.007ZM283.54,362.183c-0.667,0 -1.216,-0.549 -1.216,-1.216c0,-0.667 0.549,-1.216 1.216,-1.216c0.667,0 1.216,0.549 1.216,1.216c-0.013,0.649 -0.543,1.179 -1.191,1.191l-0.025,0.025ZM286.708,361.027c0.667,0 1.216,0.549 1.216,1.217c0,0.667 -0.549,1.216 -1.216,1.216c-0.667,0 -1.216,-0.549 -1.216,-1.216c0,-0.003 0,-0.005 0,-0.007c0,-0.667 0.549,-1.216 1.216,-1.216c0.014,0 0.029,0 0.043,0l-0.043,0.006ZM286.763,369.808c-0.667,0 -1.216,-0.549 -1.216,-1.216c0,-0.667 0.549,-1.216 1.216,-1.216c0.667,0 1.216,0.549 1.216,1.216c0,0.655 -0.53,1.199 -1.186,1.216l-0.03,0ZM287.979,366.658c-0.667,0 -1.216,-0.549 -1.216,-1.216c0,-0.667 0.549,-1.216 1.216,-1.216c0.667,0 1.216,0.549 1.216,1.216c0.001,0.651 -0.522,1.193 -1.173,1.216l-0.043,0Z" style="fill:#2b325d;fill-rule:nonzero;"/><path d="M302.846,375.25c-0.183,4.554 -6.768,6.129 -6.543,-0.231c1.131,3.417 5.096,3.46 5.163,-1.119c0.067,-2.657 0.322,-2.998 1.739,-4.396c1.568,-1.551 2.031,-6.531 -3.278,-4.725c3.57,-4.293 8.039,0.42 5.236,4.475c-1.66,2.737 -2.183,2.779 -2.317,5.996" style="fill:#2b325d;fill-rule:nonzero;"/><path d="M299.106,350.107c4.257,1.569 3.764,8.324 -2.225,6.159c3.6,0 4.864,-3.794 0.517,-5.259c-2.512,-0.876 -2.755,-1.216 -3.649,-3.004c-0.997,-1.97 -5.594,-3.934 -5.502,1.672c-2.992,-4.712 2.863,-7.521 5.861,-3.612c2.098,2.433 1.976,2.931 4.998,4.044" style="fill:#2b325d;fill-rule:nonzero;"/><path d="M264.119,375.499c0.189,4.554 6.774,6.129 6.543,-0.231c-1.131,3.417 -5.096,3.46 -5.163,-1.119c-0.067,-2.657 -0.322,-2.997 -1.739,-4.396c-1.568,-1.55 -2.031,-6.53 3.278,-4.725c-3.57,-4.292 -8.045,0.42 -5.236,4.476c1.66,2.736 2.183,2.779 2.317,5.995" style="fill:#2b325d;fill-rule:nonzero;"/><path d="M287.037,386.997c4.378,1.277 7.971,-4.463 1.866,-6.275c2.882,2.159 1.654,5.935 -2.706,4.542c-2.541,-0.784 -2.943,-0.65 -4.724,0.25c-1.97,0.991 -6.835,-0.152 -3.436,-4.615c-5.205,2.018 -2.164,7.758 2.572,6.39c3.126,-0.699 3.333,-1.185 6.421,-0.286" style="fill:#2b325d;fill-rule:nonzero;"/><path d="M267.846,350.113c-4.256,1.617 -3.648,8.361 2.287,6.135c-3.6,0 -4.865,-3.739 -0.578,-5.253c2.499,-0.906 2.742,-1.253 3.648,-3.041c0.973,-1.982 5.552,-3.995 5.521,1.612c2.943,-4.743 -2.943,-7.498 -5.898,-3.551c-2.067,2.432 -1.945,2.955 -4.955,4.098" style="fill:#2b325d;fill-rule:nonzero;"/><path d="M262.848,406.382c0,1.668 1.373,3.04 3.04,3.04c1.668,0 3.041,-1.372 3.041,-3.04c0,-1.668 -1.373,-3.04 -3.041,-3.04c-1.667,0 -3.04,1.372 -3.04,3.04ZM264.222,406.382c0,-0.901 0.742,-1.642 1.642,-1.642c0.901,0 1.642,0.741 1.642,1.642c0,0.901 -0.741,1.642 -1.642,1.642c-0.888,-0.02 -1.608,-0.754 -1.611,-1.642l-0.031,0Z" style="fill:#2b325d;fill-rule:nonzero;"/><path d="M280.518,402.941c-0.002,0.046 -0.003,0.093 -0.003,0.139c0,1.645 1.353,2.998 2.998,2.998c1.644,0 2.997,-1.353 2.997,-2.998c0,-1.643 -1.351,-2.996 -2.994,-2.997c-1.606,-0.037 -2.958,1.252 -2.998,2.858l0,0ZM281.85,402.941c-0.004,-0.049 -0.007,-0.098 -0.007,-0.146c0,-0.918 0.755,-1.673 1.673,-1.673c0.917,0 1.672,0.755 1.672,1.673c0,0.917 -0.755,1.672 -1.672,1.672c-0.875,0.037 -1.627,-0.651 -1.666,-1.526Z" style="fill:#2b325d;fill-rule:nonzero;"/><path d="M280.463,429.525c0,1.667 1.373,3.04 3.041,3.04c1.668,0 3.04,-1.373 3.04,-3.04c0,-1.668 -1.372,-3.041 -3.04,-3.041c-1.668,0 -3.041,1.373 -3.041,3.041ZM281.838,429.525c0,-0.901 0.741,-1.642 1.641,-1.642c0.901,0 1.642,0.741 1.642,1.642c0,0.9 -0.741,1.641 -1.642,1.641c-0.901,0 -1.644,-0.74 -1.647,-1.641l0.006,0Z" style="fill:#2b325d;fill-rule:nonzero;"/><path d="M280.336,414.646c-0.824,0.105 -1.574,0.532 -2.086,1.185c-0.328,0.412 -0.506,0.924 -0.506,1.45c0,0.751 0.363,1.458 0.974,1.895c1.396,0.987 3.343,0.719 4.421,-0.609c0.322,-0.418 0.499,-0.931 0.505,-1.459c0.007,-0.103 0.007,-0.207 0,-0.31c-0.093,-0.63 -0.435,-1.198 -0.949,-1.575c-0.678,-0.498 -1.528,-0.706 -2.359,-0.577ZM279.472,418.172c-0.296,-0.201 -0.474,-0.537 -0.474,-0.895c0,-0.253 0.088,-0.498 0.249,-0.692c0.66,-0.781 1.816,-0.942 2.664,-0.371c0.246,0.176 0.413,0.443 0.462,0.742c0.035,0.303 -0.052,0.608 -0.243,0.845c-0.661,0.789 -1.826,0.95 -2.676,0.371l0.018,0Z" style="fill:#2b325d;fill-rule:nonzero;"/><path d="M283.546,350.222c-0.34,-1.945 -0.34,-6.688 -3.995,-8.604c0.671,-0.439 1.509,-0.545 2.268,-0.285c0.146,-1.314 0.608,-3.162 1.733,-4.257c1.028,0.535 1.685,3.004 1.752,4.214c0.758,-0.269 1.6,-0.163 2.268,0.286c-3.673,1.952 -3.758,6.725 -4.026,8.646Z" style="fill:#fff;fill-rule:nonzero;stroke-width:1px;stroke:#2b325d;"/><path d="M268.959,360.821c-1.958,-0.274 -6.518,-1.678 -9.449,1.216c-0.209,-0.774 -0.049,-1.603 0.432,-2.244c-1.216,-0.541 -2.816,-1.575 -3.484,-2.961c0.827,-0.815 3.374,-0.669 4.548,-0.365c-0.021,-0.804 0.34,-1.571 0.973,-2.067c0.693,4.11 5.229,5.576 6.98,6.421Z" style="fill:#fff;fill-rule:nonzero;stroke-width:1px;stroke:#2b325d;"/><path d="M297.927,360.717c1.733,-0.942 6.269,-2.468 6.901,-6.536c0.63,0.497 0.997,1.258 0.991,2.061c1.295,-0.28 3.205,-0.401 4.561,0.31c-0.183,1.143 -2.317,2.542 -3.442,2.998c0.495,0.635 0.66,1.468 0.444,2.244c-2.998,-2.889 -7.546,-1.46 -9.455,-1.077Z" style="fill:#fff;fill-rule:nonzero;stroke-width:1px;stroke:#2b325d;"/><path d="M274.59,377.573c-0.882,1.763 -3.722,5.618 -1.91,9.309c-0.802,-0.047 -1.539,-0.462 -1.994,-1.125c-0.9,0.967 -2.347,2.225 -3.873,2.432c-0.511,-1.04 0.395,-3.478 1.058,-4.487c-0.768,-0.237 -1.38,-0.824 -1.648,-1.581c4.11,0.644 7.005,-3.162 8.367,-4.548Z" style="fill:#fff;fill-rule:nonzero;stroke-width:1px;stroke:#2b325d;"/><path d="M292.406,377.469c1.41,1.381 4.213,5.26 8.287,4.664c-0.288,0.75 -0.909,1.325 -1.678,1.557c0.651,1.149 1.332,2.936 1.058,4.451c-1.149,0.164 -3.119,-1.46 -3.879,-2.433c-0.459,0.659 -1.204,1.064 -2.007,1.089c1.861,-3.685 -0.881,-7.613 -1.781,-9.328Z" style="fill:#fff;fill-rule:nonzero;stroke-width:1px;stroke:#2b325d;"/><g><path d="M247.671,381.075c-0.097,-0.328 -0.29,-0.62 -0.553,-0.839c-0.359,-0.07 -0.731,-0.028 -1.064,0.121l-5.473,1.654c-0.321,0.055 -0.613,0.223 -0.821,0.475c-0.103,0.318 -0.103,0.661 0,0.979l-0.237,0.073l-1.058,-3.497l0.237,-0.073c0.084,0.322 0.267,0.609 0.523,0.821c0.313,0.096 0.651,0.074 0.949,-0.061l2.432,-0.741l-1.107,-3.843l-2.432,0.741c-0.32,0.055 -0.611,0.221 -0.821,0.469c-0.104,0.318 -0.104,0.661 0,0.979l-0.231,0.073l-1.07,-3.478l0.237,-0.073c0.085,0.324 0.27,0.614 0.529,0.827c0.312,0.092 0.646,0.071 0.943,-0.061l5.606,-1.703c0.322,-0.052 0.614,-0.221 0.821,-0.474c0.096,-0.319 0.096,-0.66 0,-0.979l0.231,-0.073l1.058,3.496l-0.237,0.073c-0.094,-0.331 -0.287,-0.626 -0.553,-0.845c-0.362,-0.066 -0.735,-0.022 -1.071,0.128l-2.432,0.742l1.137,3.806l2.597,-0.784c0.312,-0.045 0.598,-0.198 0.808,-0.432c0.097,-0.317 0.097,-0.656 0,-0.973l0.237,-0.073l1.058,3.496l-0.243,0.049Z" style="fill:#2b325d;fill-rule:nonzero;"/><path d="M237.34,371.091c-1.637,-1.599 -1.778,-4.218 -0.322,-5.983c1.81,-1.87 4.798,-2.015 6.78,-0.329c0.792,0.757 1.257,1.794 1.295,2.888c0.097,1.153 -0.296,2.295 -1.082,3.144c-0.836,0.888 -1.997,1.402 -3.217,1.423c-1.26,0.125 -2.517,-0.291 -3.454,-1.143l0,0ZM243.737,369.753c0.601,-0.51 0.928,-1.274 0.882,-2.061c-0.043,-0.777 -0.44,-1.493 -1.076,-1.94c-0.677,-0.515 -1.723,-0.734 -3.138,-0.657c-1.415,0.077 -2.428,0.414 -3.04,1.01c-0.575,0.516 -0.886,1.265 -0.845,2.037c0.041,0.786 0.448,1.509 1.1,1.952c1.953,0.975 4.284,0.845 6.117,-0.341Z" style="fill:#2b325d;fill-rule:nonzero;"/><path d="M244.497,362.961c0.077,-0.376 0.014,-0.767 -0.176,-1.1c-0.369,-0.273 -0.808,-0.435 -1.265,-0.469l-5.71,-1.058l-0.243,0.14c-0.196,0.096 -0.369,0.235 -0.504,0.408c-0.101,0.19 -0.169,0.395 -0.201,0.608l-0.243,-0.043l0.407,-2.213l7.114,-3.867l-4.305,-0.785c-0.472,-0.149 -0.982,-0.127 -1.441,0.061c-0.231,0.238 -0.384,0.542 -0.438,0.869l-0.243,-0.042l0.56,-3.04l0.243,0.042c-0.068,0.363 -0.004,0.739 0.182,1.058c0.36,0.287 0.8,0.457 1.259,0.487l6.822,1.216l-0.042,0.225l-8.166,4.445l5.046,0.924c0.473,0.148 0.982,0.128 1.441,-0.055c0.234,-0.231 0.391,-0.528 0.45,-0.851l0.244,0.042l-0.56,3.041l-0.231,-0.043Z" style="fill:#2b325d;fill-rule:nonzero;"/><path d="M246.498,353.548c0.136,-0.337 0.186,-0.702 0.146,-1.064c-0.178,-0.29 -0.469,-0.493 -0.803,-0.559l-5.472,-2.074c-0.294,-0.16 -0.639,-0.199 -0.961,-0.109c-0.285,0.23 -0.497,0.539 -0.608,0.888l-0.231,-0.085l1.386,-3.649l0.231,0.085c-0.149,0.334 -0.198,0.704 -0.14,1.065c0.182,0.28 0.465,0.478 0.791,0.553l5.472,2.073c0.293,0.17 0.644,0.209 0.967,0.11c0.274,-0.243 0.483,-0.55 0.608,-0.894l0.231,0.085l-1.38,3.648l-0.237,-0.073Z" style="fill:#2b325d;fill-rule:nonzero;"/><path d="M247.714,344.811c0.525,0.138 1.07,0.185 1.611,0.14c0.745,-0.067 1.418,-0.474 1.824,-1.101c0.228,-0.328 0.326,-0.729 0.274,-1.125c-0.06,-0.418 -0.306,-0.787 -0.669,-1.003c-0.354,-0.246 -0.795,-0.334 -1.216,-0.243c-0.505,0.137 -0.996,0.322 -1.465,0.553l-1.217,0.541c-0.315,0.146 -0.648,0.25 -0.991,0.31c-0.505,0.087 -1.025,-0.022 -1.453,-0.304c-0.525,-0.332 -0.891,-0.867 -1.009,-1.477c-0.113,-0.642 0.043,-1.302 0.431,-1.825c0.219,-0.301 0.486,-0.564 0.791,-0.778c0.216,-0.14 0.419,-0.299 0.608,-0.474c0.081,-0.096 0.115,-0.223 0.091,-0.347c-0.042,-0.114 -0.108,-0.218 -0.194,-0.304l0.152,-0.225l2.493,1.326l-0.177,0.261c-0.644,-0.284 -1.368,-0.329 -2.043,-0.127c-0.489,0.159 -0.915,0.47 -1.216,0.887c-0.196,0.28 -0.288,0.62 -0.261,0.961c0.027,0.342 0.217,0.65 0.51,0.827c0.26,0.185 0.578,0.267 0.894,0.231c0.408,-0.06 0.804,-0.183 1.174,-0.365l1.216,-0.559c0.588,-0.305 1.223,-0.511 1.879,-0.608c0.482,-0.03 0.96,0.105 1.356,0.383c0.558,0.36 0.926,0.952 1.003,1.611c0.087,0.724 -0.105,1.455 -0.535,2.043c-0.247,0.359 -0.554,0.674 -0.906,0.931c-0.216,0.151 -0.42,0.32 -0.608,0.504c-0.081,0.094 -0.102,0.226 -0.055,0.341c0.049,0.096 0.115,0.182 0.195,0.255l-0.164,0.237l-2.548,-1.216l0.225,-0.261Z" style="fill:#2b325d;fill-rule:nonzero;"/><path d="M248.918,334.407c0.137,-2.285 2.023,-4.107 4.311,-4.165c2.597,0.137 4.666,2.3 4.688,4.901c-0.052,1.093 -0.531,2.124 -1.332,2.87c-0.812,0.818 -1.931,1.259 -3.083,1.216c-1.216,-0.05 -2.361,-0.59 -3.174,-1.496c-0.917,-0.86 -1.43,-2.069 -1.41,-3.326ZM254.11,338.347c0.78,0.119 1.571,-0.136 2.135,-0.687c0.558,-0.54 0.838,-1.307 0.76,-2.08c-0.053,-0.847 -0.572,-1.779 -1.557,-2.797c-0.985,-1.017 -1.901,-1.562 -2.748,-1.635c-0.766,-0.096 -1.535,0.159 -2.092,0.693c-0.567,0.546 -0.847,1.328 -0.754,2.11c0.539,2.116 2.164,3.793 4.263,4.396l-0.007,0Z" style="fill:#2b325d;fill-rule:nonzero;"/><path d="M259.808,334.62c0.302,-0.2 0.551,-0.472 0.724,-0.791c0.018,-0.338 -0.106,-0.669 -0.341,-0.912l-3.32,-4.809c-0.154,-0.288 -0.414,-0.506 -0.724,-0.609c-0.363,0.03 -0.709,0.166 -0.997,0.39l-0.14,-0.201l3.217,-2.213l0.14,0.2c-0.312,0.19 -0.561,0.467 -0.718,0.797c-0.011,0.334 0.109,0.659 0.335,0.906l3.32,4.828c0.144,0.304 0.408,0.536 0.729,0.638c0.36,-0.047 0.703,-0.183 0.998,-0.395l0.139,0.201l-3.222,2.146l-0.14,-0.176Z" style="fill:#2b325d;fill-rule:nonzero;"/><path d="M259.778,324.356l6.725,-3.211l1.033,1.995l-0.279,0.134c-0.275,-0.428 -0.665,-0.77 -1.125,-0.986c-0.525,-0.045 -1.05,0.081 -1.496,0.359l-0.663,0.316l2.907,6.081c0.091,0.322 0.311,0.593 0.608,0.748c0.362,0.01 0.721,-0.07 1.045,-0.231l0.104,0.225l-3.472,1.66l-0.103,-0.225c0.339,-0.138 0.63,-0.376 0.833,-0.681c0.026,-0.369 -0.068,-0.736 -0.268,-1.046l-2.84,-5.953l-0.662,0.316c-0.492,0.177 -0.917,0.502 -1.216,0.931c-0.149,0.492 -0.129,1.021 0.054,1.501l-0.292,0.14l-0.893,-2.073Z" style="fill:#2b325d;fill-rule:nonzero;"/><path d="M274.182,319.96c1.453,-1.754 4.035,-2.112 5.911,-0.821c1.037,0.749 1.702,1.912 1.824,3.186c0.17,1.005 0.007,2.038 -0.462,2.943c-0.514,0.927 -1.37,1.619 -2.384,1.927c0.567,0.646 1.308,1.114 2.134,1.35c0.576,0.133 1.167,0.186 1.758,0.158l0.036,0.244l-0.535,0.073c-0.63,0.093 -1.268,0.122 -1.903,0.085c-0.531,-0.033 -1.055,-0.14 -1.557,-0.316c-0.498,-0.183 -0.961,-0.45 -1.368,-0.791c-0.229,-0.201 -0.471,-0.388 -0.724,-0.559l-0.176,-0.055c-0.662,-0.185 -1.281,-0.497 -1.824,-0.918c-1.819,-1.678 -2.132,-4.467 -0.73,-6.506ZM276.006,326.229c0.475,0.472 1.119,0.738 1.789,0.738c0.899,0 1.734,-0.479 2.188,-1.255c0.458,-0.714 0.592,-1.776 0.401,-3.186c-0.19,-1.411 -0.608,-2.402 -1.252,-2.974c-0.56,-0.531 -1.332,-0.782 -2.098,-0.681c-0.781,0.106 -1.468,0.573 -1.854,1.259c-0.82,2.037 -0.495,4.364 0.851,6.099l-0.025,0Z" style="fill:#2b325d;fill-rule:nonzero;"/><path d="M287.152,318.415l0,0.243c-0.343,-0.046 -0.691,0.009 -1.003,0.158c-0.214,0.253 -0.325,0.576 -0.31,0.906l-0.402,4.196c-0.078,0.548 -0.034,1.107 0.128,1.636c0.326,0.748 1.075,1.23 1.891,1.216c1.07,0.101 1.824,-0.189 2.262,-0.87c0.295,-0.564 0.462,-1.187 0.486,-1.824l0.323,-3.417c0.103,-0.458 0.058,-0.937 -0.128,-1.368c-0.255,-0.25 -0.587,-0.404 -0.942,-0.438l0,-0.243l3.04,0.292l0,0.243c-0.366,-0.038 -0.734,0.059 -1.034,0.273c-0.241,0.389 -0.366,0.838 -0.359,1.296l-0.328,3.417c-0.03,0.732 -0.239,1.446 -0.608,2.079c-0.604,0.888 -1.617,1.263 -3.04,1.125c-1.423,-0.138 -2.36,-0.691 -2.809,-1.66c-0.246,-0.636 -0.326,-1.325 -0.232,-2l0.39,-4.098c0.074,-0.32 0.027,-0.657 -0.134,-0.943c-0.274,-0.206 -0.601,-0.328 -0.943,-0.353l0,-0.243l3.752,0.377Z" style="fill:#2b325d;fill-rule:nonzero;"/><path d="M292.223,327.457c0.347,0.106 0.715,0.125 1.07,0.055c0.272,-0.2 0.448,-0.505 0.487,-0.839l1.593,-5.649c0.127,-0.31 0.127,-0.657 0,-0.967c-0.255,-0.262 -0.58,-0.443 -0.936,-0.523l0.066,-0.237l3.758,1.058l-0.067,0.237c-0.345,-0.118 -0.717,-0.133 -1.07,-0.043c-0.265,0.204 -0.439,0.503 -0.486,0.833l-1.593,5.649c-0.136,0.31 -0.136,0.663 0,0.973c0.266,0.247 0.59,0.425 0.942,0.517l-0.067,0.237l-3.758,-1.058l0.061,-0.243Z" style="fill:#2b325d;fill-rule:nonzero;"/><path d="M300.243,330.126c0.314,0.219 0.697,0.316 1.077,0.274c0.396,-0.232 0.719,-0.572 0.93,-0.979l2.967,-4.451c0.217,-0.249 0.334,-0.57 0.329,-0.9c-0.151,-0.327 -0.4,-0.599 -0.712,-0.778l0.14,-0.207l2.165,1.441l-1.125,7.139l6.08,-3.825l2.177,1.453l-0.134,0.207c-0.271,-0.199 -0.599,-0.305 -0.936,-0.304c-0.298,0.127 -0.542,0.355 -0.687,0.644l-3.247,4.865c-0.215,0.246 -0.334,0.561 -0.334,0.888c0.134,0.306 0.356,0.567 0.638,0.748l-0.134,0.206l-3.04,-2.043l0.134,-0.206c0.285,0.209 0.631,0.321 0.985,0.316c0.321,-0.177 0.582,-0.446 0.748,-0.773l3.283,-4.925l-6.968,4.372l-0.152,-0.097l1.216,-7.826l-2.913,4.372c-0.323,0.375 -0.507,0.849 -0.523,1.344c0.121,0.306 0.334,0.567 0.608,0.748l-0.133,0.207l-2.554,-1.709l0.115,-0.201Z" style="fill:#2b325d;fill-rule:nonzero;"/><path d="M309.808,336.924l0.183,-0.158c0.204,0.213 0.488,0.332 0.784,0.329c0.653,-0.106 1.294,-0.273 1.915,-0.499l6.689,-2.134l0.176,0.2l-3.545,7.346c-0.176,0.311 -0.297,0.65 -0.359,1.003c0.017,0.239 0.104,0.467 0.25,0.657l-0.183,0.158l-2.183,-2.548l0.183,-0.158c0.18,0.188 0.385,0.352 0.608,0.486c0.144,0.049 0.304,0 0.395,-0.121c0.083,-0.083 0.157,-0.175 0.219,-0.274c0.103,-0.151 0.194,-0.31 0.274,-0.474l0.608,-1.216l-2.25,-2.627c-0.884,0.296 -1.419,0.482 -1.605,0.559c-0.147,0.051 -0.284,0.125 -0.408,0.219c-0.158,0.115 -0.228,0.317 -0.176,0.505c0.079,0.199 0.188,0.386 0.322,0.553l-0.182,0.158l-1.715,-1.964ZM316.065,339.01l1.775,-3.502l-3.733,1.216l1.958,2.286Z" style="fill:#2b325d;fill-rule:nonzero;"/><path d="M316.229,344.16c0.156,0.292 0.384,0.539 0.663,0.718c0.324,0.041 0.652,-0.041 0.918,-0.231l5.211,-2.706c0.304,-0.112 0.558,-0.327 0.718,-0.608c0.038,-0.334 -0.033,-0.671 -0.201,-0.961l0.219,-0.109l1.715,3.307l-0.213,0.11c-0.146,-0.309 -0.376,-0.57 -0.663,-0.754c-0.304,-0.069 -0.622,-0.004 -0.876,0.176l-5.624,2.919c-0.11,0.049 -0.204,0.127 -0.274,0.225c-0.053,0.113 -0.053,0.245 0,0.358c0.033,0.094 0.073,0.191 0.122,0.292c0.048,0.102 0.142,0.284 0.28,0.548c0.329,0.727 0.791,1.386 1.362,1.945c0.565,0.325 1.219,0.459 1.866,0.383l0.152,0.298l-2.322,0.481l-3.266,-6.294l0.213,-0.097Z" style="fill:#2b325d;fill-rule:nonzero;"/><path d="M329.837,355.719l-0.237,0.049c-0.027,-0.233 -0.095,-0.46 -0.2,-0.669c-0.079,-0.138 -0.244,-0.204 -0.396,-0.158c-0.07,0.017 -0.138,0.043 -0.2,0.079c-0.107,0.064 -0.206,0.141 -0.292,0.231l-2.432,2.432l3.198,1.314c0.107,0.045 0.219,0.075 0.334,0.091c0.061,0.007 0.122,0.007 0.183,0c0.179,-0.027 0.312,-0.184 0.31,-0.365c0.008,-0.204 -0.011,-0.409 -0.055,-0.608l0.243,-0.049l0.542,2.828l-0.238,0.048c-0.058,-0.249 -0.187,-0.477 -0.371,-0.656c-0.43,-0.364 -0.922,-0.648 -1.453,-0.839l-3.289,-1.35l-2.518,0.486c-0.341,0.009 -0.664,0.161 -0.887,0.42c-0.096,0.371 -0.096,0.76 0,1.131l-0.238,0.048l-0.76,-3.946l0.238,-0.049c0.05,0.387 0.215,0.749 0.474,1.04c0.357,0.122 0.744,0.122 1.1,0l2.244,-0.432l2.159,-2.17c0.505,-0.484 0.976,-1.002 1.41,-1.551c0.196,-0.27 0.277,-0.607 0.225,-0.936l0.244,-0.049l0.662,3.63Z" style="fill:#2b325d;fill-rule:nonzero;"/><path d="M322.589,366.117c-0.046,0.334 0.025,0.673 0.201,0.961c0.303,0.193 0.656,0.294 1.015,0.291l5.686,0.609c0.312,0.069 0.639,0.028 0.924,-0.116c0.218,-0.245 0.348,-0.555 0.371,-0.882l0.243,0l-0.359,3.454c-0.033,0.903 -0.352,1.772 -0.912,2.481c-0.446,0.532 -1.136,0.799 -1.824,0.705c-0.777,-0.028 -1.479,-0.482 -1.824,-1.179c-0.347,-0.789 -0.467,-1.659 -0.347,-2.512c0,-0.139 0.037,-0.322 0.067,-0.541c0.031,-0.219 0.049,-0.383 0.061,-0.486l-2.383,-0.25c-0.324,-0.081 -0.666,-0.033 -0.955,0.134c-0.204,0.293 -0.326,0.635 -0.353,0.991l-0.243,0l0.383,-3.648l0.249,-0.012ZM329.837,371.34c0.223,-0.428 0.356,-0.898 0.389,-1.38c0.048,-0.165 0.048,-0.34 0,-0.505c-0.094,-0.086 -0.218,-0.132 -0.346,-0.128l-3.43,-0.358c-0.044,0.231 -0.072,0.383 -0.085,0.456c0,0.073 0,0.14 0,0.213c-0.073,0.484 -0.036,0.979 0.11,1.447c0.268,0.677 0.926,1.124 1.654,1.125c0.694,0.099 1.379,-0.253 1.702,-0.876l0.006,0.006Z" style="fill:#2b325d;fill-rule:nonzero;"/><path d="M321.653,373.316c-0.095,0.318 -0.105,0.656 -0.03,0.979c0.203,0.258 0.496,0.429 0.82,0.481l5.595,1.745c0.295,0.135 0.629,0.161 0.942,0.073c0.263,-0.211 0.451,-0.501 0.535,-0.827l0.231,0.073l-2.085,6.688l-1.825,-0.517l0.098,-0.322c0.41,0.09 0.838,0.038 1.216,-0.146c0.348,-0.376 0.585,-0.841 0.687,-1.344l0.535,-1.714c0.052,-0.118 0.052,-0.253 0,-0.371c-0.077,-0.072 -0.171,-0.122 -0.274,-0.146l-2.809,-0.876l-0.608,1.946c-0.161,0.344 -0.19,0.737 -0.079,1.101c0.226,0.287 0.521,0.513 0.857,0.656l-0.091,0.292l-2.906,-0.906l0.091,-0.292c0.36,0.071 0.732,0.05 1.082,-0.061c0.293,-0.236 0.49,-0.571 0.554,-0.942l0.608,-1.946l-3.114,-0.973c-0.172,-0.095 -0.39,-0.054 -0.516,0.098c-0.211,0.45 -0.382,0.918 -0.511,1.398c-0.234,0.632 -0.34,1.304 -0.31,1.976c0.151,0.608 0.51,1.144 1.015,1.514l-0.109,0.353l-1.946,-1.216l2.104,-6.847l0.243,0.073Z" style="fill:#2b325d;fill-rule:nonzero;"/><path d="M318.978,381.799c-0.207,0.322 -0.289,0.709 -0.232,1.088c0.248,0.386 0.601,0.693 1.016,0.888l4.956,3.04l0.273,-0.043c0.215,-0.021 0.423,-0.089 0.608,-0.2c0.157,-0.134 0.29,-0.292 0.395,-0.468l0.207,0.127l-1.179,1.928l-8.008,1.04l3.727,2.28c0.388,0.308 0.873,0.47 1.368,0.456c0.302,-0.14 0.555,-0.369 0.724,-0.657l0.206,0.128l-1.629,2.627l-0.207,-0.128c0.194,-0.312 0.27,-0.683 0.213,-1.046c-0.233,-0.396 -0.581,-0.713 -0.997,-0.906l-5.917,-3.648l0.116,-0.195l9.206,-1.216l-4.378,-2.681c-0.389,-0.31 -0.872,-0.475 -1.368,-0.469c-0.299,0.125 -0.554,0.337 -0.73,0.608l-0.207,-0.127l1.618,-2.639l0.219,0.213Z" style="fill:#2b325d;fill-rule:nonzero;"/><path d="M315.171,392.032c-0.493,-0.228 -1.022,-0.37 -1.563,-0.419c-0.753,-0.072 -1.497,0.211 -2.012,0.766c-0.284,0.283 -0.451,0.663 -0.468,1.064c-0.014,0.423 0.165,0.83 0.486,1.106c0.301,0.295 0.71,0.456 1.131,0.444c0.521,-0.046 1.036,-0.142 1.538,-0.285l1.289,-0.323c0.336,-0.087 0.681,-0.13 1.028,-0.127c0.514,0.004 1.008,0.204 1.38,0.559c0.459,0.419 0.725,1.009 0.736,1.63c0,0.65 -0.269,1.273 -0.742,1.72c-0.269,0.251 -0.577,0.457 -0.912,0.608c-0.23,0.104 -0.452,0.226 -0.663,0.365c-0.097,0.079 -0.153,0.198 -0.152,0.322c0.022,0.121 0.07,0.235 0.14,0.335l-0.188,0.194l-2.226,-1.745l0.219,-0.225c0.586,0.395 1.293,0.567 1.995,0.487c0.504,-0.075 0.972,-0.307 1.337,-0.663c0.242,-0.242 0.392,-0.56 0.426,-0.9c0.033,-0.342 -0.101,-0.679 -0.359,-0.906c-0.223,-0.226 -0.522,-0.363 -0.839,-0.383c-0.411,-0.01 -0.821,0.043 -1.216,0.158l-1.32,0.341c-0.632,0.19 -1.291,0.274 -1.951,0.249c-0.48,-0.053 -0.929,-0.267 -1.271,-0.608c-0.488,-0.455 -0.747,-1.104 -0.706,-1.77c0.042,-0.728 0.357,-1.415 0.882,-1.921c0.307,-0.311 0.665,-0.569 1.058,-0.76c0.241,-0.111 0.473,-0.241 0.693,-0.389c0.097,-0.076 0.142,-0.202 0.116,-0.322c-0.031,-0.104 -0.08,-0.201 -0.146,-0.286l0.201,-0.207l2.292,1.666l-0.213,0.225Z" style="fill:#2b325d;fill-rule:nonzero;"/><path d="M308.793,395.194c-0.263,0.194 -0.473,0.451 -0.608,0.748c0,0.327 0.124,0.642 0.346,0.882l3.332,4.815c0.156,0.277 0.403,0.492 0.7,0.608c0.335,-0.003 0.662,-0.114 0.93,-0.316l0.14,0.207l-5.752,3.983l-1.113,-1.527l0.273,-0.188c0.269,0.329 0.643,0.556 1.058,0.644c0.509,-0.082 0.984,-0.303 1.375,-0.638l1.471,-1.015c0.117,-0.055 0.206,-0.157 0.243,-0.28c-0.014,-0.122 -0.065,-0.236 -0.146,-0.328l-1.672,-2.433l-1.666,1.156c-0.336,0.172 -0.598,0.462 -0.736,0.814c0,0.364 0.092,0.722 0.268,1.04l-0.255,0.177l-1.745,-2.469l0.255,-0.177c0.241,0.273 0.546,0.482 0.888,0.609c0.376,-0.006 0.737,-0.149 1.015,-0.402l1.666,-1.155l-1.86,-2.688c-0.077,-0.182 -0.275,-0.285 -0.469,-0.243c-0.442,0.224 -0.863,0.486 -1.258,0.785c-0.574,0.35 -1.07,0.814 -1.46,1.362c-0.255,0.574 -0.302,1.219 -0.133,1.824l-0.304,0.213l-0.773,-2.177l5.838,-4.032l0.152,0.201Z" style="fill:#2b325d;fill-rule:nonzero;"/></g></g></g></svg>