<?xml version="1.0" standalone="no"?><!DOCTYPE svg PUBLIC "-//W3C//DTD SVG 1.1//EN" "http://www.w3.org/Graphics/SVG/1.1/DTD/svg11.dtd"><svg width="100px" height="50px" version="1.1" xmlns="http://www.w3.org/2000/svg" xmlns:xlink="http://www.w3.org/1999/xlink" xml:space="preserve" style="fill-rule:evenodd;clip-rule:evenodd;stroke-linejoin:round;stroke-miterlimit:1.41421;"><path d="M82.816,13.753l11.184,26.456l-7.806,0l-1.914,-4.69l-10.134,0l-1.877,4.69l-26.362,0l0,-7.038c-2.212,4.269 -6.903,7.038 -13.534,7.038l-26.373,0l0,-3.574l1.666,0c2.222,0 2.612,-0.5 2.612,-2.61c0,0 0,-6.819 0,-6.93c0,-2.334 -0.056,-2.944 -2.499,-2.944l-1.779,0l0,-3.686l11.395,0l0,13.56c0,2.166 0.388,2.61 2.499,2.61l2.497,0l0,-22.695l10.132,0c6.562,0 11.192,2.645 13.384,6.827l0,-6.827l21.128,0l0,6.193l-13.921,0l0,3.977l12.609,0l0,5.742l-12.609,0l0,4.166l14.11,0l0,0.021l8.575,-20.286l7.017,0ZM32.635,33.755c4.354,0 7.243,-2.402 7.243,-6.643l0,-0.075c0,-4.203 -2.889,-6.642 -7.243,-6.642l-2.963,0l0,13.36l2.963,0ZM82.179,29.852l-2.928,-7.467l-2.966,7.467l5.894,0ZM13.539,9.791c2.299,0 4.149,1.85 4.149,4.149c0,2.3 -1.85,4.149 -4.149,4.149c-2.349,0 -4.149,-1.799 -4.149,-4.149c0,-2.299 1.85,-4.149 4.149,-4.149Z" style="fill:#fff;"/></svg>