<svg xmlns="http://www.w3.org/2000/svg" viewBox="0 0 850 979.69"><defs><style>.a,.d,.e,.f{fill:none;}.a{stroke:#2b325d;stroke-width:36px;}.a,.e{stroke-miterlimit:10;}.b{fill:#2b325d;}.c{fill:#fff;}.e,.f{stroke:#fff;stroke-width:0.63px;}</style></defs><title>navy</title><rect class="a" x="18" y="18" width="814" height="818.89"/><polygon class="b" points="314 589 314 979.69 424.13 932.99 535 979.69 535 589 314 589"/><circle class="b" cx="155" cy="115" r="31"/><path class="b" d="M819.33,190.22H766.67L704,340.67H600.67V309.33H694V266.67H600v-28H702.67V190.22H547.33V244s-6.28-19-29.33-34.67c-22.5-15.33-37.33-19.11-66-19.11H372.67V360H346.33a11,11,0,0,1-11-11V241h-84v26.33h19.33a12,12,0,0,1,12,12V344a16,16,0,0,1-16,16H251.33v26.67H448.67c36,0,48.67-6.67,64.67-16.67s33.33-34,33.33-34v50.67h196L756,353.33h75.33L844,386.67h60Zm-368,148.44h-24V240h32C472,240,502,255.33,502,289.33S479.33,338.67,451.33,338.67ZM772,309.33l22-54.67,20.67,54.67H772Z" transform="translate(-152 -77)"/><circle class="c" cx="402.69" cy="687.9" r="1.11"/><circle class="c" cx="361" cy="723.89" r="1.11"/><circle class="c" cx="451.31" cy="689.56" r="1.11"/><circle class="c" cx="492.03" cy="732.76" r="1.11"/><circle class="c" cx="495.55" cy="751.58" r="1.11"/><path class="c" d="M517.73,858.11a2.85,2.85,0,0,0-.91-1.38,2.91,2.91,0,0,0-1.75.2l-9,2.72a2.24,2.24,0,0,0-1.35.78,2.6,2.6,0,0,0,0,1.61l-0.39.12-1.74-5.75,0.39-.12a2.61,2.61,0,0,0,.86,1.35,2.22,2.22,0,0,0,1.56-.1l4-1.22L507.58,850l-4,1.22a2.27,2.27,0,0,0-1.35.77,2.59,2.59,0,0,0,0,1.61l-0.38.12L500.09,848l0.39-.12a2.61,2.61,0,0,0,.87,1.36,2.24,2.24,0,0,0,1.55-.1l9.22-2.8a2.2,2.2,0,0,0,1.35-.78,2.8,2.8,0,0,0,0-1.61l0.38-.12,1.74,5.75-0.39.12a2.77,2.77,0,0,0-.91-1.39,3,3,0,0,0-1.76.21l-4,1.22L510.4,856l4.27-1.29A2.2,2.2,0,0,0,516,854a2.73,2.73,0,0,0,0-1.6l0.39-.12,1.74,5.75Z" transform="translate(-152 -77)"/><path class="c" d="M500.74,841.69a7.28,7.28,0,0,1-.53-9.84,8.16,8.16,0,0,1,11.15-.54,6.9,6.9,0,0,1,2.13,4.75,6.77,6.77,0,0,1-1.78,5.17,7.44,7.44,0,0,1-5.29,2.34A7.36,7.36,0,0,1,500.74,841.69Zm10.52-2.2a4.13,4.13,0,0,0,1.45-3.39,4.18,4.18,0,0,0-1.77-3.19q-1.67-1.27-5.16-1.08t-5,1.66a4.21,4.21,0,0,0-1.39,3.35,4.14,4.14,0,0,0,1.81,3.21A10.16,10.16,0,0,0,511.26,839.49Z" transform="translate(-152 -77)"/><path class="c" d="M512.51,828.32a2.6,2.6,0,0,0-.29-1.81,4,4,0,0,0-2.08-.77L500.75,824l-0.4.23a2.39,2.39,0,0,0-.83.67,3.16,3.16,0,0,0-.33,1l-0.4-.07,0.67-3.64,11.7-6.36-7.08-1.29a3.48,3.48,0,0,0-2.37.1,2.67,2.67,0,0,0-.72,1.43l-0.4-.07,0.92-5,0.4,0.07a2.53,2.53,0,0,0,.3,1.74,3.71,3.71,0,0,0,2.07.8l11.22,2-0.07.37L502,823.29l8.3,1.52a3.54,3.54,0,0,0,2.37-.09,2.64,2.64,0,0,0,.74-1.4l0.4,0.07-0.92,5Z" transform="translate(-152 -77)"/><path class="c" d="M515.8,812.84a3.6,3.6,0,0,0,.24-1.75,2,2,0,0,0-1.32-.92l-9-3.41a2.11,2.11,0,0,0-1.58-.18,3.08,3.08,0,0,0-1,1.46l-0.38-.14,2.28-6,0.38,0.14a3.09,3.09,0,0,0-.23,1.75,2.11,2.11,0,0,0,1.3.91l9,3.41a2,2,0,0,0,1.59.18,3.62,3.62,0,0,0,1-1.47l0.38,0.14-2.27,6Z" transform="translate(-152 -77)"/><path class="c" d="M517.8,798.47a7.82,7.82,0,0,0,2.65.23,4,4,0,0,0,3-1.81,2.64,2.64,0,0,0,.45-1.85,2.3,2.3,0,0,0-1.1-1.65,2.56,2.56,0,0,0-2-.4,13.47,13.47,0,0,0-2.41.91l-2,.89a6.62,6.62,0,0,1-1.63.51,3.33,3.33,0,0,1-2.39-.5,3.71,3.71,0,0,1-1.66-2.43,3.9,3.9,0,0,1,.71-3,5.54,5.54,0,0,1,1.3-1.28,7.48,7.48,0,0,0,1-.78,0.68,0.68,0,0,0,.15-0.57,1.37,1.37,0,0,0-.32-0.5l0.25-.37,4.1,2.18-0.29.43a4.87,4.87,0,0,0-3.36-.21,4,4,0,0,0-2,1.46,2.42,2.42,0,0,0-.43,1.58,1.75,1.75,0,0,0,.84,1.36,2.12,2.12,0,0,0,1.47.38,6.54,6.54,0,0,0,1.93-.6l2-.92a9.88,9.88,0,0,1,3.09-1,3.5,3.5,0,0,1,2.23.63,3.66,3.66,0,0,1,1.65,2.65,4.74,4.74,0,0,1-.88,3.36,6.36,6.36,0,0,1-1.49,1.53,7.85,7.85,0,0,0-1,.83,0.54,0.54,0,0,0-.09.56,1.48,1.48,0,0,0,.32.42l-0.27.39-4.19-2Z" transform="translate(-152 -77)"/><path class="c" d="M519.78,781.36a7.29,7.29,0,0,1,7.09-6.85,8.14,8.14,0,0,1,7.71,8.06,6.9,6.9,0,0,1-2.19,4.72,6.78,6.78,0,0,1-5.07,2,7.42,7.42,0,0,1-5.22-2.46A7.34,7.34,0,0,1,519.78,781.36Zm8.54,6.48a4.13,4.13,0,0,0,3.51-1.13,4.17,4.17,0,0,0,1.25-3.42q-0.13-2.09-2.56-4.6T526,776a4.21,4.21,0,0,0-3.44,1.14,4.14,4.14,0,0,0-1.24,3.47A10.12,10.12,0,0,0,528.33,787.84Z" transform="translate(-152 -77)"/><path class="c" d="M537.69,781.71a3.64,3.64,0,0,0,1.19-1.3,2,2,0,0,0-.56-1.5L532.86,771a2.1,2.1,0,0,0-1.19-1,3.08,3.08,0,0,0-1.64.64l-0.23-.33,5.29-3.64,0.23,0.33a3.08,3.08,0,0,0-1.18,1.31,2.1,2.1,0,0,0,.55,1.49l5.46,7.94a2,2,0,0,0,1.2,1.05,3.63,3.63,0,0,0,1.64-.65l0.23,0.33L537.92,782Z" transform="translate(-152 -77)"/><path class="c" d="M537.64,764.83l11.06-5.28,1.7,3.28-0.46.22a4.43,4.43,0,0,0-1.85-1.62,4,4,0,0,0-2.46.59l-1.09.52,4.78,10a2,2,0,0,0,1,1.23,3.64,3.64,0,0,0,1.72-.38l0.17,0.37-5.71,2.73-0.17-.37A3,3,0,0,0,547.7,775a2.8,2.8,0,0,0-.44-1.72l-4.67-9.79-1.09.52a4.15,4.15,0,0,0-2,1.53,3.83,3.83,0,0,0,.09,2.47l-0.48.23Z" transform="translate(-152 -77)"/><path class="c" d="M561.33,757.6a7.27,7.27,0,0,1,9.72-1.35,7.32,7.32,0,0,1,3,5.24,7.71,7.71,0,0,1-.76,4.84,6.72,6.72,0,0,1-3.92,3.17,7.37,7.37,0,0,0,3.51,2.22,10.69,10.69,0,0,0,2.89.26l0.06,0.4-0.88.12a15.25,15.25,0,0,1-3.13.14,9.48,9.48,0,0,1-2.56-.52,7.52,7.52,0,0,1-2.25-1.3,12.25,12.25,0,0,0-1.19-.92l-0.29-.09a8.74,8.74,0,0,1-3-1.51A8.22,8.22,0,0,1,561.33,757.6Zm3,10.31a4.17,4.17,0,0,0,6.54-.85q1.13-1.76.66-5.24t-2.06-4.89a4.21,4.21,0,0,0-3.45-1.12,4.14,4.14,0,0,0-3.05,2.07A10.17,10.17,0,0,0,564.37,767.91Z" transform="translate(-152 -77)"/><path class="c" d="M582.66,755.06l0,0.4a2.91,2.91,0,0,0-1.65.26,2.16,2.16,0,0,0-.51,1.49l-0.66,6.9a6.18,6.18,0,0,0,.21,2.69,3.33,3.33,0,0,0,3.11,2q2.64,0.25,3.72-1.43a7.07,7.07,0,0,0,.8-3l0.53-5.62a3.65,3.65,0,0,0-.21-2.25,2.56,2.56,0,0,0-1.55-.72l0-.4,5,0.48,0,0.4a2.48,2.48,0,0,0-1.7.45,3.91,3.91,0,0,0-.59,2.13l-0.54,5.62a7.38,7.38,0,0,1-1,3.42q-1.49,2.19-5,1.85T578,767a6.6,6.6,0,0,1-.38-3.29l0.64-6.74a2.16,2.16,0,0,0-.22-1.55,2.92,2.92,0,0,0-1.55-.58l0-.4Z" transform="translate(-152 -77)"/><path class="c" d="M591,769.93a3.63,3.63,0,0,0,1.76.09,2,2,0,0,0,.8-1.38l2.62-9.29a2.1,2.1,0,0,0,0-1.59,3.09,3.09,0,0,0-1.54-.86l0.11-.39,6.18,1.74-0.11.39a3.08,3.08,0,0,0-1.76-.07,2.1,2.1,0,0,0-.8,1.37l-2.62,9.29a2,2,0,0,0,0,1.6,3.63,3.63,0,0,0,1.55.85l-0.11.39-6.18-1.74Z" transform="translate(-152 -77)"/><path class="c" d="M604.19,774.32a2.6,2.6,0,0,0,1.77.45,4,4,0,0,0,1.53-1.61l4.88-7.32a2.2,2.2,0,0,0,.54-1.48,2.85,2.85,0,0,0-1.17-1.28l0.23-.34,3.56,2.37-1.85,11.74,10-6.29,3.58,2.39-0.22.34a2.59,2.59,0,0,0-1.54-.5,2.25,2.25,0,0,0-1.13,1.06l-5.34,8a2.22,2.22,0,0,0-.55,1.46,2.8,2.8,0,0,0,1.05,1.23l-0.22.34-5-3.36,0.22-.34a2.67,2.67,0,0,0,1.62.52,3,3,0,0,0,1.23-1.27l5.4-8.1-11.46,7.19-0.25-.16,2-12.87-4.79,7.19a3.55,3.55,0,0,0-.86,2.21,2.63,2.63,0,0,0,1,1.23l-0.22.34L604,774.65Z" transform="translate(-152 -77)"/><path class="c" d="M619.92,785.5l0.3-.26a1.76,1.76,0,0,0,1.29.54,17.34,17.34,0,0,0,3.15-.82l11-3.51,0.29,0.33-5.83,12.08a5.15,5.15,0,0,0-.59,1.65,2,2,0,0,0,.41,1.08l-0.3.26-3.59-4.19,0.3-.26a4.85,4.85,0,0,0,1,.8A0.58,0.58,0,0,0,628,793a2.58,2.58,0,0,0,.36-0.45,6.17,6.17,0,0,0,.45-0.78l1-2-3.7-4.32q-2.18.73-2.64,0.92a2.42,2.42,0,0,0-.67.36,0.77,0.77,0,0,0-.29.83,3.56,3.56,0,0,0,.53.91l-0.3.26Zm10.29,3.43,2.92-5.76-6.14,2Z" transform="translate(-152 -77)"/><path class="c" d="M630.48,797.4a3.18,3.18,0,0,0,1.09,1.18,2.13,2.13,0,0,0,1.51-.38l8.57-4.45a2.25,2.25,0,0,0,1.18-1,2.57,2.57,0,0,0-.33-1.58l0.36-.18,2.82,5.44-0.35.18a3,3,0,0,0-1.09-1.24,1.8,1.8,0,0,0-1.44.29l-9.25,4.8a1.12,1.12,0,0,0-.45.37,0.69,0.69,0,0,0,0,.59q0.08,0.23.2,0.48t0.46,0.9A10.63,10.63,0,0,0,636,806a5,5,0,0,0,3.07.63l0.25,0.49-3.82.79-5.37-10.35Z" transform="translate(-152 -77)"/><path class="c" d="M652.86,816.41l-0.39.08a3.3,3.3,0,0,0-.33-1.1,0.56,0.56,0,0,0-.65-0.26,1.26,1.26,0,0,0-.33.13,2.32,2.32,0,0,0-.48.38l-4,4,5.26,2.16a2.17,2.17,0,0,0,.55.15,1.23,1.23,0,0,0,.3,0,0.6,0.6,0,0,0,.51-0.6,3.91,3.91,0,0,0-.09-1l0.4-.08,0.89,4.65-0.39.08a2.21,2.21,0,0,0-.61-1.08,7.82,7.82,0,0,0-2.39-1.38l-5.41-2.22-4.14.8a2,2,0,0,0-1.46.69,3.71,3.71,0,0,0,0,1.86l-0.39.08-1.25-6.49,0.39-.08a3.19,3.19,0,0,0,.78,1.71,2.81,2.81,0,0,0,1.81,0l3.69-.71,3.55-3.57a25,25,0,0,0,2.32-2.55,2.08,2.08,0,0,0,.37-1.54l0.4-.08Z" transform="translate(-152 -77)"/><path class="c" d="M640.94,833.51a2.4,2.4,0,0,0,.33,1.58,3.06,3.06,0,0,0,1.67.48l9.35,1a2.28,2.28,0,0,0,1.52-.19,2.44,2.44,0,0,0,.61-1.45l0.4,0-0.59,5.68a7,7,0,0,1-1.5,4.08,3.33,3.33,0,0,1-3,1.16,3.49,3.49,0,0,1-3-1.94,7.62,7.62,0,0,1-.57-4.13c0-.23.06-0.53,0.11-0.89s0.08-.63.1-0.8l-3.92-.41a2.11,2.11,0,0,0-1.57.22,3.29,3.29,0,0,0-.58,1.63l-0.4,0,0.63-6Zm11.92,8.59a5.79,5.79,0,0,0,.64-2.27,1.51,1.51,0,0,0,0-.83,0.8,0.8,0,0,0-.57-0.21l-5.64-.59q-0.11.57-.14,0.75c0,0.12,0,.23,0,0.35a5.32,5.32,0,0,0,.18,2.38,2.93,2.93,0,0,0,2.72,1.85A2.72,2.72,0,0,0,652.85,842.09Z" transform="translate(-152 -77)"/><path class="c" d="M639.4,845.35a3.16,3.16,0,0,0-.05,1.61,2.15,2.15,0,0,0,1.35.79l9.2,2.87a2.26,2.26,0,0,0,1.55.12,2.57,2.57,0,0,0,.88-1.36l0.38,0.12-3.43,11-3-.85,0.16-.53a3.07,3.07,0,0,0,2-.24,4.6,4.6,0,0,0,1.13-2.21l0.88-2.82a0.76,0.76,0,0,0,0-.61A1,1,0,0,0,650,853l-4.62-1.44-1,3.2a2.53,2.53,0,0,0-.13,1.81,3.57,3.57,0,0,0,1.41,1.08l-0.15.48-4.78-1.49,0.15-.48a3.62,3.62,0,0,0,1.78-.1,2.55,2.55,0,0,0,.91-1.55l1-3.2-5.12-1.6a0.68,0.68,0,0,0-.85.16,13.92,13.92,0,0,0-.84,2.3,8.3,8.3,0,0,0-.51,3.25,4.41,4.41,0,0,0,1.67,2.49l-0.18.58-3.2-2L639,845.23Z" transform="translate(-152 -77)"/><path class="c" d="M635,859.3a2.59,2.59,0,0,0-.38,1.79,4,4,0,0,0,1.67,1.46l8.15,5,0.45-.07a2.41,2.41,0,0,0,1-.33,3.1,3.1,0,0,0,.65-0.77l0.34,0.21-1.94,3.17-13.17,1.71,6.13,3.75a3.46,3.46,0,0,0,2.25.75,2.69,2.69,0,0,0,1.19-1.08l0.34,0.21L639,879.42l-0.34-.21a2.51,2.51,0,0,0,.35-1.72,3.71,3.71,0,0,0-1.64-1.49l-9.73-6,0.19-.32,15.14-2-7.2-4.41a3.54,3.54,0,0,0-2.25-.77,2.64,2.64,0,0,0-1.2,1l-0.34-.21,2.66-4.34Z" transform="translate(-152 -77)"/><path class="c" d="M628.74,876.13a7.83,7.83,0,0,0-2.57-.69,4,4,0,0,0-3.31,1.26,2.64,2.64,0,0,0-.77,1.75,2.3,2.3,0,0,0,.8,1.82,2.56,2.56,0,0,0,1.86.73,13.59,13.59,0,0,0,2.53-.47l2.12-.53a6.54,6.54,0,0,1,1.69-.21,3.33,3.33,0,0,1,2.27.92,3.72,3.72,0,0,1,1.21,2.68,3.9,3.9,0,0,1-1.22,2.83,5.55,5.55,0,0,1-1.5,1,7.58,7.58,0,0,0-1.09.6,0.67,0.67,0,0,0-.25.53,1.37,1.37,0,0,0,.23.55l-0.31.32-3.66-2.87,0.36-.37a4.88,4.88,0,0,0,3.28.8,4,4,0,0,0,2.2-1.09,2.43,2.43,0,0,0,.7-1.48,1.76,1.76,0,0,0-.59-1.49,2.13,2.13,0,0,0-1.38-.63,6.56,6.56,0,0,0-2,.26l-2.17.56a9.87,9.87,0,0,1-3.21.41,3.51,3.51,0,0,1-2.09-1,3.67,3.67,0,0,1-1.16-2.91,4.76,4.76,0,0,1,1.45-3.16A6.34,6.34,0,0,1,623.9,875a8.11,8.11,0,0,0,1.14-.64,0.53,0.53,0,0,0,.19-0.53,1.44,1.44,0,0,0-.24-0.47l0.33-.34,3.77,2.74Z" transform="translate(-152 -77)"/><path class="c" d="M618.25,881.33a3.16,3.16,0,0,0-1,1.23,2.13,2.13,0,0,0,.57,1.45l5.48,7.92a2.27,2.27,0,0,0,1.15,1,2.58,2.58,0,0,0,1.53-.52l0.23,0.34-9.46,6.55-1.83-2.51,0.45-.31a3.07,3.07,0,0,0,1.74,1.06,4.6,4.6,0,0,0,2.26-1.05l2.42-1.67a0.75,0.75,0,0,0,.4-0.46,1,1,0,0,0-.24-0.54l-2.75-4-2.74,1.9a2.54,2.54,0,0,0-1.21,1.34,3.54,3.54,0,0,0,.44,1.71l-0.42.29L612.4,891l0.42-.29a3.62,3.62,0,0,0,1.46,1,2.54,2.54,0,0,0,1.67-.66l2.74-1.9-3.06-4.42a0.68,0.68,0,0,0-.77-0.4,13.76,13.76,0,0,0-2.07,1.29,8.19,8.19,0,0,0-2.4,2.24,4.45,4.45,0,0,0-.22,3l-0.5.35-1.27-3.58L618,881Z" transform="translate(-152 -77)"/><ellipse class="c" cx="553.53" cy="737.96" rx="6.02" ry="3.1" transform="translate(-280.75 40.1) rotate(-10.83)"/><path class="c" d="M542.69,899.73a5,5,0,1,0,5-5A5,5,0,0,0,542.69,899.73Zm2.26,0a2.7,2.7,0,1,1,2.7,2.7A2.71,2.71,0,0,1,545,899.73Z" transform="translate(-152 -77)"/><path class="c" d="M571.75,894.07a4.93,4.93,0,1,0,4.93-4.7A4.82,4.82,0,0,0,571.75,894.07Zm2.19,0a2.75,2.75,0,1,1,2.74,2.51A2.63,2.63,0,0,1,573.94,894.07Z" transform="translate(-152 -77)"/><path class="c" d="M571.66,937.79a5,5,0,1,0,5-5A5,5,0,0,0,571.66,937.79Zm2.26,0a2.7,2.7,0,1,1,2.7,2.7A2.71,2.71,0,0,1,573.91,937.79Z" transform="translate(-152 -77)"/><path class="c" d="M571.45,913.32a5.2,5.2,0,0,0-3.43,1.95,3.83,3.83,0,0,0,.77,5.5,5.37,5.37,0,0,0,7.27-1,4,4,0,0,0,.83-2.4,3.72,3.72,0,0,0,0-.51,3.92,3.92,0,0,0-1.56-2.59A5.21,5.21,0,0,0,571.45,913.32Zm-1.42,5.8a1.78,1.78,0,0,1-.37-2.61,3.31,3.31,0,0,1,4.38-.61,1.87,1.87,0,0,1,.76,1.22h0a1.87,1.87,0,0,1-.4,1.39A3.31,3.31,0,0,1,570,919.12Zm6.82-2.29h0Z" transform="translate(-152 -77)"/><path class="c" d="M576.65,969.32v-0.07l0,0,0,0v0c-4.91,5.11-5.15,14.61,0,16v0C581.79,983.93,581.56,974.43,576.65,969.32Z" transform="translate(-152 -77)"/><path class="d" d="M540.61,741.38c-1.1,1.36-2.33,2.72-3.39,3.84l1,2.3c6.68-2.57,18.09-6.33,35.37-7.07-3.2-1.69-6-3.15-9.33-5a54.64,54.64,0,0,1,7.38-4.7c-20.38,1.25-30.43,5.33-37.21,7.64l1.06,2.59A19.56,19.56,0,0,1,540.61,741.38Z" transform="translate(-152 -77)"/><path class="d" d="M576.27,727.14a122.57,122.57,0,0,1,44.15,8c1.57,0.6,3.69-1.25.42-2.59-17.43-6.8-34-7.94-44.07-8s-26.77,1.16-44.35,8c-3.27,1.34-1.14,3.18.42,2.59a122.65,122.65,0,0,1,43.43-8h0Z" transform="translate(-152 -77)"/><path class="d" d="M550,720.38c4.75,4.7,20.59,5.49,26.54-5.54,0-.17,0-0.31,0-0.42l0.11,0.2,0.11-.2c0,0.11,0,.25,0,0.42,5.95,11,21.79,10.24,26.54,5.54,2.35,6.68,12.62,10.09,20.14,4.2-14.29,2.76-18.54-5.89-19.48-8.71-12.74,12-27.51-.91-26.07-9.65a3.44,3.44,0,0,1-2.51-.08c1.55,8.75-13.28,21.75-26.06,9.74-0.94,2.82-5.19,11.47-19.48,8.71C537.36,730.47,547.62,727.05,550,720.38Z" transform="translate(-152 -77)"/><path class="d" d="M500.76,881.12c-1.19.82-.06,1.76,0.69,1.32s9.34-5.3,12.91-8.49C510.41,875.35,502,880.3,500.76,881.12Z" transform="translate(-152 -77)"/><path class="d" d="M595,880.22c-4.73,5.46-5.12,30.55-5.14,32.95,1,0.65,2.09,1.26,3.13,1.82,0-4.28-.47-25.52,4.74-35.81C596.87,879.52,596,879.88,595,880.22Z" transform="translate(-152 -77)"/><path class="d" d="M541.64,873.47a54.08,54.08,0,0,1-8.5-9.2l-2.52,1.55a57.22,57.22,0,0,0,9.13,9.86Z" transform="translate(-152 -77)"/><path class="d" d="M630.76,832.39a54.39,54.39,0,0,1-21.58,43.19,55.13,55.13,0,0,1-9.78,6,12.13,12.13,0,0,0-.47,1.21c-0.23.78-.44,1.57-0.64,2.37,1.33-.56,2.58-1.15,2.69-1.2a56.93,56.93,0,1,0-81.17-51.52,56.7,56.7,0,0,0,8.44,29.87l2.52-1.54A54,54,0,1,1,630.76,832.39Z" transform="translate(-152 -77)"/><path class="d" d="M569.7,735.23c2.87,1.29,4.37,2,6.92,3.23,2.56-1.27,4.06-1.94,6.93-3.23-2.38-1.37-5.13-2.81-6.92-3.9C574.84,732.42,572.08,733.86,569.7,735.23Z" transform="translate(-152 -77)"/><path class="d" d="M589,735.42c-3.29,1.88-6.14,3.34-9.33,5,17.28,0.74,28.69,4.5,35.36,7.07l1-2.3c-1.06-1.12-2.29-2.48-3.39-3.84a19.55,19.55,0,0,1,5.13-.43l1.06-2.59C612.06,736,602,732,581.63,730.72A54.63,54.63,0,0,1,589,735.42Zm4.81,1.41c0.32-1.68,3.23-2.54,6.49-1.92s5.65,2.49,5.33,4.18-3.23,2.54-6.49,1.92S593.5,738.51,593.82,736.83Z" transform="translate(-152 -77)"/><path class="d" d="M573.18,702.83a3.56,3.56,0,0,1,1.65-3,23.36,23.36,0,0,1-7.16-1.74V708a24.1,24.1,0,0,1,7.43-2.06A3.56,3.56,0,0,1,573.18,702.83Z" transform="translate(-152 -77)"/><path class="d" d="M580.33,702.83a3.56,3.56,0,0,1-1.94,3.16,24.1,24.1,0,0,1,7.22,2v-9.94a24,24,0,0,1-6.92,1.74A3.56,3.56,0,0,1,580.33,702.83Z" transform="translate(-152 -77)"/><path class="d" d="M576.76,699.26a3.56,3.56,0,0,1,1.39.28c0.17-3.72,3.63-8.32,3.63-8.32H571.49s3.54,4.71,3.63,8.44A3.53,3.53,0,0,1,576.76,699.26Z" transform="translate(-152 -77)"/><path class="d" d="M560.54,935.48a6.83,6.83,0,0,1,2.73,3.61V927.66c-0.91-.38-1.82-0.77-2.73-1.19v9Z" transform="translate(-152 -77)"/><path class="d" d="M569.35,883c-2.63,2.24-3.49,7-3.68,9.72,7.25,7.16,15,14.52,22.85,19.63,0-2.85,0-24.54,4.54-31.45A55.13,55.13,0,0,1,569.35,883Z" transform="translate(-152 -77)"/><path class="d" d="M582.21,948.81c-1.41-4.86,2.92-7.15,6.25-4.67v-12a54.1,54.1,0,0,1-23.79-3.92v16c3.35-2.63,7.8-.34,6.38,4.58-4.33-1-6.71,4.21-6.75,9.12,0,3.35,1.2,6.5,3,7.68A5,5,0,0,0,575,962.5c0.79-4.64-5.2-5.94-5.31-1.71-4.55-3.14.33-9.86,3.9-5.52a7.87,7.87,0,0,1,3-8h0l0,0v0a7.87,7.87,0,0,1,3,8c3.57-4.33,8.45,2.38,3.9,5.52-0.11-4.23-6.1-2.92-5.31,1.71a5,5,0,0,0,7.77,3.09c1.76-1.17,3-4.33,3-7.68C588.92,953,586.54,947.83,582.21,948.81Z" transform="translate(-152 -77)"/><path class="d" d="M620.71,909.85a86,86,0,0,1-18.59,7.94C607.57,918.33,616,917.7,620.71,909.85Z" transform="translate(-152 -77)"/><path class="d" d="M589.87,939.51a6.92,6.92,0,0,1,3-4.08v-3.86q-1.48.28-3,.45v7.5Z" transform="translate(-152 -77)"/><path class="d" d="M576.74,746.35a86.11,86.11,0,0,0-73.32,131.1l2.12-1.29a83.47,83.47,0,1,1,90.18,37.64c0,0.91,0,1.77,0,2.55h0a84.12,84.12,0,0,0,17.07-5.86A86.06,86.06,0,0,0,576.74,746.35Z" transform="translate(-152 -77)"/><path class="d" d="M606,920.52c-28.09,3.17-42-24.5-63.23-40.1l-15.19,17.74c4.82,3.44,14,11.18,25.07,18,14.61,9,32.7,16.21,49.62,8.65-16.62,8.83-35.4,1.81-50.5-7.21-11.44-6.84-20.8-14.75-25.26-18.19l-1.47,1.71c15.21,12,56.95,46.52,87.8,18.09a31.17,31.17,0,0,1-3.52,1A25.83,25.83,0,0,1,606,920.52Z" transform="translate(-152 -77)"/><path class="d" d="M599.27,919.85c-18.15-4.16-34-26.28-53.55-42.79l-1.94,2.22C565.46,895,577,917.63,599.27,919.85Z" transform="translate(-152 -77)"/><path class="d" d="M565.31,882.37c-2.81.63-3.41,5.86-3.48,6.51l2.26,2.25c0.23-1.77,1.08-6.73,3.39-8.41C566.76,882.62,566,882.5,565.31,882.37Z" transform="translate(-152 -77)"/><path class="d" d="M658.71,832.41a82,82,0,1,0-151.89,43l9.23-5.64c-0.22-.41-0.41-0.78-0.56-1.1-0.39-.8-0.28-1.78.88-1.25a20.85,20.85,0,0,1,1.89,1l8.71-5.32a58.4,58.4,0,1,1,73.73,22.65c-1.15.52-2.1,0.92-2.84,1.21-1.91,8.72-2.21,18.49-2.16,25.48,4.59-1.29,5.17-1.66,7.25-2.28A81.76,81.76,0,0,0,658.71,832.41Z" transform="translate(-152 -77)"/><path class="d" d="M559.12,883.88a38.29,38.29,0,0,1-3.69-1.28c1,1,2.09,2,3.17,3.09A8.57,8.57,0,0,1,559.12,883.88Z" transform="translate(-152 -77)"/><path class="d" d="M522.45,895.89a83.88,83.88,0,0,1-14.52-16.07l-2.11,1.31a86.39,86.39,0,0,0,15,16.64Z" transform="translate(-152 -77)"/><path class="d" d="M520.57,901.21c-1.22,1.32.47,2.63,1.6,1.32s16-18,16.27-20C533.55,886.91,521.79,899.89,520.57,901.21Z" transform="translate(-152 -77)"/><ellipse class="c" cx="599.73" cy="737.63" rx="3.1" ry="6.02" transform="translate(-389.43 1111.11) rotate(-79.17)"/><path class="c" d="M532.32,860c1.6-.85,3-0.83,3.76.52,0.47,0.8,5.74,9,5.92,9.78a1.65,1.65,0,0,1-.38,1.74c-1.41-2.35-5.22-8.42-5.83-9.4C535,861.38,534.11,859.88,532.32,860Z" transform="translate(-152 -77)"/><path class="c" d="M619.26,753.84c1.62-.85,2.72-3.4.11-4.8-0.26-.14-0.47-0.19-0.91-0.38l0.48-1.21c0.94-.42,3.94-2.15,2.81-6.68l0.82-1.95c3.81-.41,6.75-5.57,1.61-8.31,3.46-5.42,6.62-9.85,9.42-13.47a2.39,2.39,0,0,0,2.44-.42,2.2,2.2,0,0,0,.54-3.05l-0.11-.11c6.43-7.75,10.28-10.44,10.28-10.44a57.16,57.16,0,0,0-13.17-5.92,25.18,25.18,0,0,1-1.69,13.73s-2.82-5.77-2.69-11c-0.38,1-6,10.16-9.4,15.67a20.91,20.91,0,0,1,9.56-1.25c-10.06,15-23.14,3.95-21.73-1,2.63,0.44,3.56-3.15.36-3.71,0.24-4.28,4.23-5.2,6.33-3.39a4.21,4.21,0,0,1-1.16,7c5.55,1.76,9.73-3.89,8.16-9-1.28-4.22-8-8-13.63,1.24,0.88-6.27,4.45-7.77,6-10.78s-3.39-8.78-4.26-11.16c-1.76,2.1-7.63,5.52-7.48,8.81s3.54,5.55,2.42,12.38c-2.23-9.22-8.49-9.1-11.23-6.71-5.89,5.14-1.07,12.91,3.54,12.41a4.19,4.19,0,0,1-.62-5.43c1.72-3.09,7.91-2.61,6.8,3.63-3.67-.31-3.07,3.57-0.85,3.65-1.6,6-15.6,8.4-20.67-2.88,2.71,0.27,7.26,3.39,7.26,3.39V693.46s-4.77,2.51-6.9,2.88c1.88-5.08,6.72-8.84,6.72-8.84H564.81s4.84,3.76,6.72,8.84c-2.13-.38-6.9-2.88-6.9-2.88v19.12s4.54-3.12,7.26-3.39c-5.06,11.28-19.07,8.93-20.66,2.88,2.23-.08,2.82-4-0.85-3.65-1.11-6.24,5.08-6.72,6.8-3.63a4.19,4.19,0,0,1-.62,5.43c4.61,0.5,9.44-7.27,3.54-12.41-2.74-2.39-9-2.51-11.23,6.71-1.12-6.83,2.26-9.09,2.42-12.38s-5.72-6.71-7.48-8.81c-0.88,2.38-5.83,8.15-4.26,11.16s5.14,4.51,6,10.78c-5.66-9.23-12.35-5.45-13.63-1.24-1.56,5.12,2.62,10.77,8.17,9a4.21,4.21,0,0,1-1.16-7c2.1-1.81,6.1-.89,6.33,3.39-3.2.56-2.27,4.15,0.36,3.71,1.41,5-11.67,16-21.73,1a20.91,20.91,0,0,1,9.56,1.25c-3.39-5.52-9-14.67-9.4-15.67,0.13,5.27-2.69,11-2.69,11a25.18,25.18,0,0,1-1.69-13.73A57.16,57.16,0,0,0,506.51,703s3.85,2.69,10.28,10.44l-0.11.11a2.2,2.2,0,0,0,.54,3.05,2.39,2.39,0,0,0,2.44.42c2.8,3.61,6,8.05,9.42,13.47-5.14,2.75-2.21,7.9,1.61,8.31l0.82,1.95c-1.13,4.53,1.87,6.26,2.81,6.68l0.48,1.21c-0.44.19-.65,0.24-0.91,0.38-2.67,1.43-1.46,4.07.22,4.86a89.14,89.14,0,0,0-33.26,124.78c-1.65,1-2.34,1.86-2,2.67s6,9.91,6.52,10.66,2.43,0.88,3.6-.2c-1.43-2.32-3.42-5.83-4.23-7.28a89.58,89.58,0,0,0,14.11,15.2l-0.57.66a1.3,1.3,0,0,0,0,2,9.65,9.65,0,0,0,1.9,1.75c1.3,0.95,2.41-.51,2.41-0.51l0.66-.77c6.66,5.41,19.47,15.56,34.35,22.31v9.17c-1.86.13-3.48,1.51-3.68,4.13,1.59-.51,3.6.8,3.62,4.35,0,5.33.06,12.19,0.06,18.12,0,5,4.73,10.65,12.31,13.14,0.1-.32.21-0.62,0.32-0.92-1.5-.53-6.86-2.66-8.31-6.32a22.76,22.76,0,0,0,8.92,4.79c2.31-5.18,5.46-6.72,5.76-6.85,0,0,3.36,1.46,5.78,6.87a22.77,22.77,0,0,0,8.92-4.79c-1.45,3.66-6.81,5.79-8.31,6.32,0.11,0.3.22,0.6,0.32,0.92,7.58-2.49,12.48-8.13,12.42-13.14-0.07-6,0-12.85.07-18.13,0-3.54,1.9-4.85,3.5-4.34-0.2-2.57-1.75-3.94-3.57-4.12V931c7.5-1.92,14.94-5.58,22.2-14.7a17.27,17.27,0,0,0,6.18-8.81A89.05,89.05,0,0,0,619.26,753.84Zm-1.49-13.23a19.55,19.55,0,0,0-5.13.43c1.1,1.36,2.33,2.72,3.39,3.84l-1,2.3c-6.68-2.57-18.09-6.33-35.36-7.07,3.2-1.69,6-3.15,9.33-5a54.64,54.64,0,0,0-7.38-4.7c20.38,1.25,30.43,5.33,37.21,7.64Zm-41.15-2.48c-2.55-1.27-4.06-1.93-6.92-3.23,2.38-1.37,5.14-2.82,6.93-3.91,1.79,1.09,4.55,2.53,6.92,3.9C580.69,736.2,579.18,736.86,576.63,738.13Zm9-40.38v9.94a24.1,24.1,0,0,0-7.22-2,3.55,3.55,0,0,0,.29-6.17A24,24,0,0,0,585.6,697.76Zm-14.11-6.86h10.28s-3.45,4.6-3.63,8.32a3.5,3.5,0,0,0-3,.13C575,695.6,571.49,690.9,571.49,690.9Zm-3.83,16.81v-9.94a23.36,23.36,0,0,0,7.16,1.74,3.55,3.55,0,0,0,.26,6.14A24.1,24.1,0,0,0,567.66,707.71Zm-37.83,16.54c14.29,2.76,18.54-5.89,19.48-8.71,12.78,12,27.6-1,26.06-9.74a3.44,3.44,0,0,0,2.51.08c-1.44,8.74,13.33,21.63,26.07,9.65,0.94,2.82,5.19,11.47,19.48,8.71-7.52,5.89-17.79,2.48-20.14-4.2-4.75,4.7-20.59,5.49-26.54-5.54,0-.16,0-0.31,0-0.42l-0.11.2-0.11-.2c0,0.11,0,.25,0,0.42-6,11-21.79,10.24-26.54,5.54C547.62,726.72,537.36,730.14,529.83,724.25Zm3,10.61c-1.57.6-3.69-1.25-.42-2.59,17.58-6.86,34.26-8,44.35-8s26.65,1.22,44.07,8c3.27,1.34,1.15,3.18-.42,2.59a122.57,122.57,0,0,0-44.15-8h0A122.66,122.66,0,0,0,532.84,734.86Zm1.58,3.17c6.78-2.31,16.82-6.38,37.21-7.64a54.64,54.64,0,0,0-7.38,4.7c3.29,1.88,6.14,3.34,9.33,5-17.28.74-28.69,4.5-35.37,7.07l-1-2.3c1.06-1.12,2.29-2.48,3.39-3.84a19.56,19.56,0,0,0-5.13-.43Zm-33,144.08c-0.75.44-1.88-.5-0.69-1.32s9.65-5.77,13.6-7.18C510.79,876.81,502.2,881.66,501.45,882.1ZM543,869c-2.31-3.25-4.62-7.72-6.39-10.16-1.2-1.65-4.5.78-5.51-1a52.48,52.48,0,1,1,98.23-25.7,51.61,51.61,0,0,1-28.92,46.78c-1,.5.95-2.72-0.52-2.26-5,1.59-12,4.89-22.71,4.89a75,75,0,0,1-12.65-.89c-1.17-.23-1.69,2.14-2.82,1.83A44.26,44.26,0,0,1,543.8,873C542.79,872.15,544,870.41,543,869Zm-26.66,1,0.12,0.09c1.55,2.82,4.07,6.78,5.6,7.26,2,0.63,4.14,0,3.39-3a2.09,2.09,0,0,0-.14-0.36,2.66,2.66,0,0,1,.07,4.31,4.16,4.16,0,0,1-6.52-2.57c-0.44,4.64,5.48,7.4,8.59,3.57,3.25-4-.45-8.56-4.59-8l-0.68-.55,7.2-4.43a58.71,58.71,0,0,0,9.44,10.22l-15.35,17.93a82.37,82.37,0,0,1-14.21-15.72l8-5A8.74,8.74,0,0,1,516.29,870Zm12-8a56.91,56.91,0,1,1,105.35-29.87A57.34,57.34,0,0,1,601,883.6c-0.11.05-1.37,0.64-2.69,1.2,0.2-.8.41-1.6,0.64-2.37a12.13,12.13,0,0,1,.47-1.21,55.13,55.13,0,0,0,9.78-6,54,54,0,1,0-78.41-14.84Zm2.37,3.53,2.52-1.55a54.08,54.08,0,0,0,8.5,9.2l-1.89,2.21A57.23,57.23,0,0,1,530.63,865.48ZM593,914.66c-1-.56-2.09-1.17-3.13-1.82,0-2.4.41-27.49,5.14-32.95,1-.35,1.89-0.7,2.73-1C592.5,889.13,592.93,910.37,593,914.66ZM588.52,912c-7.81-5.11-15.6-12.47-22.85-19.63,0.19-2.75,1-7.48,3.68-9.72a55.13,55.13,0,0,0,23.71-2.1C588.49,887.46,588.5,909.15,588.52,912ZM564.09,890.8l-2.26-2.25c0.07-.65.67-5.88,3.48-6.51,0.73,0.13,1.46.25,2.17,0.35C565.17,884.07,564.32,889,564.09,890.8Zm-5-7.26a8.57,8.57,0,0,0-.52,1.81c-1.07-1.06-2.13-2.09-3.17-3.09A38.3,38.3,0,0,0,559.12,883.55Zm-13.39-6.81c19.54,16.5,35.4,38.63,53.55,42.79C577,917.3,565.46,894.72,543.78,879Zm52.14,9.87c0.74-.29,1.69-0.7,2.84-1.21A58.41,58.41,0,1,0,527,862.74l-8.71,5.32a20.85,20.85,0,0,0-1.89-1c-1.16-.52-1.26.45-0.88,1.25,0.15,0.31.34,0.69,0.56,1.1L506.82,875a82,82,0,1,1,96.13,34.76c-2.07.62-2.65,1-7.25,2.28C595.65,905.1,596,895.33,597.87,886.6Zm-92-5.8,2.11-1.31a83.88,83.88,0,0,0,14.52,16.07l-1.61,1.88A86.39,86.39,0,0,1,505.82,880.8Zm16.35,21.4c-1.13,1.32-2.82,0-1.6-1.32s13-14.29,17.87-18.71C538.16,884.23,523.3,900.88,522.17,902.2Zm41.09,36.57a6.83,6.83,0,0,0-2.73-3.61v-9c0.9,0.42,1.81.81,2.73,1.19v11.44ZM586,965.28a5,5,0,0,1-7.77-3.09c-0.79-4.64,5.2-5.94,5.31-1.71,4.55-3.14-.33-9.86-3.9-5.52a7.87,7.87,0,0,0-3-8v0l0,0h0a7.87,7.87,0,0,0-3,8c-3.57-4.33-8.45,2.38-3.9,5.52,0.11-4.23,6.1-2.92,5.31,1.71a5,5,0,0,1-7.77,3.09c-1.76-1.17-3-4.33-3-7.68,0-4.9,2.42-10.1,6.75-9.12,1.43-4.92-3-7.21-6.38-4.58v-16a54.1,54.1,0,0,0,23.79,3.92v12c-3.34-2.48-7.66-.19-6.25,4.67,4.33-1,6.71,4.21,6.75,9.12C589,961,587.77,964.1,586,965.28Zm6.83-30.19a6.92,6.92,0,0,0-3,4.08v-7.5q1.49-.17,3-0.45v3.86Zm-67.78-34.3,1.47-1.71c4.46,3.44,13.82,11.36,25.26,18.19,15.1,9,33.88,16,50.5,7.21-16.92,7.56-35,.32-49.62-8.65-11.1-6.82-20.26-14.56-25.07-18l15.19-17.74c21.18,15.6,35.14,43.26,63.23,40.1a25.83,25.83,0,0,0,3.33-.32,31.16,31.16,0,0,0,3.52-1C582,947.31,540.28,912.75,525.06,900.79Zm77.05,16.67a86,86,0,0,0,18.59-7.94C616,917.37,607.57,918,602.12,917.46Zm10.74-7.29A84.12,84.12,0,0,1,595.79,916h0c0-.78,0-1.65,0-2.55a83.51,83.51,0,1,0-90.18-37.64l-2.12,1.29A86,86,0,1,1,612.86,910.17Z" transform="translate(-152 -77)"/><path class="d" d="M560.86,836.15c-3.84,1.84-3.9,2.76-3.9,2.76s1,0.66,5.52-.11S566.23,833.57,560.86,836.15Z" transform="translate(-152 -77)"/><path class="d" d="M581.1,864.93c-4.17-1.29-4.84-1.08-7.77.39-3.24,1.63-11.24-.27-5.64-7.59-8.57,3.3-3.58,12.75,4.21,10.51,5.14-1.15,5.48-1.94,10.57-.45,7.19,2.11,13.12-7.32,3.08-10.31C590.29,861,588.26,867.23,581.1,864.93Z" transform="translate(-152 -77)"/><path class="d" d="M593.49,803.63c1.45,2.94,1.85,3.51,6,5,7.1,2.48,5,8.65-.94,8.64,9.81,3.66,10.77-7.43,3.76-10.09-5-1.88-4.75-2.72-8.15-6.73-4.86-6.49-14.54-2-9.7,5.84C584.37,797.07,591.89,800.38,593.49,803.63Z" transform="translate(-152 -77)"/><path class="d" d="M547.07,846.74c-0.11-4.37-.53-4.93-2.86-7.23-2.58-2.55-3.34-10.74,5.39-7.77-5.87-7.06-13.22.69-8.61,7.36,2.73,4.5,3.59,4.57,3.81,9.86,0.31,7.49,11.13,10.08,10.76-.38C553.7,854.2,547.17,854.26,547.07,846.74Z" transform="translate(-152 -77)"/><path class="d" d="M568.76,806.54c4.84-7.8-4.84-12.33-9.7-5.84-3.41,4-3.2,4.86-8.15,6.73-7,2.66-6,13.75,3.76,10.09-5.93,0-8-6.15-.94-8.64,4.11-1.49,4.51-2.06,6-5C561.29,800.63,568.81,797.32,568.76,806.54Z" transform="translate(-152 -77)"/><path class="d" d="M576.8,853.22s0.95-.8,1.54-5.31-3.88-5.13-3,.76C575.95,852.89,576.8,853.22,576.8,853.22Z" transform="translate(-152 -77)"/><path class="d" d="M568.19,818.41c-3.11-2.91-4-2.63-4-2.63s-0.24,1.22,2.1,5.11S572.54,822.48,568.19,818.41Z" transform="translate(-152 -77)"/><path class="d" d="M603.68,831.55c8.73-3,8,5.22,5.39,7.77-2.33,2.31-2.75,2.86-2.86,7.23-0.11,7.52-6.63,7.46-8.49,1.84-0.37,10.46,10.45,7.87,10.76.38,0.22-5.29,1.08-5.36,3.81-9.86C616.9,832.24,609.55,824.49,603.68,831.55Z" transform="translate(-152 -77)"/><path class="d" d="M589,815.64s-1.24.08-4.39,3.36,0.09,6.43,2.88,1.18C589.54,816.41,589,815.64,589,815.64Z" transform="translate(-152 -77)"/><path class="d" d="M592,835.69c-4-1.86-6,2.19-.17,3.11,4.21,0.65,4.78-.07,4.78-0.07S596.14,837.6,592,835.69Z" transform="translate(-152 -77)"/><ellipse class="d" cx="424.73" cy="755.31" rx="10.67" ry="10.69"/><path class="e" d="M610.14,825.45c-2.75-.91-5.79-0.1-8.54,2-6.09,3.48-7-1-7-1s-1.79-4.32,5.45-4.75c3.2,0,5.94-1.08,7.59-3.27,3.62-4.85.53-13.29-6.91-18.86s-16.42-6.15-20-1.3a8.79,8.79,0,0,0-1.22,7.3l0,0,0,0.06c0.08,0.35.17,0.7,0.27,1,0.5,2.22,1.1,7-3,7s-3.69-4.49-3.15-7.22c0.12-.43.34-1.71,0.31-1.63a8.41,8.41,0,0,0-1.41-6.27c-3.63-4.85-12.6-4.26-20,1.3s-10.54,14-6.91,18.86c1.83,2.45,5,3.51,8.71,3.24,4.57,0.46,5.11,3.27,4.69,4.63-0.82,2.68-3.58,3.16-7.29,1.07-2.74-2-5.78-2.85-8.52-1.94-5.75,1.91-8,10.61-5.1,19.43s10,14.43,15.71,12.53c2.57-.85,4.43-3.06,5.46-6,2.14-5,4.47-5.41,6.4-4.27,2.57,1.53,1.76,4.64-1.6,7.46-2.56,1.91-4.12,4.4-4.14,7.14,0,6.05,7.48,11,16.78,11.05s16.86-4.82,16.89-10.87c0-2.82-1.61-5.4-4.29-7.36-4.57-3.91-2.56-6.41-1.42-7.18,0.85-.58,3.85-2.06,6.15,3.47,1,3.15,2.91,5.51,5.58,6.39,5.75,1.91,12.78-3.7,15.71-12.53S615.89,827.36,610.14,825.45ZM562.49,838.8c-4.48.77-5.52,0.11-5.52,0.11s0.06-.92,3.9-2.76C566.23,833.57,566.86,838,562.49,838.8Zm1.72-23s0.88-.27,4,2.63c4.35,4.07.4,6.28-1.89,2.48S564.2,815.78,564.2,815.78Zm14.14,32.14c-0.6,4.51-1.54,5.31-1.54,5.31s-0.86-.33-1.48-4.55C574.47,842.79,578.93,843.52,578.35,847.92ZM576.73,843a10.69,10.69,0,1,1,10.67-10.69A10.68,10.68,0,0,1,576.73,843Zm10.82-22.83c-2.8,5.26-6,2-2.88-1.18s4.39-3.36,4.39-3.36S589.54,816.41,587.54,820.17Zm4.3,18.63c-5.88-.92-3.86-5,0.17-3.11s4.61,3,4.61,3S596.05,839.46,591.84,838.8Z" transform="translate(-152 -77)"/><path class="f" d="M576.73,807.37c-0.56-3.2-.56-11-6.57-14.15a4.28,4.28,0,0,1,3.73-.47c0.24-2.16,1-5.2,2.85-7,1.69,0.88,2.77,4.94,2.88,6.93a4.18,4.18,0,0,1,3.73.47C577.31,796.36,577.17,804.21,576.73,807.37Z" transform="translate(-152 -77)"/><path class="f" d="M552.74,824.8c-3.22-.45-10.72-2.76-15.54,2a4.29,4.29,0,0,1,.71-3.69c-2-.89-4.63-2.59-5.73-4.87,1.36-1.34,5.55-1.1,7.48-.6a4.18,4.18,0,0,1,1.6-3.4C542.4,821,549.86,823.41,552.74,824.8Z" transform="translate(-152 -77)"/><path class="f" d="M600.38,824.63c2.85-1.55,10.31-4.06,11.35-10.75a4.28,4.28,0,0,1,1.63,3.39c2.13-.46,5.27-0.66,7.5.51-0.3,1.88-3.81,4.18-5.66,4.93a4.18,4.18,0,0,1,.73,3.69C611,821.65,603.52,824,600.38,824.63Z" transform="translate(-152 -77)"/><path class="f" d="M562,852.35c-1.45,2.9-6.12,9.24-3.14,15.31a4.28,4.28,0,0,1-3.28-1.85c-1.48,1.59-3.86,3.66-6.37,4-0.84-1.71.65-5.72,1.74-7.38a4.18,4.18,0,0,1-2.71-2.6C555,860.89,559.76,854.63,562,852.35Z" transform="translate(-152 -77)"/><path class="f" d="M591.3,852.18c2.32,2.27,6.93,8.65,13.63,7.67a4.28,4.28,0,0,1-2.76,2.56c1.07,1.89,2.19,4.83,1.74,7.32-1.89.27-5.13-2.4-6.38-4a4.18,4.18,0,0,1-3.3,1.79C597.29,861.46,592.78,855,591.3,852.18Z" transform="translate(-152 -77)"/><path class="c" d="M576.77,821.68a10.63,10.63,0,1,0,10.63,10.63A10.63,10.63,0,0,0,576.77,821.68Zm-9.41,10.75a2,2,0,1,1,2,2A2,2,0,0,1,567.36,832.43Zm4.16,7.23a2,2,0,1,1,2-2A2,2,0,0,1,571.52,839.65Zm0.07-10.52a2,2,0,1,1,2-2A2,2,0,0,1,571.59,829.13Zm5.13,12.73a2,2,0,1,1,2-2A2,2,0,0,1,576.71,841.86Zm0-7.41a2,2,0,1,1,2-2A2,2,0,0,1,576.74,834.45Zm0-7.42a2,2,0,1,1,2-2A2,2,0,0,1,576.76,827Zm5.21-1.9a2,2,0,1,1-2,2A2,2,0,0,1,582,825.13Zm0.09,14.44a2,2,0,1,1,2-2A2,2,0,0,1,582.07,839.58Zm2-5.18a2,2,0,1,1,2-2A2,2,0,0,1,584.09,834.4Z" transform="translate(-152 -77)"/><path class="c" d="M608.47,848.53c-0.3,7.49-11.13,10.08-10.76-.38,1.86,5.62,8.38,5.69,8.49-1.84,0.11-4.37.53-4.93,2.86-7.23,2.58-2.55,3.34-10.74-5.39-7.77,5.87-7.06,13.22.69,8.61,7.36-2.73,4.5-3.59,4.57-3.81,9.86" transform="translate(-152 -77)"/><path class="c" d="M602.32,807.18c7,2.58,6.19,13.69-3.66,10.13,5.92,0,8-6.24.85-8.65-4.13-1.44-4.53-2-6-4.94-1.64-3.24-9.2-6.47-9.05,2.75-4.92-7.75,4.71-12.37,9.64-5.94,3.45,4,3.25,4.82,8.22,6.65" transform="translate(-152 -77)"/><path class="c" d="M544.78,848.94c0.31,7.49,11.14,10.08,10.76-.38-1.86,5.62-8.38,5.69-8.49-1.84-0.11-4.37-.53-4.93-2.86-7.23-2.58-2.55-3.34-10.74,5.39-7.77-5.87-7.06-13.23.69-8.61,7.36,2.73,4.5,3.59,4.57,3.81,9.86" transform="translate(-152 -77)"/><path class="c" d="M582.47,867.85c7.2,2.1,13.11-7.34,3.07-10.32,4.74,3.55,2.72,9.76-4.45,7.47-4.18-1.29-4.84-1.07-7.77.41-3.24,1.63-11.24-.25-5.65-7.59-8.56,3.32-3.56,12.76,4.23,10.51,5.14-1.15,5.48-1.95,10.56-.47" transform="translate(-152 -77)"/><path class="c" d="M550.91,807.19c-7,2.66-6,13.75,3.76,10.09-5.92,0-8-6.15-.95-8.64,4.11-1.49,4.51-2.06,6-5,1.6-3.26,9.13-6.57,9.08,2.65,4.84-7.8-4.84-12.33-9.7-5.84-3.4,4-3.2,4.86-8.15,6.74" transform="translate(-152 -77)"/><path class="b" d="M269.25,438.68h-14.4v-2.83h31.86v2.83h-14.4v38.47h-3.07V438.68Z" transform="translate(-152 -77)"/><path class="b" d="M298.69,435.85h3.07V455h26.43V435.85h3.07v41.3h-3.07V457.8H301.76v19.35h-3.07v-41.3Z" transform="translate(-152 -77)"/><path class="b" d="M346.18,435.85h29.38v2.83H349.25V454.9h23.66v2.83H349.25v16.58h26.61v2.83H346.18v-41.3Z" transform="translate(-152 -77)"/><path class="b" d="M408.72,435.85h13.75c13,0,22,8.91,22,20.53v0.12c0,11.62-9,20.65-22,20.65H408.72v-41.3Zm13.75,38.47c11.51,0,18.76-7.85,18.76-17.7V456.5c0-9.79-7.26-17.82-18.76-17.82H411.79v35.64h10.68Z" transform="translate(-152 -77)"/><path class="b" d="M456.86,460V435.85h3.07v23.84c0,9.74,5.25,15.34,14,15.34,8.38,0,13.75-5.07,13.75-15V435.85h3.07v23.78c0,11.86-6.9,18.17-16.93,18.17S456.86,471.54,456.86,460Z" transform="translate(-152 -77)"/><path class="b" d="M505,435.85h3.07V463l26.32-27.14h4.19l-18.06,18.23,18.82,23.07h-4l-17-20.89-10.27,10.39v10.5H505v-41.3Z" transform="translate(-152 -77)"/><path class="b" d="M549.85,435.85h29.38v2.83H552.92V454.9h23.66v2.83H552.92v16.58h26.61v2.83H549.85v-41.3Z" transform="translate(-152 -77)"/><path class="b" d="M610.56,456.62V456.5c0-11.27,8.32-21.36,20.83-21.36s20.71,10,20.71,21.24c0.06,0.06.06,0.06,0,.12,0,11.27-8.32,21.36-20.83,21.36S610.56,467.89,610.56,456.62Zm38.35,0V456.5c0-10.21-7.43-18.59-17.64-18.59s-17.52,8.26-17.52,18.47v0.12c0,10.21,7.43,18.59,17.64,18.59S648.91,466.82,648.91,456.62Z" transform="translate(-152 -77)"/><path class="b" d="M665.19,435.85h29.09v2.83h-26v16.93h23.37v2.83H668.26v18.7h-3.07v-41.3Z" transform="translate(-152 -77)"/><path class="b" d="M740.36,460.8l-17.7-25h3.84L742,458l15.52-22.19h3.66l-17.7,24.9v16.4h-3.07V460.8Z" transform="translate(-152 -77)"/><path class="b" d="M766.43,456.62V456.5c0-11.27,8.32-21.36,20.83-21.36s20.71,10,20.71,21.24c0.06,0.06.06,0.06,0,.12,0,11.27-8.32,21.36-20.83,21.36S766.43,467.89,766.43,456.62Zm38.35,0V456.5c0-10.21-7.43-18.59-17.64-18.59s-17.52,8.26-17.52,18.47v0.12c0,10.21,7.43,18.59,17.64,18.59S804.79,466.82,804.79,456.62Z" transform="translate(-152 -77)"/><path class="b" d="M821.07,435.85h17.35c5.07,0,9.15,1.59,11.62,4.07a10.89,10.89,0,0,1,3.13,7.67v0.12c0,6.9-5.13,10.86-12.1,11.8l13.63,17.64h-3.89L837.65,460H824.13v17.11h-3.07v-41.3Zm17,21.42c6.9,0,12-3.48,12-9.44v-0.12c0-5.55-4.37-9-11.86-9h-14.1v18.59h13.92Z" transform="translate(-152 -77)"/><path class="b" d="M866.38,435.85h3.07V463l26.32-27.14H900L881.9,454.08l18.82,23.07h-4l-17-20.89-10.27,10.39v10.5h-3.07v-41.3Z" transform="translate(-152 -77)"/><path class="b" d="M251.37,504.7h9.09V546h-9.09V504.7Z" transform="translate(-152 -77)"/><path class="b" d="M275.38,504.7h8.38l19.35,25.43V504.7h9V546h-7.73l-20-26.26V546h-9V504.7Z" transform="translate(-152 -77)"/><path class="b" d="M323.76,540l5.37-6.43c3.72,3.07,7.61,5,12.33,5,3.72,0,6-1.48,6-3.89v-0.12c0-2.3-1.42-3.48-8.32-5.25-8.32-2.12-13.69-4.43-13.69-12.63v-0.12c0-7.49,6-12.45,14.46-12.45a23.91,23.91,0,0,1,15.34,5.25l-4.72,6.84c-3.66-2.54-7.26-4.07-10.74-4.07s-5.31,1.59-5.31,3.6v0.12c0,2.71,1.77,3.6,8.91,5.43,8.38,2.18,13.1,5.19,13.1,12.39v0.12c0,8.2-6.25,12.8-15.16,12.8A26.29,26.29,0,0,1,323.76,540Z" transform="translate(-152 -77)"/><path class="b" d="M369,504.7h16.88c9.85,0,15.81,5.84,15.81,14.28v0.12c0,9.56-7.43,14.52-16.7,14.52H378V546H369V504.7Zm16.29,20.83c4.54,0,7.2-2.71,7.2-6.25v-0.12c0-4.07-2.83-6.25-7.38-6.25h-7v12.63h7.2Z" transform="translate(-152 -77)"/><path class="b" d="M413.38,504.7h9.09V546h-9.09V504.7Z" transform="translate(-152 -77)"/><path class="b" d="M437.4,504.7h18.88c5.25,0,9.32,1.48,12,4.19a13,13,0,0,1,3.54,9.44v0.12c0,6.67-3.6,10.86-8.85,12.8L473.09,546H462.47l-8.85-13.22h-7.14V546H437.4V504.7Zm18.29,20.06c4.43,0,7-2.36,7-5.84V518.8c0-3.89-2.71-5.9-7.14-5.9h-9v11.86h9.2Z" transform="translate(-152 -77)"/><path class="b" d="M485.07,504.7h9.09V546h-9.09V504.7Z" transform="translate(-152 -77)"/><path class="b" d="M509.08,504.7h8.38l19.35,25.43V504.7h9V546h-7.73l-20-26.26V546h-9V504.7Z" transform="translate(-152 -77)"/><path class="b" d="M558.46,525.47v-0.12A21.2,21.2,0,0,1,580.12,504c7.43,0,11.92,2,16.23,5.66l-5.72,6.9c-3.19-2.66-6-4.19-10.8-4.19-6.61,0-11.86,5.84-11.86,12.86v0.12c0,7.55,5.19,13.1,12.51,13.1A14.5,14.5,0,0,0,589,536v-5.9h-9.15v-7.85h17.94v17.94a26.81,26.81,0,0,1-17.64,6.55C567.31,546.71,558.46,537.68,558.46,525.47Z" transform="translate(-152 -77)"/><path class="b" d="M633.45,504.7h16.11c13,0,22,8.91,22,20.53v0.12c0,11.62-9,20.65-22,20.65H633.45V504.7Zm16.11,33.1c7.43,0,12.45-5,12.45-12.33v-0.12c0-7.32-5-12.45-12.45-12.45h-7v24.9h7Z" transform="translate(-152 -77)"/><path class="b" d="M684.6,504.7h9.09V546H684.6V504.7Z" transform="translate(-152 -77)"/><path class="b" d="M706.79,525.47v-0.12A21.2,21.2,0,0,1,728.44,504c7.43,0,11.92,2,16.23,5.66l-5.72,6.9c-3.19-2.66-6-4.19-10.8-4.19-6.61,0-11.86,5.84-11.86,12.86v0.12c0,7.55,5.19,13.1,12.51,13.1a14.5,14.5,0,0,0,8.56-2.48v-5.9h-9.15v-7.85h17.94v17.94a26.81,26.81,0,0,1-17.64,6.55C715.64,546.71,706.79,537.68,706.79,525.47Z" transform="translate(-152 -77)"/><path class="b" d="M759.89,504.7H769V546h-9.09V504.7Z" transform="translate(-152 -77)"/><path class="b" d="M793.52,513.07H781V504.7h34.22v8.38H802.61V546h-9.09V513.07Z" transform="translate(-152 -77)"/><path class="b" d="M835.59,504.4H844l17.7,41.6h-9.5l-3.78-9.26H830.92L827.15,546h-9.26Zm9.56,24.31-5.49-13.39-5.49,13.39h11Z" transform="translate(-152 -77)"/><path class="b" d="M872.64,504.7h9.09v33h20.59V546H872.64V504.7Z" transform="translate(-152 -77)"/><path class="b" d="M251,573.36h31.15v8.08H260v8.38h19.47v8.08H260v8.67h22.42v8.08H251v-41.3Z" transform="translate(-152 -77)"/><path class="b" d="M291.73,573.36h8.38l19.35,25.43V573.36h9v41.3H320.7l-20-26.26v26.26h-9v-41.3Z" transform="translate(-152 -77)"/><path class="b" d="M349.19,581.74H336.62v-8.38h34.22v8.38H358.28v32.93h-9.09V581.74Z" transform="translate(-152 -77)"/><path class="b" d="M379,573.36H410.2v8.08H388.07v8.38h19.47v8.08H388.07v8.67h22.42v8.08H379v-41.3Z" transform="translate(-152 -77)"/><path class="b" d="M419.81,573.36H438.7c5.25,0,9.32,1.48,12,4.19a13,13,0,0,1,3.54,9.44v0.12c0,6.67-3.6,10.86-8.85,12.8l10.09,14.75H444.89L436,601.45H428.9v13.22h-9.09v-41.3Zm18.29,20.06c4.43,0,7-2.36,7-5.84v-0.12c0-3.89-2.71-5.9-7.14-5.9h-9v11.86h9.2Z" transform="translate(-152 -77)"/><path class="b" d="M463.71,573.36h16.88c9.85,0,15.81,5.84,15.81,14.28v0.12c0,9.56-7.43,14.52-16.7,14.52h-6.9v12.39h-9.09v-41.3ZM480,594.19c4.54,0,7.2-2.71,7.2-6.25v-0.12c0-4.07-2.83-6.25-7.38-6.25h-7v12.63H480Z" transform="translate(-152 -77)"/><path class="b" d="M504.36,573.36h18.88c5.25,0,9.32,1.48,12,4.19a13,13,0,0,1,3.54,9.44v0.12c0,6.67-3.6,10.86-8.85,12.8l10.09,14.75H529.44l-8.85-13.22h-7.14v13.22h-9.09v-41.3Zm18.29,20.06c4.43,0,7-2.36,7-5.84v-0.12c0-3.89-2.71-5.9-7.14-5.9h-9v11.86h9.2Z" transform="translate(-152 -77)"/><path class="b" d="M548.67,573.36h9.09v41.3h-9.09v-41.3Z" transform="translate(-152 -77)"/><path class="b" d="M566.49,608.65l5.37-6.43c3.72,3.07,7.61,5,12.33,5,3.72,0,6-1.48,6-3.89v-0.12c0-2.3-1.42-3.48-8.32-5.25-8.32-2.12-13.69-4.42-13.69-12.63v-0.12c0-7.49,6-12.45,14.46-12.45A23.91,23.91,0,0,1,597.94,578l-4.72,6.84c-3.66-2.54-7.26-4.07-10.74-4.07s-5.31,1.59-5.31,3.6v0.12c0,2.71,1.77,3.6,8.91,5.43,8.38,2.18,13.1,5.19,13.1,12.39v0.12c0,8.2-6.25,12.8-15.16,12.8A26.29,26.29,0,0,1,566.49,608.65Z" transform="translate(-152 -77)"/><path class="b" d="M608.32,573.36h31.16v8.08H617.35v8.38h19.47v8.08H617.35v8.67h22.42v8.08H608.32v-41.3Z" transform="translate(-152 -77)"/><path class="b" d="M682.19,573.07h8.38l17.7,41.6h-9.5L695,605.4H677.53l-3.78,9.26h-9.26Zm9.56,24.31L686.26,584l-5.49,13.39h11Z" transform="translate(-152 -77)"/><path class="b" d="M707.38,573.36h9.74l8.56,28,9.26-28.09h7.79L752,601.33l8.56-28H770L755.94,615H748l-9.32-27-9.32,27h-7.91Z" transform="translate(-152 -77)"/><path class="b" d="M786.85,573.07h8.38l17.7,41.6h-9.5l-3.78-9.26H782.19l-3.78,9.26h-9.26Zm9.56,24.31L790.92,584l-5.49,13.39h11Z" transform="translate(-152 -77)"/><path class="b" d="M820.54,573.36h18.88c5.25,0,9.32,1.48,12,4.19A13,13,0,0,1,855,587v0.12c0,6.67-3.6,10.86-8.85,12.8l10.09,14.75H845.62l-8.85-13.22h-7.14v13.22h-9.09v-41.3Zm18.29,20.06c4.43,0,7-2.36,7-5.84v-0.12c0-3.89-2.71-5.9-7.14-5.9h-9v11.86h9.21Z" transform="translate(-152 -77)"/><path class="b" d="M864.43,573.36h16.11c13,0,22,8.91,22,20.53V594c0,11.62-9,20.65-22,20.65H864.43v-41.3Zm16.11,33.1c7.43,0,12.45-5,12.45-12.33V594c0-7.32-5-12.45-12.45-12.45h-7v24.9h7Z" transform="translate(-152 -77)"/></svg>